<?xml version="1.0" encoding="utf-8"?>
<!-- Generator: Adobe Illustrator 16.0.4, SVG Export Plug-In . SVG Version: 6.00 Build 0)  -->
<!DOCTYPE svg PUBLIC "-//W3C//DTD SVG 1.1//EN" "http://www.w3.org/Graphics/SVG/1.1/DTD/svg11.dtd">
<svg version="1.1" id="Layer_1" xmlns="http://www.w3.org/2000/svg" xmlns:xlink="http://www.w3.org/1999/xlink" x="0px" y="0px"
	 width="287.334px" height="287.334px" viewBox="0 0 287.334 287.334" enable-background="new 0 0 287.334 287.334"
	 xml:space="preserve">
<path fill="#0072C6" d="M48.404,274.093c-18.004,0-37.184-14.267-43.664-32.479c-2.771-7.788-2.918-15.58-0.433-22.557
	c0.119-1.123,0.271-2.248,0.428-3.4c0.292-2.143,0.593-4.357,0.693-6.801c0.062-0.973-0.201-1.912-0.478-2.908
	c-0.35-1.26-0.746-2.688-0.489-4.229c0.527-3.164,2.343-5.55,4.265-8.074c0.979-1.285,1.991-2.615,2.88-4.115
	c5.037-8.396,10.506-21.729,12.197-29.725l0.028-0.119c0.297-1.129,0.12-2.549-0.068-4.053c-0.232-1.855-0.472-3.775,0.087-5.678
	c0.618-2.354,2.153-4.195,3.637-5.979c0.864-1.037,1.68-2.018,2.24-3.025c4.385-7.474,10.065-21.895,10.86-29.365
	c0.114-1.203-0.101-2.644-0.31-4.037c-0.324-2.17-0.66-4.413,0.092-6.494c0.933-2.985,3.015-4.895,4.854-6.582
	c1.046-0.959,2.034-1.865,2.846-2.947c3.596-4.946,10.189-20.22,11.173-28.929c0.111-0.944-0.133-2.064-0.392-3.249
	c-0.357-1.639-0.763-3.497-0.423-5.541l0.021-0.106c0.562-2.667,2.59-5.025,4.738-7.524c1.038-1.207,2.11-2.456,2.986-3.714
	c1.617-2.388,2.968-5.671,4.398-9.147c3.677-8.939,8.254-20.064,20.675-20.064c2.204,0,4.606,0.365,7.143,1.083l0.242,0.069
	c2.38-0.583,4.839-1.163,7.405-1.163h126.757c8.522,0,16.383,3.878,21.022,10.374c4.703,6.511,5.931,15.198,3.358,23.822
	L211.53,198.356c-8.068,26.44-13.112,33.092-35.707,33.092H31.08c-1.183,0-3.301,0.191-4.293,1.453
	c-0.675,1.014-1.021,1.64,0.147,4.854c2.856,8.283,13.341,10.015,21.637,10.015h153.741c5.115,0,11.291-2.891,12.771-7.728
	L265.05,75.645c0.907-2.874,0.876-5.972,0.729-8.628l-0.219-3.887l3.625,1.419c4.627,1.811,8.301,4.5,10.918,7.991
	c4.707,6.775,5.922,15.393,3.388,23.715l-45.804,150.908c-4.438,15.09-20.052,26.928-35.539,26.928H48.404V274.093z"/>
<path fill="#0072C6" d="M97.541,103.525c-1.82,0-3.981,1.692-4.625,3.621l-3.494,10.648c-0.228,0.686-0.22,1.263,0.018,1.593
	c0.209,0.291,0.673,0.458,1.272,0.458h101.27c1.821,0,3.983-1.692,4.627-3.621l3.494-10.648c0.229-0.686,0.222-1.262-0.018-1.593
	c-0.21-0.291-0.674-0.458-1.273-0.458H97.541z"/>
<path fill="#0072C6" d="M111.365,60.884c-1.82,0-3.981,1.692-4.625,3.621l-3.493,10.648c-0.229,0.686-0.221,1.262,0.018,1.593
	c0.21,0.291,0.673,0.458,1.272,0.458h101.274c1.818,0,3.979-1.692,4.621-3.621l3.495-10.648c0.229-0.686,0.222-1.262-0.018-1.593
	c-0.21-0.291-0.675-0.458-1.273-0.458H111.365z"/>
<path fill="#FFFFFF" d="M232.793,15.743c7.83,0,14.824,3.498,18.988,9.327c4.332,5.997,5.332,13.826,2.998,21.654l-45.64,150.91
	c-7.828,25.652-12.16,31.316-33.313,31.316H31.08c-2.166,0-4.83,0.498-6.329,2.498c-1.333,2-1.498,3.498-0.167,7.162
	c3.331,9.662,14.825,11.66,23.986,11.66h153.742c6.162,0,13.325-3.5,15.159-9.494l49.97-164.402c1-3.166,1-6.497,0.832-9.495
	c3.83,1.499,7.33,3.83,9.828,7.163c4.164,5.997,5.329,13.824,2.995,21.487l-45.805,150.91c-4.164,14.16-18.82,25.154-33.146,25.154
	H48.404c-16.99,0-35.146-13.494-41.309-30.816c-2.666-7.496-2.666-14.823-0.333-21.155c0.333-3.329,0.999-6.662,1.164-10.66
	c0.167-2.663-1.332-4.83-0.999-6.83c0.666-3.995,4.165-6.825,6.83-11.323c4.996-8.33,10.66-21.82,12.492-30.482
	c0.833-3.164-0.833-6.83,0-9.66c0.833-3.166,3.998-5.496,5.664-8.496c4.496-7.661,10.327-22.485,11.16-30.314
	c0.333-3.497-1.334-7.329-0.334-9.995c1.166-3.83,4.83-5.496,7.33-8.828c3.997-5.497,10.66-21.32,11.658-30.147
	c0.334-2.832-1.331-5.663-0.833-8.661c0.667-3.166,4.665-6.497,7.33-10.328c6.204-9.159,7.954-28.14,23.021-28.139
	c1.924,0,4.065,0.31,6.46,0.988l-0.166,0.5c2.832-0.666,5.662-1.5,8.495-1.5h126.759 M104.537,79.705h101.274
	c2.83,0,5.994-2.331,6.994-5.33l3.497-10.66c1-2.999-0.666-5.33-3.666-5.33H111.365c-2.83,0-5.996,2.331-6.996,5.33l-3.497,10.66
	C99.873,77.374,101.539,79.705,104.537,79.705 M90.712,122.346h101.27c2.834,0,5.998-2.331,6.998-5.33l3.498-10.66
	c1-2.999-0.666-5.33-3.666-5.33H97.541c-2.832,0-5.996,2.331-6.996,5.33l-3.498,10.66C86.048,120.015,87.712,122.346,90.712,122.346
	 M232.793,10.743H106.036c-2.609,0-5.105,0.536-7.361,1.08c-2.613-0.709-5.111-1.068-7.429-1.068
	c-14.096-0.002-19.235,12.49-22.987,21.611c-1.374,3.341-2.672,6.497-4.156,8.696c-0.8,1.146-1.823,2.336-2.812,3.487
	c-2.258,2.628-4.594,5.345-5.288,8.64l-0.022,0.105L55.963,53.4c-0.418,2.518,0.062,4.717,0.447,6.483
	c0.204,0.932,0.414,1.896,0.353,2.412c-0.928,8.208-7.319,23.065-10.713,27.761c-0.67,0.885-1.566,1.708-2.515,2.577
	c-1.96,1.798-4.395,4.03-5.535,7.627c-0.942,2.656-0.545,5.312-0.194,7.66c0.193,1.291,0.375,2.511,0.293,3.434
	c-0.764,7.061-6.361,21.233-10.497,28.282l-0.03,0.051l-0.029,0.052c-0.446,0.803-1.189,1.695-1.975,2.64
	c-1.569,1.886-3.347,4.021-4.135,6.942c-0.681,2.375-0.399,4.632-0.15,6.623c0.15,1.201,0.306,2.443,0.131,3.104l-0.031,0.119
	l-0.025,0.12c-1.644,7.771-6.977,20.756-11.888,28.945c-0.829,1.396-1.796,2.668-2.732,3.896c-2.022,2.656-4.113,5.402-4.742,9.176
	c-0.348,2.088,0.148,3.875,0.547,5.311c0.219,0.787,0.425,1.531,0.394,2.029L2.933,208.7l-0.002,0.054
	c-0.096,2.324-0.389,4.479-0.673,6.565c-0.141,1.037-0.286,2.105-0.405,3.183c-2.577,7.451-2.396,15.718,0.532,23.95
	c3.306,9.291,9.811,17.898,18.317,24.236c8.57,6.387,18.408,9.902,27.702,9.902h153.742c16.537,0,33.203-12.625,37.942-28.742
	L285.88,96.98c2.758-9.054,1.42-18.457-3.673-25.791l-0.053-0.074l-0.054-0.073c-2.9-3.87-6.94-6.836-12.008-8.82l-7.25-2.837
	l0.437,7.772c0.136,2.43,0.17,5.247-0.607,7.709l-0.009,0.026l-0.008,0.026l-49.969,164.402c-1.123,3.672-6.262,5.949-10.377,5.949
	H48.57c-7.482,0-16.897-1.438-19.259-8.291l-0.014-0.037l-0.014-0.039c-0.555-1.528-0.615-2.111-0.619-2.268
	c0.019-0.039,0.056-0.113,0.127-0.23c0.192-0.153,0.925-0.457,2.289-0.457h144.747c10.535,0,18.846-1.271,25.158-7.473
	c5.5-5.402,8.791-13.793,12.938-27.385l45.643-150.922c2.801-9.393,1.438-18.873-3.73-26.029
	C250.742,15.012,242.122,10.743,232.793,10.743L232.793,10.743z M106.025,74.705l3.094-9.432c0.354-1.062,1.707-1.889,2.245-1.889
	h99.783l-3.095,9.431c-0.354,1.062-1.704,1.889-2.243,1.889L106.025,74.705L106.025,74.705z M92.2,117.346l3.095-9.431
	c0.354-1.063,1.707-1.889,2.246-1.889h99.784l-3.096,9.431c-0.354,1.063-1.707,1.889-2.246,1.889H92.2L92.2,117.346z"/>
</svg>
