<?xml version="1.0" encoding="utf-8"?>
<!-- Generator: Adobe Illustrator 16.0.4, SVG Export Plug-In . SVG Version: 6.00 Build 0)  -->
<!DOCTYPE svg PUBLIC "-//W3C//DTD SVG 1.1//EN" "http://www.w3.org/Graphics/SVG/1.1/DTD/svg11.dtd">
<svg version="1.1" id="Layer_1" xmlns="http://www.w3.org/2000/svg" xmlns:xlink="http://www.w3.org/1999/xlink" x="0px" y="0px"
	 width="287.334px" height="287.334px" viewBox="0 0 287.334 287.334" enable-background="new 0 0 287.334 287.334"
	 xml:space="preserve">
<path fill="#00243D" d="M104.281,20.205c-14.333,0-26.266,9.86-29.654,23.137c-0.36-0.009-0.696-0.105-1.055-0.105
	c-16.958,0-30.709,13.747-30.709,30.708c0,2.323,0.307,4.563,0.797,6.737c-13.973,5.739-23.829,19.447-23.829,35.488
	c0,6.036,1.517,11.669,4.002,16.75c-11.516,6.627-19.356,18.915-19.356,33.151c0,15.997,9.798,29.691,23.713,35.455
	c-0.432,2.191-0.681,4.451-0.681,6.77c0,19.078,15.464,34.547,34.547,34.547c1.977,0,3.886-0.264,5.772-0.58
	c4.596,13.684,17.378,23.613,32.613,23.613c19.083,0,34.547-15.471,34.547-34.549V118.784c-5.234,4.31-11.505,7.413-18.406,8.825
	c-2.385,0.489-4.625-1.353-4.625-3.786v-7.764c0-1.713,1.127-3.253,2.783-3.675c11.612-2.956,20.248-13.412,20.248-25.93V50.913
	C134.989,33.952,121.238,20.205,104.281,20.205z M280.856,166.071c0-14.236-7.84-26.524-19.356-33.151
	c2.481-5.081,4.003-10.714,4.003-16.75c0-16.041-9.857-29.749-23.83-35.488c0.49-2.173,0.797-4.414,0.797-6.737
	c0-16.961-13.751-30.708-30.708-30.708c-0.359,0-0.694,0.096-1.056,0.105c-3.388-13.276-15.32-23.137-29.652-23.137
	c-16.958,0-30.71,13.747-30.71,30.708v35.541c0,12.519,8.632,22.975,20.249,25.93c1.66,0.422,2.784,1.962,2.784,3.675v7.764
	c0,2.433-2.247,4.275-4.627,3.786c-6.899-1.412-13.165-4.515-18.406-8.825v112.543c0,19.078,15.465,34.549,34.548,34.549
	c15.234,0,28.018-9.93,32.614-23.613c1.886,0.322,3.794,0.58,5.771,0.58c19.085,0,34.549-15.469,34.549-34.547
	c0-2.318-0.25-4.578-0.681-6.77C271.06,195.763,280.856,182.068,280.856,166.071z"/>
</svg>
