<?xml version="1.0" encoding="utf-8"?>
<!-- Generator: Adobe Illustrator 16.0.4, SVG Export Plug-In . SVG Version: 6.00 Build 0)  -->
<!DOCTYPE svg PUBLIC "-//W3C//DTD SVG 1.1//EN" "http://www.w3.org/Graphics/SVG/1.1/DTD/svg11.dtd">
<svg version="1.1" id="Layer_1" xmlns="http://www.w3.org/2000/svg" xmlns:xlink="http://www.w3.org/1999/xlink" x="0px" y="0px"
	 width="52.167px" height="52.167px" viewBox="0 0 52.167 52.167" enable-background="new 0 0 52.167 52.167" xml:space="preserve">
<path fill="#1C70B8" d="M26.143,0.757c-13.983,0-25.314,11.33-25.314,25.314s11.331,25.313,25.314,25.313
	c13.985,0,25.315-11.329,25.315-25.313S40.127,0.757,26.143,0.757z M26.143,46.487c-11.279,0-20.414-9.136-20.414-20.415
	S14.863,5.657,26.143,5.657c11.28,0,20.415,9.136,20.415,20.415S37.422,46.487,26.143,46.487z M32.452,35.83l-8.667-6.297
	c-0.316-0.235-0.5-0.603-0.5-0.99V11.782c0-0.674,0.551-1.226,1.225-1.226h3.266c0.674,0,1.225,0.552,1.225,1.226v14.464
	l6.818,4.961c0.553,0.397,0.664,1.163,0.266,1.715l-1.918,2.644C33.768,36.105,33.002,36.228,32.452,35.83z"/>
</svg>
