<?xml version="1.0" encoding="utf-8"?>
<!-- Generator: Adobe Illustrator 16.0.4, SVG Export Plug-In . SVG Version: 6.00 Build 0)  -->
<!DOCTYPE svg PUBLIC "-//W3C//DTD SVG 1.1//EN" "http://www.w3.org/Graphics/SVG/1.1/DTD/svg11.dtd">
<svg version="1.1" id="Layer_1" xmlns="http://www.w3.org/2000/svg" xmlns:xlink="http://www.w3.org/1999/xlink" x="0px" y="0px"
	 width="287.334px" height="287.334px" viewBox="0 0 287.334 287.334" enable-background="new 0 0 287.334 287.334"
	 xml:space="preserve">
<path fill="#FFFFFF" d="M142.721,6C66.641,6,5,67.641,5,143.722c0,76.079,61.641,137.72,137.721,137.72
	s137.721-61.641,137.721-137.72C280.441,67.641,218.801,6,142.721,6z"/>
<path fill="#0072C6" d="M174.43,200.419l-48.979-35.596c-1.722-1.277-2.721-3.276-2.721-5.387V65.976
	c0-3.665,2.999-6.664,6.664-6.664h26.656c3.665,0,6.663,2.999,6.663,6.664v76.468l35.263,25.656c3,2.166,3.611,6.331,1.445,9.33
	l-15.662,21.547C181.593,201.919,177.429,202.586,174.43,200.419L174.43,200.419z"/>
</svg>
