<?xml version="1.0" encoding="utf-8"?>
<!-- Generator: Adobe Illustrator 16.0.4, SVG Export Plug-In . SVG Version: 6.00 Build 0)  -->
<!DOCTYPE svg PUBLIC "-//W3C//DTD SVG 1.1//EN" "http://www.w3.org/Graphics/SVG/1.1/DTD/svg11.dtd">
<svg version="1.1" id="Layer_1" xmlns="http://www.w3.org/2000/svg" xmlns:xlink="http://www.w3.org/1999/xlink" x="0px" y="0px"
	 width="287.334px" height="287.334px" viewBox="0 0 287.334 287.334" enable-background="new 0 0 287.334 287.334"
	 xml:space="preserve">
<g>
	<path fill="#0072C6" d="M222.772,117.213l-3.377,5.888c-1.234,2.183-3.869,3.088-6.217,2.223
		c-4.857-1.811-9.306-4.405-13.216-7.657c-1.895-1.565-2.389-4.323-1.153-6.464l3.377-5.887c-2.842-3.295-5.063-7.124-6.547-11.282
		h-6.793c-2.471,0-4.612-1.771-5.023-4.241c-0.822-4.941-0.865-10.129,0-15.275c0.411-2.47,2.553-4.282,5.023-4.282h6.793
		c1.483-4.158,3.705-7.986,6.547-11.281l-3.377-5.887c-1.235-2.141-0.781-4.899,1.153-6.464c3.91-3.253,8.398-5.847,13.216-7.658
		c2.348-0.865,4.982,0.041,6.217,2.224l3.377,5.887c4.323-0.782,8.728-0.782,13.051,0l3.377-5.887
		c1.235-2.183,3.87-3.088,6.217-2.224c4.857,1.812,9.305,4.405,13.216,7.658c1.895,1.564,2.389,4.323,1.153,6.464l-3.377,5.887
		c2.842,3.295,5.065,7.124,6.547,11.281h6.792c2.471,0,4.613,1.771,5.024,4.241c0.823,4.941,0.865,10.127,0,15.274
		c-0.411,2.472-2.554,4.283-5.024,4.283h-6.792c-1.481,4.158-3.705,7.987-6.547,11.282l3.377,5.887
		c1.235,2.141,0.781,4.899-1.153,6.464c-3.911,3.252-8.398,5.846-13.216,7.657c-2.347,0.865-4.981-0.041-6.217-2.223l-3.377-5.888
		C231.542,117.997,227.096,117.997,222.772,117.213z M218.45,93.004c15.85,12.188,33.926-5.887,21.738-21.737
		C224.337,59.038,206.263,77.154,218.45,93.004z M170.979,156.368l13.874,6.917c4.159,2.389,5.97,7.453,4.323,11.98
		c-3.665,9.965-10.869,19.105-17.539,27.091c-3.047,3.666-8.317,4.571-12.475,2.184l-11.981-6.918
		c-6.587,5.641-14.246,10.129-22.604,13.053v13.834c0,4.775-3.417,8.893-8.111,9.715c-10.128,1.73-20.75,1.812-31.249,0
		c-4.735-0.822-8.234-4.898-8.234-9.715v-13.834c-8.358-2.965-16.016-7.412-22.604-13.053l-11.981,6.877
		c-4.117,2.387-9.428,1.481-12.475-2.182c-6.67-7.988-13.71-17.128-17.374-27.052c-1.647-4.487,0.164-9.551,4.322-11.98
		l13.711-6.917c-1.606-8.605-1.606-17.457,0-26.103l-13.711-6.958c-4.158-2.387-6.011-7.451-4.322-11.94
		c3.664-9.963,10.704-19.103,17.374-27.091c3.047-3.665,8.317-4.57,12.475-2.182l11.981,6.916
		c6.588-5.64,14.246-10.128,22.604-13.051V62.085c0-4.735,3.375-8.853,8.07-9.676c10.128-1.729,20.791-1.811,31.291-0.041
		c4.734,0.823,8.234,4.9,8.234,9.717v13.833c8.358,2.965,16.016,7.412,22.604,13.052l11.981-6.917
		c4.117-2.388,9.428-1.482,12.475,2.183c6.67,7.987,13.67,17.126,17.333,27.09c1.647,4.488,0.042,9.551-4.117,11.98l-13.874,6.918
		C172.582,138.871,172.582,147.722,170.979,156.368z M122.56,165.056c24.374-31.703-11.816-67.892-43.519-43.518
		C54.667,153.239,90.857,189.429,122.56,165.056z M222.772,240.276l-3.377,5.889c-1.234,2.182-3.869,3.088-6.217,2.223
		c-4.857-1.812-9.306-4.406-13.216-7.658c-1.895-1.564-2.389-4.322-1.153-6.464l3.377-5.887c-2.842-3.294-5.063-7.124-6.547-11.282
		h-6.793c-2.471,0-4.612-1.77-5.023-4.239c-0.822-4.942-0.865-10.129,0-15.275c0.411-2.471,2.553-4.282,5.023-4.282h6.793
		c1.483-4.158,3.705-7.987,6.547-11.281l-3.377-5.888c-1.235-2.142-0.781-4.899,1.153-6.463c3.91-3.254,8.398-5.848,13.216-7.659
		c2.348-0.864,4.982,0.041,6.217,2.224l3.377,5.887c4.323-0.781,8.728-0.781,13.051,0l3.377-5.887
		c1.235-2.183,3.87-3.088,6.217-2.224c4.857,1.812,9.305,4.405,13.216,7.659c1.895,1.563,2.389,4.321,1.153,6.463l-3.377,5.888
		c2.842,3.294,5.065,7.123,6.547,11.281h6.792c2.471,0,4.613,1.77,5.024,4.24c0.823,4.941,0.865,10.129,0,15.275
		c-0.411,2.471-2.554,4.281-5.024,4.281h-6.792c-1.481,4.158-3.705,7.988-6.547,11.282l3.377,5.887
		c1.235,2.142,0.781,4.899-1.153,6.464c-3.911,3.252-8.398,5.847-13.216,7.658c-2.347,0.865-4.981-0.041-6.217-2.223l-3.377-5.889
		C231.542,241.059,227.096,241.059,222.772,240.276z M218.45,216.026c15.85,12.188,33.926-5.887,21.738-21.738
		C224.337,182.101,206.263,200.175,218.45,216.026z"/>
</g>
</svg>
