<?xml version="1.0" encoding="utf-8"?>
<!-- Generator: Adobe Illustrator 16.0.4, SVG Export Plug-In . SVG Version: 6.00 Build 0)  -->
<!DOCTYPE svg PUBLIC "-//W3C//DTD SVG 1.1//EN" "http://www.w3.org/Graphics/SVG/1.1/DTD/svg11.dtd">
<svg version="1.1" id="Layer_1" xmlns="http://www.w3.org/2000/svg" xmlns:xlink="http://www.w3.org/1999/xlink" x="0px" y="0px"
	 width="287.334px" height="287.334px" viewBox="0 0 287.334 287.334" enable-background="new 0 0 287.334 287.334"
	 xml:space="preserve">
<path fill="#0072C6" d="M143.666,275.144c-55.571,0-113.051-14.719-113.051-39.351v-29.282l3.938,2.77
	c21.388,15.035,62.178,24.014,109.113,24.014c46.937,0,87.728-8.979,109.115-24.014l3.938-2.77v29.282
	C256.719,260.425,199.237,275.144,143.666,275.144z"/>
<path fill="#0072C6" d="M143.666,219.866c-55.571,0-113.051-14.719-113.051-39.35v-29.281l3.938,2.769
	c21.39,15.036,62.18,24.015,109.113,24.015c46.935,0,87.726-8.979,109.115-24.015l3.938-2.769v29.281
	C256.719,205.147,199.237,219.866,143.666,219.866z"/>
<path fill="#0072C6" d="M143.666,164.593c-55.571,0-113.051-14.72-113.051-39.35V95.958l3.938,2.768
	c21.392,15.039,62.182,24.017,109.113,24.017c46.933,0,87.724-8.979,109.115-24.017l3.938-2.768v29.285
	C256.719,149.873,199.237,164.593,143.666,164.593z"/>
<path fill="#0072C6" d="M143.666,109.317c-55.571,0-113.051-14.719-113.051-39.351V51.541c0-24.631,57.479-39.35,113.051-39.35
	s113.053,14.719,113.053,39.35v18.426C256.719,94.598,199.237,109.317,143.666,109.317z"/>
<path fill="#FFFFFF" d="M143.666,14.691c61.033,0,110.553,16.553,110.553,36.85v18.426c0,20.297-49.52,36.851-110.553,36.851
	S33.115,90.264,33.115,69.967V51.541C33.115,31.244,82.633,14.691,143.666,14.691 M254.219,100.771v24.472
	c0,20.296-49.52,36.85-110.553,36.85s-110.551-16.554-110.551-36.85v-24.472c23.752,16.697,67.223,24.472,110.551,24.472
	C186.996,125.243,230.467,117.469,254.219,100.771 M254.219,156.049v24.47c0,20.297-49.52,36.85-110.553,36.85
	s-110.551-16.553-110.551-36.85v-24.47c23.752,16.697,67.223,24.47,110.551,24.47C186.996,180.519,230.467,172.746,254.219,156.049
	 M254.219,211.323v24.47c0,20.298-49.52,36.851-110.553,36.851S33.115,256.091,33.115,235.793v-24.47
	c23.752,16.699,67.223,24.47,110.551,24.47C186.996,235.793,230.467,228.022,254.219,211.323 M143.666,9.691
	c-30.026,0-58.347,3.932-79.745,11.07C34.327,30.634,28.115,42.949,28.115,51.54v18.426c0,8.592,6.212,20.906,35.806,30.78
	c21.398,7.139,49.719,11.071,79.745,11.071c30.026,0,58.349-3.932,79.746-11.071c29.595-9.874,35.807-22.188,35.807-30.78V51.541
	c0-8.592-6.212-20.906-35.807-30.779C202.015,13.623,173.692,9.691,143.666,9.691L143.666,9.691z M259.219,91.145l-7.875,5.537
	c-20.987,14.754-61.241,23.562-107.678,23.562c-46.436,0-86.688-8.808-107.675-23.562l-7.875-5.537v9.627v24.472
	c0,8.592,6.212,20.905,35.806,30.778c21.398,7.139,49.719,11.07,79.745,11.07c30.025,0,58.348-3.933,79.746-11.07
	c29.595-9.873,35.807-22.188,35.807-30.778v-24.472L259.219,91.145L259.219,91.145z M259.219,146.422l-7.875,5.536
	c-20.985,14.753-61.237,23.561-107.678,23.561c-46.438,0-86.69-8.808-107.675-23.561l-7.875-5.536v9.627v24.47
	c0,8.592,6.212,20.905,35.806,30.778c21.398,7.14,49.719,11.069,79.745,11.069c30.025,0,58.348-3.932,79.746-11.069
	c29.595-9.873,35.807-22.188,35.807-30.778V156.05L259.219,146.422L259.219,146.422z M259.219,201.696l-7.876,5.537
	c-20.982,14.752-61.236,23.56-107.677,23.56c-46.439,0-86.691-8.808-107.675-23.56l-7.875-5.537v9.627v24.47
	c0,8.593,6.212,20.905,35.806,30.778c21.398,7.14,49.719,11.07,79.745,11.07c30.025,0,58.348-3.932,79.746-11.07
	c29.595-9.873,35.807-22.188,35.807-30.778v-24.47L259.219,201.696L259.219,201.696z"/>
</svg>
