<?xml version="1.0" encoding="utf-8"?>
<!-- Generator: Adobe Illustrator 16.0.4, SVG Export Plug-In . SVG Version: 6.00 Build 0)  -->
<!DOCTYPE svg PUBLIC "-//W3C//DTD SVG 1.1//EN" "http://www.w3.org/Graphics/SVG/1.1/DTD/svg11.dtd">
<svg version="1.1" id="Layer_1" xmlns="http://www.w3.org/2000/svg" xmlns:xlink="http://www.w3.org/1999/xlink" x="0px" y="0px"
	 width="226.167px" height="287.334px" viewBox="0 0 226.167 287.334" enable-background="new 0 0 226.167 287.334"
	 xml:space="preserve">
<g>
	<path fill="#0072C6" d="M206.872,58.649l-44.217-44.218c-4.744-4.743-11.173-7.43-17.867-7.43H37.225
		C23.259,7.055,11.927,18.385,11.927,32.352v219.239c0,13.966,11.332,25.299,25.298,25.299h151.783
		c13.964,0,25.295-11.333,25.295-25.299V76.566C214.305,69.874,211.615,63.391,206.872,58.649L206.872,58.649z"/>
	<polygon fill="#FFFFFF" points="199.803,74.511 159.693,74.511 159.693,34.404 	"/>
	<path fill="#FFFFFF" d="M26.427,262.39V21.501h117.24v53.01c0,7.01,9.02,14.5,16.026,14.5h40.109V262.39H26.427z"/>
</g>
</svg>
