<?xml version="1.0" encoding="utf-8"?>
<!-- Generator: Adobe Illustrator 16.0.4, SVG Export Plug-In . SVG Version: 6.00 Build 0)  -->
<!DOCTYPE svg PUBLIC "-//W3C//DTD SVG 1.1//EN" "http://www.w3.org/Graphics/SVG/1.1/DTD/svg11.dtd">
<svg version="1.1" id="Layer_1" xmlns="http://www.w3.org/2000/svg" xmlns:xlink="http://www.w3.org/1999/xlink" x="0px" y="0px"
	 width="287.334px" height="287.334px" viewBox="0 0 287.334 287.334" enable-background="new 0 0 287.334 287.334"
	 xml:space="preserve">
<g>
	<path fill="#0072C6" d="M202.684,38.659l-27.832-27.834c-2.986-2.985-7.033-4.677-11.246-4.677h-67.71
		c-8.791,0.034-15.925,7.166-15.925,15.958V160.11c0,8.791,7.134,15.926,15.925,15.926h95.544c8.791,0,15.924-7.135,15.924-15.926
		V49.938C207.363,45.725,205.67,41.644,202.684,38.659L202.684,38.659z"/>
	<polygon fill="#FFFFFF" points="190.146,48.644 164.898,48.644 164.898,23.398 	"/>
	<path fill="#FFFFFF" d="M95.896,160.11V22.105h53.081v34.501c0,4.412,3.549,7.962,7.959,7.962h34.504v95.542H95.896z"/>
</g>
<g>
	<path fill="#0072C6" d="M134.64,139.512l-27.833-27.834c-2.986-2.985-7.033-4.677-11.247-4.677H27.851
		c-8.791,0.034-15.924,7.166-15.924,15.958v138.006c0,8.791,7.133,15.925,15.924,15.925h95.544c8.79,0,15.923-7.134,15.923-15.925
		V150.791C139.319,146.578,137.626,142.497,134.64,139.512L134.64,139.512z"/>
	<polygon fill="#FFFFFF" points="122.102,149.497 96.854,149.497 96.854,124.251 	"/>
	<path fill="#FFFFFF" d="M27.851,260.964V122.958h53.081v34.501c0,4.412,3.549,7.962,7.96,7.962h34.503v95.543H27.851z"/>
</g>
<g>
	<path fill="#0072C6" d="M270.727,139.528l-27.832-27.834c-2.986-2.985-7.033-4.677-11.247-4.677h-67.709
		c-8.791,0.034-15.925,7.166-15.925,15.958V260.98c0,8.791,7.134,15.925,15.925,15.925h95.544c8.791,0,15.924-7.134,15.924-15.925
		V150.808C275.406,146.595,273.713,142.514,270.727,139.528L270.727,139.528z"/>
	<polygon fill="#FFFFFF" points="258.188,149.514 232.941,149.514 232.941,124.268 	"/>
	<path fill="#FFFFFF" d="M163.938,260.98V122.975h53.08v34.501c0,4.412,3.549,7.962,7.96,7.962h34.504v95.543H163.938z"/>
</g>
</svg>
