<?xml version="1.0" encoding="utf-8"?>
<!-- Generator: Adobe Illustrator 16.0.4, SVG Export Plug-In . SVG Version: 6.00 Build 0)  -->
<!DOCTYPE svg PUBLIC "-//W3C//DTD SVG 1.1//EN" "http://www.w3.org/Graphics/SVG/1.1/DTD/svg11.dtd">
<svg version="1.1" id="Layer_1" xmlns="http://www.w3.org/2000/svg" xmlns:xlink="http://www.w3.org/1999/xlink" x="0px" y="0px"
	 width="49px" height="64px" viewBox="0 0 49 64" enable-background="new 0 0 49 64" xml:space="preserve">
<polyline fill="none" points="40.413,26.19 40.7,26.19 40.987,26.19 "/>
<path fill="#C45117" stroke="#020304" stroke-width="1.2167" d="M34.438,23.637c7.297,2.901,12.226,9.676,12.637,17.379v0.016
	v14.455c0,0.039-0.009,0.08-0.025,0.117c-1.02,2.264-2.816,4.104-5.078,5.201l0.002-0.002c-0.403,0.199-0.838,0.297-1.269,0.297
	c-0.669,0-1.33-0.236-1.853-0.682c-2.253,1.184-4.764,1.824-7.323,1.861h-0.001c-0.201,0.002-0.402,0.004-0.604,0.004
	c-7.796,0-15.483-1.83-22.414-5.336c-0.003-0.002-0.005-0.006-0.008-0.008c-0.003,0-0.006-0.002-0.009-0.002
	C7.558,56.381,6.91,55.467,6.7,54.424c-0.292,0.09-0.593,0.135-0.892,0.135c-0.739,0-1.469-0.271-2.031-0.789l0,0
	c-1.714-1.346-2.711-3.383-2.711-5.535c0-0.031,0-0.062,0.001-0.092L1,39.951l0-0.018c0.379-7.806,5.31-14.702,12.668-17.726
	L34.438,23.637z"/>
<path fill="#C45117" stroke="#020304" stroke-width="1.2167" d="M38.461,14.536c0-3.739-1.55-7.125-4.052-9.574
	C31.908,2.513,28.452,1,24.637,1s-7.271,1.513-9.772,3.962c-2.501,2.449-4.051,5.835-4.051,9.574c0,3.738,1.549,7.126,4.05,9.573
	c2.501,2.448,5.958,3.962,9.773,3.962s7.271-1.514,9.772-3.962C36.912,21.662,38.461,18.274,38.461,14.536"/>
<path fill="#010202" d="M6.525,54.055c-0.117-1.416-0.175-2.838-0.175-4.26c0-7.178,1.487-14.338,4.37-20.922
	c0.064-0.146,0.233-0.212,0.378-0.147c0.146,0.064,0.212,0.233,0.148,0.378c-2.851,6.512-4.322,13.592-4.322,20.691
	c0,1.406,0.058,2.811,0.174,4.215c0.013,0.156-0.104,0.295-0.262,0.309C6.677,54.33,6.538,54.213,6.525,54.055z"/>
<path fill="#010202" d="M38.611,60.059c0.114-1.941,0.17-3.887,0.17-5.832c0-6.916-0.716-13.83-2.136-20.604
	c-0.033-0.154,0.066-0.307,0.222-0.34c0.155-0.031,0.307,0.066,0.34,0.223c1.429,6.812,2.149,13.766,2.149,20.721
	c0,1.955-0.057,3.912-0.171,5.865c-0.009,0.158-0.145,0.277-0.303,0.27C38.723,60.352,38.602,60.215,38.611,60.059z"/>
</svg>
