<?xml version="1.0" encoding="utf-8"?>
<!-- Generator: Adobe Illustrator 16.0.4, SVG Export Plug-In . SVG Version: 6.00 Build 0)  -->
<!DOCTYPE svg PUBLIC "-//W3C//DTD SVG 1.1//EN" "http://www.w3.org/Graphics/SVG/1.1/DTD/svg11.dtd">
<svg version="1.1" id="Layer_1" xmlns="http://www.w3.org/2000/svg" xmlns:xlink="http://www.w3.org/1999/xlink" x="0px" y="0px"
	 width="402px" height="532px" viewBox="0 0 402 532" enable-background="new 0 0 402 532" xml:space="preserve">
<path fill="#68A9DD" stroke="#010202" stroke-width="8" d="M289.383,199.469c61.709,24.53,103.382,81.814,106.855,146.967
	l0.003,0.129v122.215c0,0.34-0.075,0.689-0.214,0.998c-8.625,19.133-23.815,34.697-42.935,43.983l0.013-0.005
	c-3.411,1.681-7.09,2.498-10.733,2.498c-5.659,0-11.243-1.989-15.671-5.764c-19.054,10.018-40.286,15.43-61.924,15.738l-0.006,0.001
	c-1.701,0.021-3.404,0.031-5.105,0.031c-65.927,0-130.922-15.466-189.529-45.128c-0.025-0.013-0.046-0.031-0.07-0.045
	c-0.023-0.013-0.048-0.02-0.071-0.033c-7.911-4.689-13.389-12.427-15.164-21.246c-2.47,0.764-5.012,1.146-7.541,1.146
	c-6.25,0-12.419-2.298-17.173-6.676l0,0.001c-14.492-11.39-22.922-28.611-22.921-46.802c0-0.267,0.001-0.532,0.005-0.799
	l-0.568-69.253l0.003-0.137c3.206-66.025,44.902-124.339,107.119-149.904L289.383,199.469z"/>
<polyline fill="none" stroke="#555555" stroke-width="0" stroke-linecap="round" stroke-linejoin="round" points="318.546,122.515 
	320.974,122.515 323.401,122.515 "/>
<path fill="#68A9DD" stroke="#010202" stroke-width="8" d="M323.401,122.515c0.002-31.617-13.103-60.255-34.257-80.953
	c-21.152-20.704-50.382-33.504-82.638-33.503c-32.256-0.001-61.484,12.799-82.634,33.503
	c-21.153,20.698-34.255,49.336-34.254,80.953c-0.001,31.614,13.101,60.252,34.253,80.951c21.151,20.703,50.379,33.506,82.635,33.505
	c32.256,0.001,61.485-12.802,82.638-33.505C310.299,182.767,323.403,154.129,323.401,122.515"/>
<path d="M53.352,456.691c-0.992-11.992-1.485-24.014-1.485-36.029c0-60.697,12.578-121.229,36.956-176.912
	c0.538-1.229,1.97-1.788,3.198-1.25c1.229,0.537,1.789,1.969,1.25,3.196c-24.106,55.062-36.549,114.938-36.548,174.966
	c0,11.883,0.487,23.771,1.468,35.629c0.11,1.336-0.883,2.509-2.219,2.62C54.635,459.021,53.462,458.027,53.352,456.691z"/>
<path d="M324.668,507.445c0.959-16.418,1.436-32.861,1.436-49.301c0-58.49-6.051-116.949-18.067-174.219
	c-0.275-1.313,0.565-2.601,1.877-2.875c1.312-0.275,2.6,0.564,2.875,1.877c12.086,57.6,18.172,116.392,18.172,175.217
	c0,16.534-0.481,33.07-1.444,49.584c-0.078,1.338-1.227,2.36-2.564,2.281C325.612,509.932,324.59,508.783,324.668,507.445z"/>
</svg>
