<?xml version="1.0" encoding="utf-8"?>
<!-- Generator: Adobe Illustrator 16.0.4, SVG Export Plug-In . SVG Version: 6.00 Build 0)  -->
<!DOCTYPE svg PUBLIC "-//W3C//DTD SVG 1.1//EN" "http://www.w3.org/Graphics/SVG/1.1/DTD/svg11.dtd">
<svg version="1.1" id="Layer_1" xmlns="http://www.w3.org/2000/svg" xmlns:xlink="http://www.w3.org/1999/xlink" x="0px" y="0px"
	 width="150.5px" height="147.5px" viewBox="0 0 150.5 147.5" enable-background="new 0 0 150.5 147.5" xml:space="preserve">
<g>
	<g>
		<path fill="#545479" d="M3.547,83.353c4.5,31.802,29.905,55.606,60.785,60.118c0.002,0.001,0.004,0.005,0.007,0.007
			c0.636,0.095,1.276,0.165,1.917,0.243c0.667,0.081,1.338,0.151,2.011,0.21c0.568,0.053,1.135,0.111,1.706,0.148
			c-0.001-0.004-0.001-0.006-0.002-0.01c5.082,0.346,10.279,0.186,15.534-0.557c14.383-2.034,27.186-8.067,37.422-16.756
			c-0.002,0.01-0.006,0.019-0.007,0.029c0.249-0.21,0.49-0.429,0.735-0.645c0.218-0.189,0.437-0.375,0.65-0.568
			c0.713-0.636,1.414-1.284,2.102-1.948c0.193-0.187,0.383-0.379,0.574-0.566c0.571-0.564,1.133-1.139,1.686-1.721
			c0.172-0.18,0.346-0.356,0.514-0.537c0.65-0.701,1.283-1.416,1.906-2.141c0.188-0.221,0.373-0.442,0.559-0.664
			c0.553-0.658,1.094-1.324,1.621-2.002c0.098-0.125,0.199-0.248,0.297-0.375c0.59-0.77,1.16-1.553,1.718-2.344
			c0.165-0.236,0.331-0.471,0.494-0.708c0.548-0.797,1.089-1.604,1.604-2.423c0.088-0.139,0.168-0.279,0.254-0.416
			c0.457-0.734,0.896-1.479,1.324-2.229c0.136-0.233,0.27-0.468,0.402-0.7c0.471-0.847,0.926-1.7,1.361-2.565
			c0.101-0.199,0.195-0.402,0.295-0.604c0.373-0.755,0.732-1.52,1.078-2.287c0.094-0.208,0.188-0.41,0.277-0.619
			c0.395-0.896,0.768-1.799,1.123-2.713c0.088-0.23,0.174-0.463,0.261-0.695c0.317-0.838,0.62-1.684,0.904-2.533
			c0.044-0.135,0.093-0.267,0.138-0.402c0.309-0.948,0.594-1.906,0.863-2.869c0.068-0.244,0.137-0.49,0.201-0.735
			c0.264-0.977,0.513-1.96,0.732-2.95c0.017-0.072,0.028-0.145,0.045-0.216c0.207-0.944,0.389-1.896,0.556-2.852
			c0.043-0.237,0.085-0.478,0.124-0.718c0.165-1,0.311-2.004,0.433-3.016c0.021-0.17,0.036-0.342,0.054-0.512
			c0.103-0.91,0.186-1.824,0.252-2.74c0.016-0.213,0.033-0.423,0.047-0.633c0.064-1.026,0.105-2.054,0.123-3.086
			c0.006-0.22,0.006-0.44,0.006-0.662c0.008-0.949,0-1.898-0.032-2.853c-0.004-0.145-0.004-0.29-0.011-0.433
			c-0.039-1.051-0.109-2.104-0.199-3.161c-0.02-0.244-0.043-0.488-0.066-0.732c-0.103-1.077-0.221-2.156-0.373-3.237
			c-0.153-1.089-0.342-2.164-0.543-3.234c-0.057-0.307-0.121-0.614-0.185-0.921c-0.165-0.814-0.345-1.624-0.538-2.428
			c-0.065-0.275-0.129-0.551-0.197-0.824c-0.262-1.035-0.544-2.061-0.85-3.075c-0.056-0.178-0.116-0.352-0.171-0.53
			c-0.265-0.849-0.544-1.688-0.839-2.52c-0.108-0.304-0.217-0.604-0.329-0.904c-0.29-0.789-0.597-1.569-0.913-2.342
			c-0.09-0.213-0.17-0.428-0.262-0.641c-0.403-0.956-0.83-1.898-1.274-2.831c-0.117-0.244-0.239-0.481-0.358-0.724
			c-0.35-0.713-0.713-1.418-1.086-2.118c-0.15-0.284-0.305-0.568-0.461-0.849c-0.436-0.79-0.887-1.572-1.354-2.34
			c-0.07-0.122-0.141-0.244-0.213-0.364c-0.531-0.864-1.086-1.715-1.652-2.554c-0.181-0.265-0.364-0.527-0.546-0.79
			c-0.426-0.611-0.86-1.215-1.306-1.812c-0.191-0.26-0.383-0.522-0.578-0.777c-0.609-0.796-1.23-1.581-1.869-2.348
			c-0.121-0.145-0.248-0.285-0.371-0.428c-0.541-0.638-1.092-1.265-1.656-1.883c-0.238-0.262-0.48-0.522-0.725-0.781
			c-0.495-0.529-1.002-1.051-1.516-1.564c-0.223-0.224-0.441-0.449-0.666-0.668c-0.701-0.685-1.417-1.356-2.146-2.01
			c-0.229-0.207-0.465-0.405-0.697-0.61c-0.541-0.473-1.088-0.941-1.645-1.397c-0.293-0.241-0.586-0.481-0.883-0.718
			c-0.58-0.462-1.166-0.913-1.76-1.355c-0.229-0.173-0.455-0.352-0.688-0.52c-0.779-0.57-1.574-1.121-2.379-1.661
			c-0.309-0.208-0.625-0.409-0.939-0.612c-0.558-0.362-1.12-0.718-1.689-1.064c-0.337-0.205-0.671-0.408-1.01-0.609
			c-0.717-0.421-1.438-0.829-2.167-1.224c-0.319-0.172-0.64-0.343-0.959-0.51c-0.705-0.37-1.415-0.728-2.133-1.076
			c-0.366-0.176-0.737-0.349-1.106-0.517c-0.592-0.275-1.191-0.54-1.791-0.8c-0.361-0.153-0.718-0.312-1.082-0.46
			c-0.889-0.366-1.785-0.718-2.692-1.049c-0.321-0.117-0.65-0.223-0.974-0.337c-0.656-0.23-1.313-0.453-1.976-0.664
			c-0.401-0.126-0.804-0.25-1.209-0.371c-0.216-0.064-0.431-0.136-0.647-0.201c-0.002,0.006-0.004,0.011-0.004,0.018
			c-7.556-2.186-15.573-3.196-23.806-2.82c-0.001,0-0.004-0.002-0.006-0.002c-0.48,0.02-0.962,0.067-1.443,0.099
			c-0.686,0.044-1.369,0.077-2.058,0.144c-1.2,0.109-2.404,0.248-3.611,0.418c-1.11,0.158-2.209,0.347-3.299,0.549
			c-0.336,0.064-0.669,0.133-1.003,0.201c-0.789,0.157-1.573,0.329-2.351,0.513c-0.335,0.077-0.671,0.153-1.006,0.236
			c-1.011,0.251-2.016,0.52-3.007,0.811v0.002c-1.939,0.572-3.832,1.231-5.692,1.948c-0.005-0.005-0.007-0.01-0.012-0.015
			c-0.248,0.096-0.492,0.2-0.739,0.299c-0.342,0.136-0.684,0.272-1.022,0.414c-0.902,0.374-1.798,0.76-2.678,1.168
			c-0.239,0.11-0.471,0.228-0.708,0.339c-0.708,0.338-1.409,0.686-2.104,1.042c-0.324,0.168-0.648,0.335-0.969,0.509
			c-0.833,0.444-1.656,0.897-2.467,1.373c-0.228,0.135-0.452,0.275-0.678,0.411c-0.679,0.406-1.348,0.823-2.012,1.25
			c-0.303,0.196-0.606,0.394-0.906,0.594c-0.749,0.498-1.488,1.006-2.217,1.53c-0.226,0.163-0.449,0.332-0.674,0.498
			c-0.646,0.475-1.283,0.963-1.912,1.46c-0.28,0.22-0.558,0.443-0.833,0.668c-0.674,0.547-1.34,1.106-1.993,1.678
			c-0.21,0.183-0.417,0.369-0.624,0.555c-0.613,0.549-1.215,1.109-1.808,1.676c-0.252,0.243-0.503,0.485-0.752,0.731
			c-0.606,0.599-1.203,1.204-1.787,1.823c-0.18,0.192-0.361,0.384-0.539,0.577c-0.578,0.625-1.143,1.26-1.697,1.906
			c-0.226,0.258-0.446,0.52-0.667,0.783c-0.537,0.641-1.063,1.29-1.576,1.947c-0.15,0.193-0.302,0.389-0.451,0.584
			c-0.536,0.701-1.056,1.414-1.564,2.131c-0.196,0.28-0.389,0.557-0.581,0.835c-0.464,0.676-0.917,1.358-1.357,2.05
			c-0.122,0.192-0.248,0.382-0.368,0.575c-0.486,0.777-0.95,1.564-1.406,2.36c-0.166,0.293-0.33,0.585-0.493,0.88
			c-0.393,0.708-0.771,1.421-1.139,2.141c-0.092,0.181-0.19,0.359-0.279,0.54c-0.427,0.855-0.83,1.72-1.221,2.592
			c-0.138,0.307-0.272,0.613-0.404,0.918c-0.317,0.734-0.622,1.473-0.915,2.215c-0.08,0.203-0.164,0.401-0.241,0.604
			c-0.342,0.896-0.661,1.801-0.966,2.71c-0.105,0.313-0.207,0.63-0.308,0.946c-0.241,0.755-0.47,1.515-0.687,2.28
			c-0.062,0.222-0.132,0.441-0.192,0.665c-0.252,0.927-0.48,1.864-0.695,2.806c-0.074,0.324-0.145,0.648-0.213,0.973
			c-0.164,0.771-0.316,1.546-0.453,2.327c-0.043,0.24-0.093,0.48-0.133,0.722c-0.004,0.026-0.01,0.053-0.015,0.08
			c0,0.002,0,0.008,0.002,0.011C2.658,69.067,2.529,76.161,3.547,83.353z"/>
	</g>
	
		<ellipse transform="matrix(0.9901 -0.1401 0.1401 0.9901 -9.507 11.3075)" fill="#8BB8E4" cx="75.554" cy="73.174" rx="72.72" ry="71.048"/>
	<g>
		<path fill="#5A8148" d="M97.87,7.769c1.379,0.331,2.214,1.897,2.519,3.41c0.282,1.406,0.419,2.844,0.621,4.269
			c0.162-0.208,0.326-0.415,0.488-0.623c0.973,1.028,1.941,2.057,3.004,3.179c0.687-0.681,1.152-1.144,1.99-1.976
			c1.012,2.099,1.939,4.025,2.776,5.763c-0.931,2.111-1.866,4.23-2.782,6.31c-0.443-0.243-0.812-0.442-1.146-0.624
			c-0.482,0.644-0.869,1.045-1.11,1.52c-0.142,0.275-0.052,0.668-0.067,1.007c3.402,1.563,4.006,2.255,4.748,5.45
			c-1.936-0.093-3.898-0.186-5.934-0.282c0.475,4.69,0.939,6.034,2.776,8.47c0.876-0.03,1.714-0.057,2.481-0.083
			c0.521,2.276,0.26,4.313-1.317,5.354c-2.271,1.495,0.157,3.719-1.562,5.577c-2.748,2.967-3.371,7.282-5.298,11.129
			c1.081,0.339,1.838,0.572,2.917,0.91c-0.097,1.264-0.057,2.635-0.332,3.939c-0.504,2.384,0.099,4.409,1.576,6.253
			c0.945,1.184,1.816,2.436,2.853,3.53c1.223,1.29,3.526,1.19,4.24,3.206c0.049,0.143,0.261,0.267,0.422,0.32
			c0.476,0.152,0.983,0.422,1.442,0.362c1.186-0.155,2.344-0.139,3.349-1.277c0.414-0.47,2.79,0.73,3.146,0.28
			c1.365-1.729,3.233-1.24,4.878-1.654c0.286-0.069,0.642,0.139,1.122,0.258c-0.218,3.131,2.489,0.602,3.674,1.986
			c-0.104,0.735-0.012,1.836-0.438,2.668c-0.648,1.261,0.818,2.943-0.895,3.889c2.719,3.104,1.406,7.148,2.449,10.025
			c-1.391,3.658-3.233,6.24-3.17,10.176c0.073,4.508-1.878,9.078-3.559,13.447c-0.252,0.648-0.396,1.352-0.809,2.859
			c18.082-15.336,28.145-39.004,24.633-63.812c-4.018-28.383-24.683-50.401-51.03-58.014C96.41,6.164,95.823,7.278,97.87,7.769z
			 M115.772,19.968c-0.809,0.568-1.619,1.134-2.433,1.702c-0.426-0.59-2.704-0.529-0.975-2.26c-0.791-1.493-1.583-2.985-2.375-4.478
			C111.963,15.159,111.963,15.159,115.772,19.968z M113.619,36.61c-0.221-3.066,3.33-1.046,3.416-3.455
			c1.562,1.197,2.793,2.662,4.344,3.196c1.732,0.594,2.578,1.91,3.77,3.111c-0.538,0.27-1.127,0.567-2.239,1.129
			c1.153,0.641,2.041,1.134,3.505,1.948c-0.152-2.317-0.264-4.009-0.431-6.544c1.095,1.472,1.706,2.421,2.448,3.26
			c0.729,0.823,1.587,1.529,2.803,2.682c0.402-1.411,0.619-2.161,0.787-2.755c1.381,1.232,2.818,2.518,4.314,3.856
			c0.826-0.757,1.3-1.189,1.807-1.653c0.834,1.847,1.66,3.678,2.575,5.698c-3.438,1.889-5.831-0.406-8.798-0.72
			c-0.012,1.124-0.022,2.108-0.034,3.164c-0.257,0.011-0.563,0.121-0.753,0.017c-1.624-0.906-2.713-2.822-5.133-2.271
			c-0.555,0.125-1.617-1.098-2.14-1.899c-0.808-1.244-1.351-2.656-1.825-3.625c-2.003-1.389-2.559,1.77-4.408,0.616
			c-1.859-1.16-2.423,1.359-3.742,1.958c-1.548,0.703-2.878,0.604-4.684,0.957c0.574-2.713,2.65-2.987,4.03-4.087
			C110.797,39.344,113.717,37.981,113.619,36.61z"/>
		<path fill="#5A8148" d="M5.63,74.682c0.028,0.183,0.46,0.305,0.848,0.543c0.019-1.494,0.039-2.879,0.058-4.264
			c0.215-0.015,0.431-0.027,0.646-0.043c0.921,2.932,1.842,5.864,2.868,9.136c0.946,0.713,2.206,1.738,3.55,2.639
			c0.691,0.463,1.503,0.904,2.305,1.006c3.612,0.452,7.905,1.762,9.597,4.339c1.559,2.374,3.619,2.759,5.146,3.301
			c1.505-0.642,2.419-1.032,3.331-1.423c-0.169-0.287-0.324-0.813-0.509-0.826c-5.058-0.282-5.056-0.273-5.782-5.014
			c-0.079-0.519-0.192-1.031-0.376-2.012c-1.333-0.279-2.795-0.588-4.593-0.968c0.113-1.861,0.232-3.821,0.359-5.927
			c-3.673-0.091-2.018,4.399-4.632,4.927c-2.53-1.597-2.53-1.597-3.724-10.434c1.019-4.59,6.385-3.052,7.61-6.662
			c1.425,0.497,2.528,0.882,3.688,1.287c0.079,2.151,0.535,4.161,2.836,5.478c-0.443-3.126-0.864-6.11-1.26-8.906
			c0.375-0.5,0.557-0.824,0.815-1.069c2.199-2.092,5.367-3.575,4.656-7.479c1.527-1.728,1.982-4.28,4.207-5.468
			c0.441-0.235,1.296-0.438,1.293-0.651c-0.016-2.904,2.565-3.277,4.244-4.748c1.891,2.786,2.934-0.528,4.473-0.431
			c0.062,0.005,0.158-0.49,0.18-0.564c-1.141-0.521-2.217-1.012-3.181-1.453c0.354-0.938,0.641-1.7,0.947-2.515
			c-1.012-0.322-1.748-0.554-2.486-0.788c1.404-0.536,2.824-0.2,4.083-0.512c1.239-0.307,2.319-1.263,3.458-1.951
			c1.276-0.77,2.542-1.557,3.995-2.448c-1.62-3.303-5.927-4.396-6.034-8.367c-1.219,1.072-2.184,1.919-4.137,3.636
			c1.002-5.241-2.501-4.703-4.617-5.411c-0.527,0.624-1.12,0.926-1.989,1.366c0.347,0.359,0.633,0.651,1.289,1.324
			c-0.719,0.516-1.542,1.104-2.37,1.698c2.278,1.681,0.982,3.901,0.538,4.065c-3.079,1.131-2.337,4.258-3.65,6.242
			c-0.431-0.326-0.864-0.65-1.531-1.15c-0.651-0.638,0.683-0.876,0.651-1.438c-0.041-0.715-0.187-1.423-0.298-2.213
			c-1.426-0.416-2.865-0.836-4.611-1.349c-0.638-5.206,4.722-6.061,6.883-9.194c1.58,1.562,3.342,0.287,5.088,0.649
			c-0.192-1.218-0.319-2.109-0.469-3.161c2.417-0.02,2.77-4.701,6.583-2.582c-1.104,1.73-2.882,2.332-4.179,3.406
			c1.472,0.728,2.954,1.46,4.455,2.203c0.971-0.622,1.953-1.248,2.94-1.881c0.043-0.976,0.088-1.965,0.134-3.018
			c1.086,0.374,2.179,0.051,4.233-1.241c-1.06-0.554-1.976-1.031-2.832-1.479c0.382-0.646,0.615-1.042,0.841-1.423
			c-0.835-0.628-1.554-1.171-2.152-1.619c0.201-0.852,0.756-1.833,0.474-2.388c-0.068-0.135-0.171-0.264-0.291-0.385
			C25.167,16.343,7.879,37.508,3.789,62.24C4.597,66.346,5.008,70.535,5.63,74.682z"/>
		<path fill="#5A8148" d="M68.398,142.859c-1.604,0.082,1.296-1.98-0.875-2.498c-1.166-0.278,1.585-2.455-0.629-3.2
			c0.102-0.144,0.204-0.288,0.311-0.437c0.937-0.291,1.879-0.584,2.996-0.928c-0.568-1.459-1.021-2.616-1.482-3.8
			c0.827-0.115,1.534-0.216,2.144-0.302c0.665-1.268,1.321-2.447,1.905-3.66c0.438-0.904,1.297-2.002,1.083-2.763
			c-0.951-3.388,1.657-4.571,3.678-5.309c1.998-0.728,2.797-1.658,3.067-3.56c0.281-1.98,0.892-3.924,1.038-5.907
			c0.138-1.839,0.183-3.502,1.919-4.718c0.55-0.386,0.692-1.43,0.914-2.203c0.986-3.455,0.33-4.306-3.473-5.076
			c-0.621-0.128-1.085-1.035-1.973-1.941c-1.562,0.396-3.464,0.881-5.418,1.377c-0.598-1.791-2.528-1.79-4.297-2.117
			c-0.339,0.419-0.672,0.832-0.896,1.107c-2.06-2.607-4.149-5.254-5.772-7.309c-2.552-0.146-4.295-0.504-5.963-0.279
			c-2.013,0.27-2.003-2.288-4.023-2.322c-1.182-0.02-3.124-0.794-3.626-2.467c-1.444,0.591-2.679,1.482-3.927,1.502
			c-1.323,0.019-2.657-0.792-3.929-1.222c-0.307,0.343-0.53,0.591-0.827,0.922c-0.329-0.631-0.637-1.22-0.943-1.81
			c-0.132-0.024-0.337-0.116-0.387-0.062c-3.921,4.175-3.915,4.175-3.363,10.255c0.028,0.305-0.21,0.627-0.292,0.949
			c-0.581,2.255-1.152,4.512-1.703,6.671c0.608,1.564,1.219,3.142,1.773,4.575c1.664,1.811,3.216,3.649,4.924,5.33
			c1.924,1.891,2.531,5.586,6.44,4.846c1.711,1.393,4.061,1.924,4.793,4.584c0.657,2.389,2.385,4.491,2.96,6.885
			c0.522,2.161,2.297,3.444,2.899,5.246c0.719,2.152,1.818,3.955,2.793,5.902c0.779,1.559,2.644,0.927,3.114,2.771
			c0.146,0.574,0.519,1.096,0.991,1.595c1.86,0.27,3.738,0.472,5.635,0.601C69.82,143.417,69.715,142.791,68.398,142.859z"/>
		<path fill="#5A8148" d="M58.424,6.003c-0.303,1.206-0.507,2.011-0.692,2.745c0.784,0.148,1.351,0.257,2.358,0.447
			c-1.049,0.578-1.629,0.897-2.211,1.217c1.717,1.379-0.987,3.636,1.145,5.189c0.877,0.64,0.879,2.482,1.216,3.573
			c1.672,0.292,3.15,0.552,4.883,0.857c0.381-0.837,0.782-1.743,1.203-2.642c0.962-2.044,0.907-5,4.323-4.869
			c0.947-2,2.6-2.664,4.722-2.847c0.621-0.053,1.149-1.19,1.854-1.983c-1.154-1.72-1.918-3.915-3.459-4.906
			c-0.341-0.22-0.693-0.428-1.053-0.621c-2.356,0.109-4.73,0.325-7.113,0.663c-3.665,0.518-7.224,1.297-10.668,2.31
			c0.035,0.245,0.07,0.488,0.103,0.724C56.206,5.909,57.201,5.951,58.424,6.003z"/>
		<path fill="#5A8148" d="M103.299,27.655c0.696-1.646,2.272-1.319,3.584-1.592c0.197-2.04-1.482-2.943-2.784-3.39
			c-1.864-0.64-3.216-1.447-4.177-3.204c-0.465-0.852-1.539-1.372-2.337-2.04c-0.562,0.745-0.986,1.312-1.388,1.842
			c0.814,0.837,1.621,1.668,2.43,2.499c0.408,0.306,0.814,0.611,1.223,0.919C101.935,23.695,101.494,26.452,103.299,27.655z"/>
		<path fill="#5A8148" d="M78.473,11.988c1.168,1.206,1.182,1.135,2.477,1.38c0.951,0.18,1.861,0.571,2.838,0.883
			c0.622-1.015,1.134-1.849,1.646-2.684c-0.206-0.339-0.415-0.677-0.622-1.015C82.775,11.116,80.559,10.783,78.473,11.988z"/>
		<path fill="#5A8148" d="M24.478,73.216c0.955,0.616,1.913,1.408,2.042,1.29c0.988-0.901,1.667-0.996,2.869-0.117
			c1.155,0.844,2.739,1.1,4.455,1.735c0.04-0.968,0.066-1.587,0.09-2.153c-1.379-0.27-2.769-0.156-3.601-0.782
			C28.482,71.792,26.849,72.119,24.478,73.216z"/>
		<path fill="#5A8148" d="M40.762,75.786c-1.416-0.088-2.776-1.459-4.795,0.45c0.92,0.848,1.634,1.504,2.368,2.18
			c1.52-2.639,4.809-0.85,7.576-3.301C43.463,75.461,42.098,75.869,40.762,75.786z"/>
		<path fill="#5A8148" d="M96.789,24.73c0.264,0.401,0.322,0.939,0.539,1.638c1.07-0.24,2.023-0.453,2.947-0.66
			c-0.174-1.242-0.301-2.13-0.426-3.019c-0.408-0.308-0.814-0.614-1.223-0.919c-1.035,0.509-2.068,1.016-3.356,1.65
			C96.062,24.081,96.529,24.338,96.789,24.73z"/>
		<path fill="#5A8148" d="M52.763,33.931c-0.724,0.891-1.509,1.859-2.371,2.92c1.896,0.165,3.655,0.315,5.424,0.47
			c0.025-0.321,0.103-0.662,0.065-0.992c-0.059-0.517-0.195-1.022-0.289-1.482C54.6,34.524,53.65,34.218,52.763,33.931z"/>
	</g>
</g>
</svg>
