<?xml version="1.0" encoding="utf-8"?>
<!-- Generator: Adobe Illustrator 16.0.4, SVG Export Plug-In . SVG Version: 6.00 Build 0)  -->
<!DOCTYPE svg PUBLIC "-//W3C//DTD SVG 1.1//EN" "http://www.w3.org/Graphics/SVG/1.1/DTD/svg11.dtd">
<svg version="1.1" id="Layer_1" xmlns="http://www.w3.org/2000/svg" xmlns:xlink="http://www.w3.org/1999/xlink" x="0px" y="0px"
	 width="426px" height="361px" viewBox="0 -49.625 426 361" enable-background="new 0 -49.625 426 361" xml:space="preserve">
<path fill="#9BCBEF" d="M140.154,227.414c34.384-12.1,68.667-13.659,85.641-16.242c16.971-2.585,100.353-7.752,121.015,6.461
	c20.66,14.215,64.933,32.309,65.674,46.523c0.735,14.211-106.258,31.012-120.276,33.598c-14.021,2.585-118.146,12.922-142.825,5.17
	c-24.679-7.756-43.865-9.045-77.069-3.878c-33.205,5.167-68.623-2.585-69.361-24.552c-0.738-21.969,3.689-51.691,23.613-45.23
	c19.923,6.461,34.679,15.508,59.03,11.633C109.944,237.018,140.154,227.414,140.154,227.414z"/>
<path fill="#21271A" d="M229,262.551c-2.586-0.814-4.68-1.064-6.307-2.064c-4.351-2.68-8.424-3.037-12.642,0.189
	c-3.155,2.408-6.414,1.914-9.716,0.079c-1.711-0.946-3.544-1.819-5.431-2.255c-0.834-0.188-1.94,0.805-2.924,1.264
	c0.7,0.647,1.292,1.59,2.118,1.891c3.101,1.119,6.223,2.438,9.447,2.869c2.148,0.289,4.615-0.479,6.708-1.338
	c4.134-1.695,8.014-2.203,12.02,0.326c2.938,1.857,6.039,1.819,9.142,0.125c4.433-2.41,8.676-2.361,13.422-0.148
	c2.461,1.154,6.142,1.053,8.795,0.142c4.8-1.653,9.009-2.208,13.836,0.149c2.181,1.062,5.66,0.727,8.072-0.209
	c4.92-1.91,9.547-2.285,14.248,0.146c2.756,1.423,5.373,1.433,8.146,0.05c4.822-2.404,9.484-2.584,14.512,0.104
	c1.932,1.037,5.159,0.684,7.407-0.125c5.146-1.842,9.918-2.307,15.022,0.209c1.795,0.884,4.728,1.164,6.387,0.289
	c5.779-3.043,11.261-3.148,17.65,0.89c-0.463-1.842-0.445-2.854-0.922-3.491c-2.223-2.982-7.48-4.181-10.939-2.662
	c-1.694,0.744-3.393,1.486-5.121,2.158c-2.693,1.045-5.075,0.739-7.705-0.814c-12.95-7.656-26.795-12.711-42.012-9.76
	c-6.766,1.308-13.203,4.645-19.566,7.551c-2.662,1.225-4.896,2.078-7.645,0.744c-3.096-1.506-6.139-0.842-8.822,0.898
	c-3.264,2.109-4.555,0.881-6.482-2.107c-4.824-7.467-5.582-16.043-7.342-24.289c-2.816-13.205-9.375-23.367-21.129-30.338
	c-8.669-5.143-18.229-3.996-24.757,3.68c-1.443,1.699-0.626,4.039,1.873,4.224c3.402,0.251,6.854-0.26,10.285-0.245
	c1.819,0.006,3.933-0.086,5.402,0.76c10.178,5.846,14.36,15.322,14.899,26.539C229.301,245.734,229,253.533,229,262.551z"/>
<g>
	<g>
		<g>
			<path fill="#6E472A" d="M67.968,227.188c-0.062,0.004-0.097,0.008-0.097,0.008S67.906,227.193,67.968,227.188z"/>
			<path fill="#6E472A" d="M95.442,190.415c0,0,8.07-3.104,10.398-5.742c2.328-2.64,11.435-19.806,11.435-19.806l-0.312-0.772
				c0,0-8.026,12.988-11.19,17.61l-2.466-10.306l-0.932,0.754l2.124,11.202c-1.344,1.006-7.889,3.803-10.609,3.803
				c-2.794,0-7.295-5.023-7.139-14.542H86.13c0,0-2.441,10.349,3.104,15.782c0,0-8.916-1.094-11.556-2.803
				c-2.638-1.707-7.846-9.304-7.846-9.304l-0.465,0.775c0,0,4.346,8.226,6.674,9.623s9.001,4.5,9.001,4.5s1.53,8.812-0.516,19.658
				c-1.553,8.225-12.146,11.416-12.728,11.484c0.969-0.094,25.92-2.794,36.318,0.775c0,0-8.691-6.521-10.244-11.639
				C96.323,206.348,94.355,195.691,95.442,190.415z"/>
		</g>
		<path fill="#7F563E" d="M86.002,190.982c0,0,2.871,0.156,4.733-0.387c0,0,0.775,19.864,0.465,22.734
			c-0.31,2.872-3.725,6.752-3.725,6.752s-6.285,0.154-8.768,0.773c0,0,5.664-2.561,6.673-8.769
			C86.389,205.881,86.468,193.699,86.002,190.982z"/>
	</g>
	<g>
		<g>
			<path fill="#82B727" d="M56.941,161.999c0,0-9.188-4.968-6.913-19.659c2.276-14.692,20.385-15.312,20.385-15.312
				s-1.761-14.071,12.104-18.003c13.863-3.933,28.281,6.549,25.559,20.279c0,0,12.93,3.312,13.137,13.865
				s-14.07,15.677-14.07,15.677L56.941,161.999z"/>
			<path fill="#91C029" d="M55.512,138.095c0,0,3.001-7.347,17.071-9.624c0,0,0.277-11.112,8.037-15.415
				c6.811-3.777,14.104-0.828,15.035,0.931c0.932,1.759-8.604-0.111-11.949,1.966c-7.088,4.397-3.37,12.054-7.656,15.468
				c-4.288,3.415-9.003,2.069-15.055,5.64C56.77,139.551,54.27,141.301,55.512,138.095z"/>
		</g>
		<g>
			<path fill="#96C23B" d="M115.512,143.31c5.692-2.482,19.66,0.209,16.246,15.935c0,0-3.235,11.538-15.936,6.726
				c0,0-5.793,6.828-14.794,3.414c0,0-11.795,6.828-19.555-4.656c-7.76-11.483-1.317-28.327,13.309-29.528
				C109.41,134,115.512,143.31,115.512,143.31z"/>
			<path fill="#A9CA4B" d="M129.171,151.072c-0.518-1.553-4.035-7.244-14.071-5.795c0,0-4.656-5.38-11.588-7.449
				c-6.933-2.07-13.243,0-13.761,2.275c-0.518,2.277,7.492,0.551,10.76,1.449c9,2.476,9.829,7.14,13.347,7.553
				c3.519,0.414,7.45,0.518,10.45,1.967C127.31,152.52,129.896,153.245,129.171,151.072z"/>
		</g>
		<g>
			<path fill="#A9CB56" d="M67.87,154.545c-5.691-2.483-19.659,0.207-16.245,15.934c0,0,3.234,11.541,15.936,6.726
				c0,0,5.793,6.83,14.795,3.416c0,0,11.795,6.828,19.555-4.656c7.76-11.485,1.316-28.327-13.311-29.528
				C73.974,145.233,67.87,154.545,67.87,154.545z"/>
			<path fill="#B6D05E" d="M54.21,162.305c0.518-1.552,4.037-7.242,14.072-5.793c0,0,4.656-5.382,11.588-7.451
				c6.933-2.068,13.244,0,13.762,2.276c0.518,2.276-7.529,0.428-10.761,1.449c-8.999,2.845-9.829,7.14-13.347,7.553
				c-3.519,0.414-7.45,0.519-10.45,1.966C56.074,163.754,53.488,164.479,54.21,162.305z"/>
		</g>
	</g>
</g>
<g>
	<g>
		<path fill="#6E472A" d="M352.289,215.789c0,0,7.002-1.051,7.528-6.65c0.523-5.604,1.226-24.334-1.401-26.959
			c-2.625-2.627-9.103-6.301-9.452-7.18c-0.351-0.873-3.677-10.15-3.677-10.15h1.399c0,0,4.873,8.75,6.113,9.627
			c1.236,0.875,7.541,4.203,8.766,3.854c1.226-0.353-3.149-8.752-3.149-8.752v-9.805h1.228c0,0,0,9.104,0.875,9.979
			s4.377,8.187,6.127,7.244c1.75-0.943,13.479-14.598,13.479-14.598l1.4,1.227c0,0-10.854,12.562-10.504,13.371
			c0.352,0.81,13.832,1.155,13.832,1.155l10.502-7.876l0.698,1.227c0,0-9.629,8.752-10.854,9.104
			c-1.225,0.35-12.951,1.051-13.299,1.926c-0.354,0.875-0.082,24.303,0.26,26.32c0.64,3.783,7.441,6.938,7.441,6.938
			S367.343,213.863,352.289,215.789z"/>
		<path fill="#7F563E" d="M360.136,182.107c0,0,1.784,3.203,1.784,10.791c0,7.59,0.146,19.492-2.789,20.981
			c0,0,5.581-0.896,7.81-0.782l-1.895-33.591C365.046,179.51,361.853,182.037,360.136,182.107z"/>
	</g>
	<g>
		<g>
			<path fill="#96C23B" d="M322.274,165.377c0,0,3.23,8.926,13.034,6.824c9.671-2.07,11.666-7.82,11.666-7.82
				s4.89,5.076,13.725,2.82c8.837-2.256,11.094-8.459,11.094-8.459s-0.634,7.541,6.922,11.01c7.556,3.467,12.631,1.398,12.631,1.398
				s-0.938,6.536,9.024,8.721c9.966,2.184,17.898-8.348,16.208-17.559c-1.692-9.21-9.062-12.783-9.062-12.783
				s7.443-6.288,3.118-15.927c-4.324-9.642-13.835-8.327-13.835-8.327s3.979-8.74-2.633-15.792
				c-6.877-7.33-14.853-4.815-17.299-4.254c0,0-3.694-11.174-17.404-8.343c-12.075,2.493-13.426,13.426-11.17,18.502
				c0,0-13.205-0.938-17.109,9.134c-4.977,12.843,4.701,19.929,4.701,19.929S316.055,147.17,322.274,165.377z"/>
			<path fill="#A9CA4B" d="M352.88,105.524c0.656-2.042,5.805-5.243,11.271-5.243c5.469,0,10.268,6.582,10.714,8.032
				c0,0,6.138-1.673,11.494,0c5.354,1.676,9.149,10.714,8.479,15.065c-0.67,4.353-5.69,3.907-5.467,0
				c0.222-3.906-1.898-9.373-6.026-10.937c-4.128-1.561-8.814,1.006-11.048-2.453c-2.231-3.46-6.583-5.804-10.267-5.021
				C358.349,105.748,351.875,108.648,352.88,105.524z"/>
		</g>
		<g>
			<path fill="#A9CB56" d="M389.549,171.668c0,0-2.282,6.303-9.206,4.82c-6.829-1.465-8.238-5.523-8.238-5.523
				s-3.452,3.584-9.692,1.992c-6.239-1.594-7.831-5.975-7.831-5.975s0.445,5.326-4.89,7.773c-5.337,2.447-8.921,0.988-8.921,0.988
				s0.663,4.614-6.373,6.157s-12.643-5.895-11.444-12.397c1.192-6.506,6.397-9.027,6.397-9.027s-5.256-4.439-2.203-11.248
				c3.057-6.811,9.773-5.88,9.773-5.88s-2.813-6.173,1.856-11.153c4.854-5.176,10.485-3.401,12.215-3.003
				c0,0,2.608-7.893,12.294-5.893c8.525,1.762,9.48,9.481,7.889,13.068c0,0,9.325-0.664,12.082,6.451
				c3.516,9.071-3.32,14.072-3.32,14.072S393.943,158.809,389.549,171.668z"/>
			<path fill="#B6D05E" d="M367.934,129.4c-0.464-1.441-4.098-3.704-7.96-3.704c-3.86,0-7.25,4.65-7.563,5.674
				c0,0-4.336-1.181-8.118,0c-3.782,1.182-6.463,7.565-5.988,10.64c0.474,3.072,4.021,2.757,3.861,0
				c-0.157-2.759,1.342-6.62,4.256-7.724c2.917-1.103,6.227,0.709,7.803-1.734c1.576-2.442,4.648-4.097,7.25-3.545
				C364.071,129.558,368.644,131.606,367.934,129.4z"/>
		</g>
	</g>
</g>
<g>
	<g>
		<polygon fill="#FDC30B" points="419.408,16.384 366.692,17.38 411.848,44.595 365.708,19.061 391.244,65.198 364.033,20.042 
			363.035,72.757 362.037,20.042 334.823,65.197 360.359,19.059 314.222,44.594 359.379,17.383 306.662,16.384 359.379,15.388 
			314.223,-11.828 360.361,13.709 334.826,-32.429 362.039,12.728 363.035,-39.989 364.031,12.728 391.245,-32.428 365.71,13.709 
			411.851,-11.822 366.691,15.387 		"/>
		<polygon fill="none" stroke="#FDC30B" stroke-width="5.4551" stroke-miterlimit="10" points="419.408,16.384 366.692,17.38 
			411.848,44.595 365.708,19.061 391.244,65.198 364.033,20.042 363.035,72.757 362.037,20.042 334.823,65.197 360.359,19.059 
			314.222,44.594 359.379,17.383 306.662,16.384 359.379,15.388 314.223,-11.828 360.361,13.709 334.826,-32.429 362.039,12.728 
			363.035,-39.989 364.031,12.728 391.245,-32.428 365.71,13.709 411.851,-11.822 366.691,15.387 		"/>
	</g>
	<circle fill="#FDC30B" cx="363.035" cy="16.385" r="30.078"/>
</g>
<polyline fill="none" points="-356.449,-85.672 -355.913,-85.672 -355.376,-85.672 "/>
<g>
	<path fill="#13253B" d="M229.814,65.911c1.136,5.077,0.31,9.811-2.475,14.201c-1.104,1.738-3.025,4.035-5.764,6.887
		c-2.739,2.851-4.264,4.524-4.58,5.021c-0.947,1.491-0.936,4.404,0.033,8.735l0.205,0.914l-9.85,2.203
		c-0.892-2.716-1.437-4.512-1.634-5.394c-0.908-4.061-0.625-7.252,0.847-9.571c0.838-1.324,2.452-3.25,4.839-5.772
		c2.384-2.522,4.077-4.572,5.076-6.146c1.681-2.651,2.204-5.398,1.568-8.24c-0.621-2.776-2.106-4.808-4.454-6.096
		c-2.351-1.287-5.25-1.543-8.703-0.771c-4.808,1.075-9.296,3.89-13.464,8.448l-6.408-6.244c0.979-1.355,2.821-3.119,5.534-5.29
		c4.428-3.405,9.079-5.654,13.952-6.745c6.227-1.393,11.684-0.835,16.366,1.672C225.589,56.23,228.559,60.292,229.814,65.911z
		 M222.25,114.088c0.439,1.965,0.119,3.794-0.957,5.49c-1.079,1.698-2.6,2.768-4.562,3.206c-1.963,0.44-3.792,0.119-5.489-0.958
		c-1.699-1.076-2.766-2.595-3.206-4.56c-0.439-1.963-0.121-3.794,0.957-5.493c1.078-1.696,2.597-2.766,4.561-3.205
		c1.963-0.438,3.793-0.118,5.492,0.958C220.741,110.604,221.812,112.125,222.25,114.088z"/>
</g>
<g>
	<g>
		<path fill="none" stroke="#13253B" stroke-width="3" stroke-miterlimit="10" d="M242,108.189c0,0,48,22.607,38,51.584
			c-6.156,17.838-9.659,41.278-11.443,56.661"/>
		<g>
			<polygon fill="#13253B" points="257.859,212.018 267,232.506 280.178,214.35 			"/>
		</g>
	</g>
</g>
<g>
	<g>
		<path fill="none" stroke="#13253B" stroke-width="3" stroke-miterlimit="10" d="M185.054,96.427c0,0-28.054,17.412-37.054,41.867
			s-8.804,61.269-30.725,52.302c-8.89-3.638-14.846-9.027-18.786-14.151"/>
		<g>
			<polygon fill="#13253B" points="110.362,173.786 91.273,161.999 90.605,184.424 			"/>
		</g>
	</g>
</g>
<path fill="#122339" d="M74.815,0.372c-1.83,1.861-6.484,8.099-6.582,8.452c0,0-9.724-2.206-16.583-2.546
	c-6.859-0.341-17.968-0.98-19.037-0.384c-1.069,0.598,4.13,0.939,4.13,0.939s-0.113,0.482,1.293,0.842
	c1.406,0.359,3.57,0.201,3.57,0.201s-0.305,0.445,0.913,0.743c1.217,0.297,4.792,0.25,4.792,0.25s-0.319,0.248,1.254,0.628
	c1.573,0.381,4.358-0.04,4.438-0.056c0.081-0.016,0.479,0.139,0.828,0.483c0.349,0.345,0.168,0.531,0.181,1.056
	c0.012,0.525,0.612,0.953,0.631,1.217c0.019,0.264-0.142,0.505-0.249,1.146s0.234,0.422,0.556,0.984
	c0.322,0.563-0.165,0.478,0.333,1.506c0.498,1.03,0.945,1.008,0.971,1.43c0.025,0.422,1.093,1.184,1.23,1.646
	c0.138,0.461,0.718,2.601,0.139,3.468c-0.58,0.868-1.732,1.299-4.461,1.792c-2.729,0.493-2.503,0.365-4.756,0.813
	c-2.252,0.449-8.312-0.235-9.955-0.05c-1.644,0.185-1.5,0.49-4.354,1.36c-2.854,0.869-5.425-0.108-5.997-0.127
	c-0.573-0.02-2.144,1.037-1.774,1.424c0.37,0.386,2.307,0.369,4.366,0.419c2.059,0.05,2.906,0.183,5.779,0.414
	c2.873,0.23,4.928,0.935,7.829,2.397c2.901,1.463,5.784,0.99,6.485,1.235c0.701,0.245,2.387,0.562,6.992,3.442
	c4.605,2.881,23.784,6.289,30.856,6.187c7.072-0.104,12.846-1.311,14.699-0.66c1.852,0.652,5.119,3.678,5.313,3.898
	c0.194,0.22,0.143,0.735,0.12,0.812c-0.023,0.075,0.02,0.042,0.164-0.059c0.143-0.1,0.884-1.417,0.356-2.727
	c-0.528-1.309-2.801-3.712-2.801-3.712s-0.32-2.027-0.736-4.119c-0.417-2.092-1.214-2.4-2.461-3.708s-0.868-0.999-3.459-3.678
	c-2.59-2.679-5.135-2.817-5.357-2.923c-0.222-0.106-0.978-0.751-1.19-4.255C93.069,17.05,95.394,9.996,99.22,6.609
	c3.825-3.388,7.896-4.994,8.734-6.248c0.837-1.254,0.879-4.909,0.438-8.468c-0.441-3.559-1.406-3.785-1.406-3.785
	s-0.21-1.647-2.184-4.667c-1.973-3.02-9.024-10.13-10.421-10.672c-1.396-0.542-1.064,0.873-1.064,0.873s-1.098-0.309-1.468,0.038
	c-0.371,0.345-0.236,1.563-0.236,1.563s-0.113,0.064-0.688,0.489c-0.577,0.424-0.42,1.882-0.437,2.01
	c-0.017,0.128-0.215,0.051-0.757,0.611c-0.542,0.559-0.477,2.123-0.477,2.123s-0.237,0.022-0.751,0.572
	c-0.514,0.55-0.612,2.054-0.612,2.054s-0.05,0.085-0.328,0.324c-0.279,0.24-0.596,1.206-0.791,1.404s-0.784,0.202-1.047,0.522
	c-0.262,0.32-0.611,1.949-0.611,1.949s-0.249,0.204-0.549,0.415c-0.301,0.21,0.019,1.61-0.029,1.683
	c-0.049,0.073-0.595-0.049-0.821,0.393c-0.225,0.442,0.382,1.84,0.382,1.84s-1.292,0.098-1.657,0.706
	c-0.364,0.606,1.048,0.812,0.929,0.928s-1.176,1.237-1.176,1.237s-1.577,0.272-2.253,0.867c-0.676,0.594,0.071,0.479,0.071,0.479
	s-1.645,0.604-2.244,1.208s0.16,0.804,0.16,0.804S76.644-1.49,74.815,0.372z"/>
<g>
	<g>
		<path fill="none" stroke="#13253B" stroke-width="3" stroke-miterlimit="10" d="M213,38.75c0,0,30-29,12-42s-34.25-8-50,0
			c-10.736,5.454-33.686,17.015-46.529,22.371"/>
		<g>
			<polygon fill="#13253B" points="128.148,7.202 113,23.75 134.905,28.599 			"/>
		</g>
	</g>
</g>
<g>
	<g>
		<path fill="none" stroke="#13253B" stroke-width="3" stroke-miterlimit="10" d="M240.25,79c0,0,29.25,8,40-2.5S302,65,311.5,63.25
			c6.701-1.234,11.66-4.404,15.405-7.763"/>
		<g>
			<polygon fill="#13253B" points="332.292,65.63 338.248,44 316.537,49.652 			"/>
		</g>
	</g>
</g>
</svg>
