<?xml version="1.0" encoding="utf-8"?>
<!-- Generator: Adobe Illustrator 16.0.4, SVG Export Plug-In . SVG Version: 6.00 Build 0)  -->
<!DOCTYPE svg PUBLIC "-//W3C//DTD SVG 1.1//EN" "http://www.w3.org/Graphics/SVG/1.1/DTD/svg11.dtd">
<svg version="1.1" id="Layer_1" xmlns="http://www.w3.org/2000/svg" xmlns:xlink="http://www.w3.org/1999/xlink" x="0px" y="0px"
	 width="287.334px" height="184.667px" viewBox="0 0 287.334 184.667" enable-background="new 0 0 287.334 184.667"
	 xml:space="preserve">
<path fill="#0072C6" d="M281.695,79.677C253.95,32.597,202.209,1.131,143.256,1.131C84.28,1.131,32.549,32.619,4.818,79.677
	c-4.36,7.398-4.36,16.582,0,23.981c27.744,47.079,79.487,78.545,138.438,78.545c58.977,0,110.708-31.487,138.439-78.545
	C286.056,96.259,286.056,87.075,281.695,79.677L281.695,79.677z M143.256,158.585c-36.982,0-66.918-29.929-66.918-66.918
	c0-36.983,29.93-66.918,66.918-66.918c36.984,0,66.918,29.929,66.918,66.918C210.175,128.65,180.246,158.585,143.256,158.585z
	 M194.43,91.667c0,28.262-22.911,51.172-51.173,51.172c-28.261,0-51.172-22.91-51.172-51.172c0-8.713,2.18-16.916,6.021-24.097
	v0.016c0,11.637,9.434,21.07,21.07,21.07c11.639,0,21.072-9.433,21.072-21.07s-9.433-21.071-21.072-21.071h-0.015
	c7.181-3.84,15.384-6.02,24.096-6.02C171.519,40.495,194.43,63.405,194.43,91.667z"/>
</svg>
