<?xml version="1.0" encoding="utf-8"?>
<!-- Generator: Adobe Illustrator 16.0.4, SVG Export Plug-In . SVG Version: 6.00 Build 0)  -->
<!DOCTYPE svg PUBLIC "-//W3C//DTD SVG 1.1//EN" "http://www.w3.org/Graphics/SVG/1.1/DTD/svg11.dtd">
<svg version="1.1" id="Layer_1" xmlns="http://www.w3.org/2000/svg" xmlns:xlink="http://www.w3.org/1999/xlink" x="0px" y="0px"
	 width="287.334px" height="287.334px" viewBox="0 0 287.334 287.334" enable-background="new 0 0 287.334 287.334"
	 xml:space="preserve">
<path fill="#00243D" d="M161.296,77.195V2.272H51.116c-7.327,0-13.222,5.895-13.222,13.222V271.11
	c0,7.328,5.895,13.224,13.222,13.224h185.103c7.327,0,13.222-5.896,13.222-13.224V90.417h-74.922
	C167.247,90.417,161.296,84.467,161.296,77.195z M196.554,207.207c0,3.638-2.975,6.61-6.611,6.61h-92.55
	c-3.636,0-6.61-2.975-6.61-6.61v-4.405c0-3.636,2.975-6.611,6.61-6.611h92.55c3.638,0,6.611,2.977,6.611,6.611V207.207z
	 M196.554,171.951c0,3.635-2.975,6.608-6.611,6.608h-92.55c-3.636,0-6.61-2.975-6.61-6.608v-4.408c0-3.636,2.975-6.61,6.61-6.61
	h92.55c3.638,0,6.611,2.977,6.611,6.61V171.951z M196.554,132.284v4.409c0,3.635-2.975,6.609-6.611,6.609h-92.55
	c-3.636,0-6.61-2.974-6.61-6.609v-4.409c0-3.635,2.975-6.61,6.61-6.61h92.55C193.579,125.674,196.554,128.649,196.554,132.284z
	 M249.44,69.427v3.361h-70.517V2.272h3.36c3.525,0,6.887,1.377,9.365,3.856l53.935,53.989
	C248.063,62.596,249.44,65.957,249.44,69.427z"/>
</svg>
