<?xml version="1.0" encoding="utf-8"?>
<!-- Generator: Adobe Illustrator 16.0.4, SVG Export Plug-In . SVG Version: 6.00 Build 0)  -->
<!DOCTYPE svg PUBLIC "-//W3C//DTD SVG 1.1//EN" "http://www.w3.org/Graphics/SVG/1.1/DTD/svg11.dtd">
<svg version="1.1" id="Layer_1" xmlns="http://www.w3.org/2000/svg" xmlns:xlink="http://www.w3.org/1999/xlink" x="0px" y="0px"
	 width="80.667px" height="98.333px" viewBox="0 0 80.667 98.333" enable-background="new 0 0 80.667 98.333" xml:space="preserve">
<g>
	<path fill-rule="evenodd" clip-rule="evenodd" fill="#13253B" d="M59.531,95.994c-1.5-0.435-3.021-2.22-3.341-3.925
		c-0.209-1.11,0.046-1.881,1.637-4.958c6.428-12.435,9.222-23.878,9.222-37.769c0-13.423-2.474-23.868-8.618-36.386
		c-1.319-2.687-2.398-5.183-2.398-5.543c0-1.332,1.114-3.263,2.321-4.021c1.655-1.039,4.429-0.845,5.756,0.402
		c0.511,0.479,1.837,2.656,2.946,4.835c4.396,8.634,7.409,18.105,8.896,27.964c0.921,6.102,1.104,17.665,0.368,23.25
		c-1.356,10.304-4.076,19.497-8.431,28.504c-2.632,5.444-4.284,7.685-5.667,7.685c-0.276,0-0.729,0.068-1.002,0.153
		C60.943,96.269,60.185,96.183,59.531,95.994L59.531,95.994L59.531,95.994z M41.639,86.633c-2.302-0.67-3.961-3.493-3.296-5.608
		c0.161-0.513,1.245-2.872,2.407-5.244c4.924-10.04,6.973-20.805,5.969-31.373c-0.825-8.683-2.381-14.16-6.302-22.173
		c-2.63-5.376-2.752-6.209-1.223-8.374c1.454-2.058,5.083-2.392,6.99-0.643c1.321,1.212,5.431,9.795,7.018,14.656
		c5.25,16.086,4.448,33.354-2.279,49.156C47.476,85.125,45.057,87.628,41.639,86.633L41.639,86.633z M23.188,77.141
		c-1.422-0.642-2.646-2.146-2.979-3.661c-0.204-0.923,0.146-1.944,1.833-5.361c6.197-12.551,6.264-24.641,0.204-36.9
		c-2.661-5.384-2.72-6.456-0.469-8.579c1.11-1.048,1.583-1.233,3.143-1.233c2.616,0,3.974,1.314,6.312,6.118
		c3.597,7.387,5.069,13.796,5.057,22.007c-0.013,8.44-1.389,14.234-5.231,22.024c-2.2,4.46-3.288,5.638-5.491,5.939
		C24.895,77.587,23.824,77.427,23.188,77.141L23.188,77.141L23.188,77.141z M5.97,68.298c-1.126-0.467-2.413-2-2.795-3.332
		c-0.426-1.49-0.078-2.672,1.614-5.453c2.175-3.576,2.681-5.496,2.681-10.17c0-4.674-0.506-6.594-2.681-10.171
		c-0.737-1.213-1.478-2.666-1.646-3.229c-0.701-2.357,1.264-5.247,3.902-5.741c2.237-0.42,3.773,0.578,5.829,3.788
		c5.954,9.294,5.954,21.709-0.003,30.925C10.771,68.166,8.427,69.315,5.97,68.298L5.97,68.298L5.97,68.298z"/>
</g>
</svg>
