<?xml version="1.0" encoding="utf-8"?>
<!-- Generator: Adobe Illustrator 16.0.4, SVG Export Plug-In . SVG Version: 6.00 Build 0)  -->
<!DOCTYPE svg PUBLIC "-//W3C//DTD SVG 1.1//EN" "http://www.w3.org/Graphics/SVG/1.1/DTD/svg11.dtd">
<svg version="1.1" id="Layer_1" xmlns="http://www.w3.org/2000/svg" xmlns:xlink="http://www.w3.org/1999/xlink" x="0px" y="0px"
	 width="287.334px" height="287.334px" viewBox="0 0 287.334 287.334" enable-background="new 0 0 287.334 287.334"
	 xml:space="preserve">
<path fill="#0072C6" d="M9.608,244.836V42.499h21.445v180.893h246.673v21.444H9.608z M42.498,211.946v-77.359l59.822-76.914
	l74.39,74.389l50.531-42.108l34.854,121.992H42.498z"/>
<g>
	<path fill="#FFFFFF" d="M28.553,44.999v180.893h246.673v16.444H12.108V44.999H28.553 M102.555,61.443l74.002,74.001l49.334-41.111
		l32.89,115.113H44.998v-74.002L102.555,61.443 M33.553,39.999h-5H12.108h-5v5v197.337v5h5h263.118h5v-5v-16.444v-5h-5H33.553
		V44.999V39.999L33.553,39.999z M102.085,53.903l-3.477,4.471l-57.557,74.001l-1.053,1.354v1.716v74.003v5h5H258.78h6.629
		l-1.821-6.375L230.699,92.959l-2.109-7.383l-5.899,4.916l-45.826,38.189L106.09,57.908L102.085,53.903L102.085,53.903z"/>
</g>
</svg>
