<?xml version="1.0" encoding="utf-8"?>
<!-- Generator: Adobe Illustrator 16.0.4, SVG Export Plug-In . SVG Version: 6.00 Build 0)  -->
<!DOCTYPE svg PUBLIC "-//W3C//DTD SVG 1.1//EN" "http://www.w3.org/Graphics/SVG/1.1/DTD/svg11.dtd">
<svg version="1.1" id="Layer_1" xmlns="http://www.w3.org/2000/svg" xmlns:xlink="http://www.w3.org/1999/xlink" x="0px" y="0px"
	 width="476px" height="248px" viewBox="0 0 476 248" enable-background="new 0 0 476 248" xml:space="preserve">
<g>
	<g>
		<g enable-background="new    ">
			<g enable-background="new    ">
				<defs>
					<path id="SVGID_1_" enable-background="new    " d="M334.996,105.149c30.392,16.533,60.781,33.065,91.173,49.597l0,0
						c-0.012,5.461-1.79,10.083-5.319,13.862l-91.173-49.597C333.206,115.232,334.984,110.61,334.996,105.149z"/>
				</defs>
				<clipPath id="SVGID_2_">
					<use xlink:href="#SVGID_1_"  overflow="visible"/>
				</clipPath>
				<g clip-path="url(#SVGID_2_)" enable-background="new    ">
					<path fill="#7E96A6" d="M420.85,168.608l-91.173-49.597c0.135-0.145,0.268-0.291,0.398-0.438l91.173,49.598
						C421.117,168.318,420.984,168.464,420.85,168.608"/>
					<path fill="#7B93A2" d="M421.247,168.171l-91.173-49.598c0.506-0.573,0.973-1.165,1.401-1.775l91.173,49.598
						C422.221,167.006,421.753,167.598,421.247,168.171"/>
					<path fill="#788F9E" d="M422.649,166.396l-91.173-49.598c0.436-0.621,0.832-1.262,1.187-1.922l91.173,49.597
						C423.48,165.133,423.085,165.774,422.649,166.396"/>
					<path fill="#758B9A" d="M423.835,164.473l-91.173-49.597c0.42-0.782,0.784-1.59,1.091-2.426l91.173,49.598
						C424.62,162.883,424.256,163.691,423.835,164.473"/>
					<path fill="#728896" d="M424.926,162.047l-91.173-49.598c0.823-2.24,1.237-4.676,1.242-7.307
						c0.006-3.433-0.909-6.268-2.731-8.511c-0.759-0.929-1.634-1.664-2.624-2.202l91.173,49.597
						c0.991,0.539,1.865,1.273,2.624,2.203c1.822,2.242,2.738,5.078,2.731,8.51C426.164,157.37,425.749,159.806,424.926,162.047"/>
				</g>
			</g>
			<g enable-background="new    ">
				<defs>
					<path id="SVGID_3_" enable-background="new    " d="M426.169,154.746c-15.202-8.27-30.403-16.539-45.604-24.808
						c15.201,8.269,30.403,16.533,45.604,24.802C426.169,154.742,426.169,154.744,426.169,154.746z"/>
				</defs>
				<clipPath id="SVGID_4_">
					<use xlink:href="#SVGID_3_"  overflow="visible"/>
				</clipPath>
				<g clip-path="url(#SVGID_4_)" enable-background="new    ">
					<path fill="#728896" d="M424.926,162.047l-91.173-49.598c0.823-2.24,1.237-4.676,1.242-7.307
						c0.006-3.433-0.909-6.268-2.731-8.511c-0.759-0.929-1.634-1.664-2.624-2.202l91.173,49.597
						c0.991,0.539,1.865,1.273,2.624,2.203c1.822,2.242,2.738,5.078,2.731,8.51C426.164,157.37,425.749,159.806,424.926,162.047"/>
				</g>
			</g>
			<g enable-background="new    ">
				<defs>
					<path id="SVGID_5_" enable-background="new    " d="M334.996,105.143c0.006-3.431-0.909-6.266-2.729-8.508
						c30.392,16.533,60.782,33.064,91.173,49.597c1.82,2.242,2.735,5.077,2.729,8.508c-16.197-8.811-32.395-17.62-48.594-26.427
						c-7.839-4.262-15.677-8.526-23.515-12.791c-2.805-1.526-5.611-3.053-8.416-4.579c-2.686-1.461-5.372-2.923-8.058-4.384
						c-0.777-0.423-1.706-1.409-2.591-1.409C334.996,105.146,334.996,105.145,334.996,105.143z"/>
				</defs>
				<clipPath id="SVGID_6_">
					<use xlink:href="#SVGID_5_"  overflow="visible"/>
				</clipPath>
				<g clip-path="url(#SVGID_6_)" enable-background="new    ">
					<path fill="#728896" d="M424.926,162.047l-91.173-49.598c0.823-2.24,1.237-4.676,1.242-7.307
						c0.006-3.433-0.909-6.268-2.731-8.511c-0.759-0.929-1.634-1.664-2.624-2.202l91.173,49.597
						c0.991,0.539,1.865,1.273,2.624,2.203c1.822,2.242,2.738,5.078,2.731,8.51C426.164,157.37,425.749,159.806,424.926,162.047"/>
				</g>
			</g>
			<g enable-background="new    ">
				<defs>
					<path id="SVGID_7_" enable-background="new    " d="M332.265,96.632c-0.759-0.929-1.634-1.664-2.624-2.202l91.173,49.597
						c0.99,0.539,1.865,1.273,2.624,2.203c-30.391-16.532-60.78-33.063-91.171-49.595C332.266,96.634,332.266,96.633,332.265,96.632
						z"/>
				</defs>
				<clipPath id="SVGID_8_">
					<use xlink:href="#SVGID_7_"  overflow="visible"/>
				</clipPath>
				<g clip-path="url(#SVGID_8_)" enable-background="new    ">
					<path fill="#728896" d="M424.926,162.047l-91.173-49.598c0.823-2.24,1.237-4.676,1.242-7.307
						c0.006-3.433-0.909-6.268-2.731-8.511c-0.759-0.929-1.634-1.664-2.624-2.202l91.173,49.597
						c0.991,0.539,1.865,1.273,2.624,2.203c1.822,2.242,2.738,5.078,2.731,8.51C426.164,157.37,425.749,159.806,424.926,162.047"/>
				</g>
			</g>
			<g enable-background="new    ">
				<defs>
					<path id="SVGID_9_" enable-background="new    " d="M329.641,94.43c30.392,16.533,60.781,33.064,91.173,49.597
						c-1.397-0.76-3.025-1.13-4.881-1.107l-91.173-49.597C326.615,93.299,328.243,93.669,329.641,94.43z"/>
				</defs>
				<clipPath id="SVGID_10_">
					<use xlink:href="#SVGID_9_"  overflow="visible"/>
				</clipPath>
				<g clip-path="url(#SVGID_10_)" enable-background="new    ">
					<path fill="#13253B" d="M415.932,142.919l-91.173-49.597c1.035-0.013,1.998,0.097,2.891,0.328l91.173,49.597
						C417.931,143.016,416.967,142.906,415.932,142.919"/>
					<path fill="#13253B" d="M418.823,143.247L327.65,93.649c0.593,0.153,1.154,0.36,1.684,0.621l91.173,49.598
						C419.977,143.607,419.416,143.4,418.823,143.247"/>
					<path fill="#13253B" d="M420.507,143.868l-91.173-49.598c0.104,0.051,0.206,0.104,0.307,0.159l91.173,49.597
						C420.712,143.972,420.61,143.919,420.507,143.868"/>
				</g>
			</g>
			<g enable-background="new    ">
				<defs>
					<path id="SVGID_11_" enable-background="new    " d="M324.759,93.322c2.748-0.844,5.01-2.795,6.793-5.838l91.173,49.597
						c-1.784,3.043-4.045,4.995-6.794,5.839C388.58,128.04,352.111,108.201,324.759,93.322z"/>
				</defs>
				<clipPath id="SVGID_12_">
					<use xlink:href="#SVGID_11_"  overflow="visible"/>
				</clipPath>
				<g clip-path="url(#SVGID_12_)" enable-background="new    ">
					<path fill="#87A0B2" d="M415.932,142.919l-91.173-49.597c0.463-0.142,0.913-0.316,1.349-0.521l91.173,49.597
						C416.845,142.603,416.396,142.777,415.932,142.919"/>
					<path fill="#849DAE" d="M417.281,142.397L326.108,92.8c0.512-0.241,1.006-0.526,1.48-0.854l91.173,49.597
						C418.287,141.872,417.794,142.156,417.281,142.397"/>
					<path fill="#8199AA" d="M418.762,141.543l-91.173-49.597c0.389-0.269,0.765-0.567,1.128-0.895l91.173,49.598
						C419.526,140.977,419.15,141.274,418.762,141.543"/>
					<path fill="#7E96A6" d="M419.89,140.649l-91.173-49.598c0.354-0.318,0.694-0.663,1.024-1.036l91.173,49.597
						C420.584,139.986,420.243,140.331,419.89,140.649"/>
					<path fill="#7B93A2" d="M420.914,139.613l-91.173-49.597c0.357-0.405,0.701-0.842,1.03-1.312l91.173,49.597
						C421.615,138.771,421.271,139.208,420.914,139.613"/>
					<path fill="#788F9E" d="M421.944,138.301l-91.173-49.597c0.27-0.386,0.531-0.792,0.782-1.221l91.173,49.597
						C422.475,137.509,422.214,137.916,421.944,138.301"/>
				</g>
			</g>
			<g enable-background="new    ">
				<defs>
					<path id="SVGID_13_" enable-background="new    " d="M394.139,174.324l-91.173-49.597c3.601,1.473,7.749,1.875,12.434,1.217
						c5.984-0.841,10.737-3.151,14.276-6.933l91.173,49.597c-3.539,3.782-8.292,6.092-14.276,6.933
						C401.888,176.2,397.74,175.798,394.139,174.324z"/>
				</defs>
				<clipPath id="SVGID_14_">
					<use xlink:href="#SVGID_13_"  overflow="visible"/>
				</clipPath>
				<g clip-path="url(#SVGID_14_)" enable-background="new    ">
					<path fill="#849DAE" d="M394.139,174.324l-91.173-49.597c0.802,0.328,1.631,0.603,2.487,0.825l91.173,49.597
						C395.771,174.927,394.941,174.652,394.139,174.324"/>
					<path fill="#87A0B2" d="M396.626,175.149l-91.173-49.597c2.988,0.775,6.305,0.904,9.947,0.392
						c2.89-0.406,5.493-1.155,7.811-2.247l91.173,49.598c-2.318,1.092-4.92,1.84-7.811,2.247
						C402.931,176.054,399.614,175.924,396.626,175.149"/>
					<path fill="#849DAE" d="M414.384,173.295l-91.173-49.598c1.097-0.517,2.13-1.11,3.1-1.781l91.173,49.597
						C416.515,172.185,415.481,172.778,414.384,173.295"/>
					<path fill="#8199AA" d="M417.484,171.514l-91.173-49.597c0.73-0.505,1.424-1.053,2.082-1.645l91.173,49.597
						C418.908,170.46,418.214,171.009,417.484,171.514"/>
					<path fill="#7E96A6" d="M419.565,169.868l-91.173-49.597c0.445-0.4,0.873-0.82,1.284-1.26l91.173,49.597
						C420.438,169.048,420.01,169.468,419.565,169.868"/>
				</g>
			</g>
			<g enable-background="new    ">
				<defs>
					<path id="SVGID_15_" enable-background="new    " d="M322.453,100.137c30.392,16.533,60.781,33.064,91.173,49.597
						c0.339,0.185,0.645,0.393,0.915,0.624c1.615,1.398,2.42,3.377,2.415,5.936c-0.005,2.905-0.995,5.36-2.968,7.35
						c-1.966,1.987-4.755,3.244-8.368,3.752c-2.796,0.393-5.518,0.075-8.159-0.954l-91.173-49.598
						c2.641,1.029,5.363,1.348,8.159,0.955c3.612-0.508,6.401-1.765,8.367-3.752c1.974-1.989,2.963-4.445,2.969-7.35
						c0.005-2.559-0.8-4.538-2.415-5.936C323.098,100.53,322.792,100.322,322.453,100.137z"/>
				</defs>
				<clipPath id="SVGID_16_">
					<use xlink:href="#SVGID_15_"  overflow="visible"/>
				</clipPath>
				<g clip-path="url(#SVGID_16_)" enable-background="new    ">
					<path fill="#13253B" d="M397.461,166.441l-91.173-49.598c0.621,0.242,1.245,0.444,1.875,0.607l91.173,49.598
						C398.707,166.886,398.082,166.683,397.461,166.441"/>
					<path fill="#13253B" d="M399.336,167.049l-91.173-49.598c2.049,0.532,4.146,0.647,6.285,0.347
						c1.905-0.268,3.581-0.744,5.028-1.425l91.173,49.597c-1.447,0.682-3.123,1.158-5.028,1.425
						C403.481,167.696,401.385,167.581,399.336,167.049"/>
					<path fill="#13253B" d="M410.648,165.97l-91.173-49.597c0.636-0.3,1.227-0.639,1.774-1.017l91.173,49.597
						C411.875,165.332,411.284,165.671,410.648,165.97"/>
					<path fill="#13253B" d="M412.423,164.953l-91.173-49.597c0.395-0.273,0.766-0.566,1.114-0.879l91.173,49.598
						C413.188,164.387,412.817,164.681,412.423,164.953"/>
					<path fill="#13253B" d="M413.537,164.074l-91.173-49.598c0.155-0.14,0.306-0.283,0.451-0.43
						c0.153-0.155,0.301-0.312,0.442-0.472l91.173,49.597c-0.142,0.16-0.289,0.317-0.442,0.472
						C413.842,163.791,413.691,163.935,413.537,164.074"/>
					<path fill="#13253B" d="M414.43,163.172l-91.173-49.597c0.261-0.295,0.501-0.6,0.722-0.914l91.173,49.597
						C414.931,162.572,414.69,162.877,414.43,163.172"/>
					<path fill="#13253B" d="M415.151,162.258l-91.173-49.597c0.225-0.32,0.428-0.649,0.61-0.989l91.173,49.597
						C415.579,161.609,415.375,161.938,415.151,162.258"/>
					<path fill="#13253B" d="M415.761,161.27l-91.173-49.597c0.216-0.401,0.402-0.816,0.56-1.244l91.173,49.597
						C416.163,160.454,415.977,160.869,415.761,161.27"/>
					<path fill="#13253B" d="M416.32,160.025l-91.173-49.597c0.421-1.147,0.633-2.392,0.636-3.732
						c0.005-2.559-0.8-4.538-2.415-5.936c-0.271-0.231-0.576-0.439-0.915-0.624l91.173,49.597c0.339,0.185,0.645,0.393,0.915,0.624
						c1.615,1.398,2.42,3.377,2.415,5.936C416.954,157.634,416.742,158.878,416.32,160.025"/>
				</g>
			</g>
			<g enable-background="new    ">
				<defs>
					<path id="SVGID_17_" enable-background="new    " d="M300.9,123.788c0.604,0.329,1.293,0.642,2.066,0.939l91.173,49.597
						c-0.773-0.297-1.461-0.61-2.066-0.939C364.721,158.506,328.252,138.667,300.9,123.788z"/>
				</defs>
				<clipPath id="SVGID_18_">
					<use xlink:href="#SVGID_17_"  overflow="visible"/>
				</clipPath>
				<g clip-path="url(#SVGID_18_)" enable-background="new    ">
					<path fill="#8199AA" d="M392.073,173.385L300.9,123.788c0.166,0.09,0.338,0.179,0.517,0.267l91.173,49.598
						C392.412,173.564,392.239,173.475,392.073,173.385"/>
					<path fill="#849DAE" d="M392.59,173.652l-91.173-49.598c0.472,0.232,0.988,0.457,1.549,0.672l91.173,49.597
						C393.579,174.108,393.062,173.885,392.59,173.652"/>
				</g>
			</g>
			<g enable-background="new    ">
				<defs>
					<path id="SVGID_19_" enable-background="new    " d="M394.596,164.903c-30.392-16.533-60.781-33.064-91.173-49.597
						c1.669,0.908,2.628,1.417,2.865,1.538l91.173,49.598C397.225,166.319,396.265,165.812,394.596,164.903z"/>
				</defs>
				<clipPath id="SVGID_20_">
					<use xlink:href="#SVGID_19_"  overflow="visible"/>
				</clipPath>
				<g clip-path="url(#SVGID_20_)" enable-background="new    ">
					<path fill="#13253B" d="M394.596,164.903l-91.173-49.597c1.67,0.908,2.629,1.417,2.866,1.538l91.173,49.598
						C397.225,166.319,396.265,165.812,394.596,164.903"/>
				</g>
			</g>
			<g enable-background="new    ">
				<defs>
					<path id="SVGID_21_" enable-background="new    " d="M329.167,67.769c16.2,8.812,32.399,17.625,48.6,26.438
						c7.84,4.265,15.68,8.53,23.521,12.795c0.852,0.463,1.986,1.081,2.838,1.543c0.841,0.458,1.963,1.068,2.804,1.526
						c0.831,0.452,1.938,1.054,2.768,1.505c0.818,0.445,1.91,1.039,2.728,1.484c0.806,0.438,1.88,1.022,2.686,1.461
						c1.568,0.854,3.661,1.991,5.229,2.845l0,0c3.172,2.519,4.75,6.168,4.741,10.93c-0.006,3.078-0.789,6.015-2.355,8.784
						l-91.173-49.597c1.567-2.77,2.35-5.707,2.355-8.784C333.917,73.937,332.339,70.287,329.167,67.769z"/>
				</defs>
				<clipPath id="SVGID_22_">
					<use xlink:href="#SVGID_21_"  overflow="visible"/>
				</clipPath>
				<g clip-path="url(#SVGID_22_)" enable-background="new    ">
					<path fill="#788F9E" d="M422.726,137.08l-91.173-49.597c0.069-0.121,0.136-0.243,0.201-0.364l91.173,49.597
						C422.861,136.838,422.794,136.959,422.726,137.08"/>
					<path fill="#758B9A" d="M422.927,136.716l-91.173-49.597c0.422-0.785,0.782-1.583,1.08-2.393l91.173,49.597
						C423.709,135.134,423.349,135.932,422.927,136.716"/>
					<path fill="#728896" d="M424.007,134.323l-91.173-49.597c0.713-1.94,1.07-3.952,1.074-6.027
						c0.009-4.764-1.57-8.415-4.745-10.934c-0.59-0.468-1.212-0.88-1.867-1.236l91.173,49.598c0.655,0.356,1.277,0.768,1.867,1.236
						c3.175,2.519,4.754,6.169,4.745,10.933C425.077,130.372,424.72,132.384,424.007,134.323"/>
				</g>
			</g>
			<g enable-background="new    ">
				<defs>
					<path id="SVGID_23_" enable-background="new    " d="M420.34,117.366c-0.001-0.001-0.002-0.002-0.004-0.003
						c-15.188-8.262-30.376-16.524-45.565-24.786C389.961,100.84,405.15,109.103,420.34,117.366z"/>
				</defs>
				<clipPath id="SVGID_24_">
					<use xlink:href="#SVGID_23_"  overflow="visible"/>
				</clipPath>
				<g clip-path="url(#SVGID_24_)" enable-background="new    ">
					<path fill="#728896" d="M424.007,134.323l-91.173-49.597c0.713-1.94,1.07-3.952,1.074-6.027
						c0.009-4.764-1.57-8.415-4.745-10.934c-0.59-0.468-1.212-0.88-1.867-1.236l91.173,49.598c0.655,0.356,1.277,0.768,1.867,1.236
						c3.175,2.519,4.754,6.169,4.745,10.933C425.077,130.372,424.72,132.384,424.007,134.323"/>
				</g>
			</g>
			<g enable-background="new    ">
				<defs>
					<path id="SVGID_25_" enable-background="new    " d="M311.814,99.42c4.935-0.694,8.481-0.456,10.638,0.717l91.173,49.597
						c-2.157-1.173-5.703-1.411-10.638-0.717C375.635,134.138,339.166,114.299,311.814,99.42z"/>
				</defs>
				<clipPath id="SVGID_26_">
					<use xlink:href="#SVGID_25_"  overflow="visible"/>
				</clipPath>
				<g clip-path="url(#SVGID_26_)" enable-background="new    ">
					<path fill="#87A0B2" d="M402.987,149.017L311.814,99.42c3.763-0.529,6.719-0.517,8.867,0.04l91.173,49.597
						C409.706,148.5,406.75,148.488,402.987,149.017"/>
					<path fill="#849DAE" d="M411.854,149.057l-91.173-49.597c0.569,0.147,1.082,0.333,1.538,0.556l91.173,49.598
						C412.936,149.39,412.423,149.204,411.854,149.057"/>
					<path fill="#8199AA" d="M413.392,149.613l-91.173-49.598c0.08,0.04,0.158,0.08,0.235,0.122l91.173,49.597
						C413.55,149.693,413.471,149.652,413.392,149.613"/>
				</g>
			</g>
			<g enable-background="new    ">
				<defs>
					<path id="SVGID_27_" enable-background="new    " d="M394.582,164.896c-30.392-16.532-60.781-33.064-91.173-49.597
						c-0.187-0.102-0.381-0.208-0.585-0.319l91.173,49.597C394.201,164.688,394.396,164.794,394.582,164.896z"/>
				</defs>
				<clipPath id="SVGID_28_">
					<use xlink:href="#SVGID_27_"  overflow="visible"/>
				</clipPath>
				<g clip-path="url(#SVGID_28_)" enable-background="new    ">
					<path fill="#728896" d="M394.582,164.896l-91.173-49.597c-0.187-0.102-0.381-0.208-0.585-0.319l91.173,49.597
						C394.201,164.688,394.396,164.794,394.582,164.896"/>
				</g>
			</g>
			<g>
				<polygon fill="#13253B" points="389.7,171.543 298.527,121.946 302.824,114.98 393.997,164.577 				"/>
			</g>
			<g enable-background="new    ">
				<defs>
					<path id="SVGID_29_" enable-background="new    " d="M392.073,173.385c-30.392-16.532-60.781-33.064-91.173-49.597
						c-1.042-0.567-1.833-1.18-2.374-1.842l91.173,49.597C390.241,172.205,391.032,172.818,392.073,173.385z"/>
				</defs>
				<clipPath id="SVGID_30_">
					<use xlink:href="#SVGID_29_"  overflow="visible"/>
				</clipPath>
				<g clip-path="url(#SVGID_30_)" enable-background="new    ">
					<path fill="#13253B" d="M392.073,173.385L300.9,123.788c-1.042-0.567-1.833-1.18-2.374-1.842l91.173,49.597
						C390.241,172.205,391.032,172.818,392.073,173.385"/>
				</g>
			</g>
			<g>
				<polygon fill="#8DA8BA" points="401.297,149.254 310.124,99.657 311.814,99.42 402.987,149.017 				"/>
			</g>
			<g enable-background="new    ">
				<defs>
					<path id="SVGID_31_" enable-background="new    " d="M329.163,67.766c-0.59-0.468-1.212-0.88-1.867-1.236l91.173,49.597
						c0.654,0.356,1.276,0.769,1.866,1.236c-30.391-16.532-60.779-33.062-91.169-49.595
						C329.166,67.768,329.164,67.767,329.163,67.766z"/>
				</defs>
				<clipPath id="SVGID_32_">
					<use xlink:href="#SVGID_31_"  overflow="visible"/>
				</clipPath>
				<g clip-path="url(#SVGID_32_)" enable-background="new    ">
					<path fill="#728896" d="M424.007,134.323l-91.173-49.597c0.713-1.94,1.07-3.952,1.074-6.027
						c0.009-4.764-1.57-8.415-4.745-10.934c-0.59-0.468-1.212-0.88-1.867-1.236l91.173,49.598c0.655,0.356,1.277,0.768,1.867,1.236
						c3.175,2.519,4.754,6.169,4.745,10.933C425.077,130.372,424.72,132.384,424.007,134.323"/>
				</g>
			</g>
			<g enable-background="new    ">
				<defs>
					<path id="SVGID_33_" enable-background="new    " d="M321.409,74.323l91.173,49.598c0.337,0.183,0.656,0.393,0.958,0.63
						c1.719,1.366,2.581,3.259,2.576,5.706c-0.004,2.205-0.656,4.103-1.949,5.676l-91.173-49.597
						c1.292-1.573,1.945-3.472,1.949-5.676c0.005-2.446-0.857-4.34-2.576-5.706C322.065,74.717,321.746,74.507,321.409,74.323z"/>
				</defs>
				<clipPath id="SVGID_34_">
					<use xlink:href="#SVGID_33_"  overflow="visible"/>
				</clipPath>
				<g clip-path="url(#SVGID_34_)" enable-background="new    ">
					<path fill="#13253B" d="M414.167,135.933l-91.173-49.597c0.141-0.171,0.274-0.346,0.399-0.525l91.173,49.597
						C414.441,135.586,414.308,135.761,414.167,135.933"/>
					<path fill="#13253B" d="M414.566,135.407L323.394,85.81c0.19-0.271,0.363-0.551,0.519-0.84l91.173,49.597
						C414.93,134.856,414.757,135.136,414.566,135.407"/>
					<path fill="#13253B" d="M415.085,134.567L323.912,84.97c0.185-0.344,0.345-0.699,0.48-1.067l91.173,49.597
						C415.43,133.868,415.27,134.224,415.085,134.567"/>
					<path fill="#13253B" d="M415.565,133.5l-91.173-49.597c0.365-0.993,0.549-2.075,0.551-3.243
						c0.005-2.446-0.857-4.34-2.576-5.706c-0.302-0.237-0.621-0.447-0.958-0.63l91.173,49.598c0.337,0.183,0.656,0.393,0.958,0.63
						c1.719,1.366,2.581,3.259,2.576,5.706C416.114,131.424,415.93,132.506,415.565,133.5"/>
				</g>
			</g>
			<g enable-background="new    ">
				<defs>
					<path id="SVGID_35_" enable-background="new    " d="M402.521,141.062l-91.173-49.597c2.852-0.401,4.927-0.84,6.225-1.316
						c2.204-0.776,4.016-2.042,5.42-3.813l91.173,49.597c-1.405,1.771-3.217,3.037-5.421,3.813
						C407.448,140.222,405.374,140.661,402.521,141.062z"/>
				</defs>
				<clipPath id="SVGID_36_">
					<use xlink:href="#SVGID_35_"  overflow="visible"/>
				</clipPath>
				<g clip-path="url(#SVGID_36_)" enable-background="new    ">
					<path fill="#13253B" d="M402.521,141.062l-91.173-49.597c2.852-0.401,4.927-0.84,6.225-1.316c0.427-0.15,0.84-0.32,1.238-0.507
						l91.173,49.597c-0.398,0.188-0.811,0.357-1.239,0.508C407.448,140.222,405.374,140.661,402.521,141.062"/>
					<path fill="#13253B" d="M409.985,139.238l-91.173-49.597c0.603-0.284,1.171-0.611,1.705-0.98l91.173,49.597
						C411.156,138.628,410.588,138.954,409.985,139.238"/>
					<path fill="#13253B" d="M411.69,138.258l-91.173-49.597c0.4-0.277,0.782-0.579,1.144-0.904l91.173,49.598
						C412.472,137.68,412.091,137.981,411.69,138.258"/>
					<path fill="#13253B" d="M412.834,137.354l-91.173-49.598c0.326-0.293,0.636-0.606,0.93-0.939l91.173,49.598
						C413.47,136.748,413.16,137.061,412.834,137.354"/>
					<path fill="#13253B" d="M413.764,136.415l-91.173-49.598c0.138-0.156,0.272-0.317,0.403-0.482l91.173,49.597
						C414.036,136.098,413.902,136.259,413.764,136.415"/>
				</g>
			</g>
			<g>
				<polygon fill="#13253B" points="401.297,149.254 310.124,99.657 310.139,91.634 401.312,141.231 				"/>
			</g>
			<g>
				<polygon fill="#13253B" points="401.312,141.231 310.139,91.634 311.349,91.464 402.521,141.062 				"/>
			</g>
			<g enable-background="new    ">
				<defs>
					<path id="SVGID_37_" enable-background="new    " d="M315.498,73.524c2.357-0.332,4.327-0.062,5.91,0.799l91.173,49.597
						c-1.583-0.86-3.552-1.13-5.91-0.798C376.279,106.589,345.89,90.057,315.498,73.524z"/>
				</defs>
				<clipPath id="SVGID_38_">
					<use xlink:href="#SVGID_37_"  overflow="visible"/>
				</clipPath>
				<g clip-path="url(#SVGID_38_)" enable-background="new    ">
					<path fill="#87A0B2" d="M401.944,124.545l-91.173-49.597c1.53-0.722,3.105-1.196,4.727-1.424
						c1.592-0.224,3.007-0.174,4.245,0.147l91.173,49.597c-1.239-0.321-2.654-0.372-4.246-0.147
						C405.05,123.35,403.475,123.824,401.944,124.545"/>
					<path fill="#849DAE" d="M410.917,123.269l-91.173-49.597c0.499,0.129,0.97,0.303,1.411,0.52l91.173,49.597
						C411.886,123.572,411.416,123.398,410.917,123.269"/>
					<path fill="#8199AA" d="M412.327,123.789l-91.173-49.597c0.086,0.042,0.17,0.086,0.254,0.131l91.173,49.598
						C412.498,123.875,412.413,123.831,412.327,123.789"/>
				</g>
			</g>
			<g enable-background="new    ">
				<defs>
					<path id="SVGID_39_" enable-background="new    " d="M315.493,73.525c0.001,0,0.003,0,0.005,0
						c30.392,16.532,60.781,33.064,91.173,49.597c-0.001,0-0.003,0-0.005,0C376.274,106.589,345.885,90.058,315.493,73.525z"/>
				</defs>
				<clipPath id="SVGID_40_">
					<use xlink:href="#SVGID_39_"  overflow="visible"/>
				</clipPath>
				<g clip-path="url(#SVGID_40_)" enable-background="new    ">
					<path fill="#87A0B2" d="M401.944,124.545l-91.173-49.597c1.53-0.722,3.105-1.196,4.727-1.424
						c1.592-0.224,3.007-0.174,4.245,0.147l91.173,49.597c-1.239-0.321-2.654-0.372-4.246-0.147
						C405.05,123.35,403.475,123.824,401.944,124.545"/>
				</g>
			</g>
			<g enable-background="new    ">
				<defs>
					<path id="SVGID_41_" enable-background="new    " d="M327.296,66.529c30.392,16.533,60.781,33.064,91.173,49.598
						c-2.869-1.561-6.363-2.05-10.484-1.471L316.811,65.06C320.933,64.48,324.427,64.969,327.296,66.529z"/>
				</defs>
				<clipPath id="SVGID_42_">
					<use xlink:href="#SVGID_41_"  overflow="visible"/>
				</clipPath>
				<g clip-path="url(#SVGID_42_)" enable-background="new    ">
					<path fill="#13253B" d="M407.984,114.656L316.811,65.06c2.757-0.388,5.234-0.297,7.43,0.272l91.173,49.597
						C413.218,114.359,410.742,114.269,407.984,114.656"/>
					<path fill="#13253B" d="M415.414,114.929l-91.173-49.597c0.908,0.235,1.769,0.553,2.582,0.953l91.173,49.597
						C417.184,115.482,416.323,115.165,415.414,114.929"/>
					<path fill="#13253B" d="M417.996,115.882l-91.173-49.597c0.159,0.078,0.317,0.16,0.473,0.244l91.173,49.598
						C418.313,116.042,418.156,115.96,417.996,115.882"/>
				</g>
			</g>
			<g enable-background="new    ">
				<defs>
					<path id="SVGID_43_" enable-background="new    " d="M303.938,80.119c3.562-3.81,7.408-6.01,11.555-6.594
						c30.392,16.533,60.781,33.064,91.173,49.597l0,0c-4.147,0.584-7.994,2.784-11.555,6.594
						C367.759,114.837,331.29,94.998,303.938,80.119z"/>
				</defs>
				<clipPath id="SVGID_44_">
					<use xlink:href="#SVGID_43_"  overflow="visible"/>
				</clipPath>
				<g clip-path="url(#SVGID_44_)" enable-background="new    ">
					<path fill="#7E96A6" d="M395.111,129.716l-91.173-49.597c0.575-0.615,1.158-1.188,1.748-1.72l91.173,49.597
						C396.269,128.527,395.687,129.101,395.111,129.716"/>
					<path fill="#8199AA" d="M396.859,127.996l-91.173-49.597c0.768-0.692,1.549-1.312,2.343-1.862l91.173,49.597
						C398.408,126.684,397.627,127.305,396.859,127.996"/>
					<path fill="#849DAE" d="M399.202,126.135l-91.173-49.597c0.897-0.621,1.812-1.151,2.742-1.589l91.173,49.597
						C401.014,124.984,400.1,125.514,399.202,126.135"/>
					<path fill="#87A0B2" d="M401.944,124.545l-91.173-49.597c1.53-0.722,3.105-1.196,4.727-1.424
						c1.592-0.224,3.007-0.174,4.245,0.147l91.173,49.597c-1.239-0.321-2.654-0.372-4.246-0.147
						C405.05,123.35,403.475,123.824,401.944,124.545"/>
				</g>
			</g>
			<g enable-background="new    ">
				<defs>
					<path id="SVGID_45_" enable-background="new    " d="M390.676,124.583l-91.173-49.597c0.811-1.272,2.319-2.764,4.533-4.476
						c3.777-2.968,8.033-4.785,12.775-5.451l91.173,49.597c-4.742,0.667-8.998,2.483-12.775,5.452
						C392.995,121.82,391.487,123.311,390.676,124.583z"/>
				</defs>
				<clipPath id="SVGID_46_">
					<use xlink:href="#SVGID_45_"  overflow="visible"/>
				</clipPath>
				<g clip-path="url(#SVGID_46_)" enable-background="new    ">
					<path fill="#13253B" d="M390.676,124.583l-91.173-49.597c0.062-0.096,0.126-0.193,0.195-0.292l91.173,49.598
						C390.802,124.39,390.737,124.487,390.676,124.583"/>
					<path fill="#13253B" d="M390.871,124.292l-91.173-49.598c0.215-0.306,0.468-0.624,0.759-0.954l91.173,49.598
						C391.339,123.668,391.086,123.986,390.871,124.292"/>
					<path fill="#13253B" d="M391.631,123.338L300.458,73.74c0.436-0.493,0.958-1.014,1.566-1.561l91.173,49.597
						C392.588,122.324,392.066,122.845,391.631,123.338"/>
					<path fill="#13253B" d="M393.196,121.777L302.023,72.18c0.589-0.531,1.26-1.087,2.013-1.669
						c0.452-0.355,0.912-0.694,1.377-1.017l91.173,49.597c-0.466,0.323-0.925,0.662-1.378,1.017
						C394.457,120.69,393.786,121.246,393.196,121.777"/>
					<path fill="#13253B" d="M396.587,119.091l-91.173-49.597c1.212-0.838,2.471-1.565,3.776-2.181l91.173,49.597
						C399.057,117.526,397.799,118.253,396.587,119.091"/>
					<path fill="#13253B" d="M400.362,116.911l-91.173-49.597c2.384-1.124,4.924-1.875,7.622-2.254l91.173,49.597
						C405.287,115.036,402.747,115.787,400.362,116.911"/>
				</g>
			</g>
			<g>
				<path fill="#13253B" d="M407.984,114.656c5.062-0.711,9.178,0.188,12.352,2.707s4.753,6.169,4.745,10.933
					c-0.006,3.078-0.788,6.014-2.355,8.784c-1.784,3.042-4.045,4.995-6.794,5.838c3.171-0.039,5.676,1.07,7.506,3.311
					c1.822,2.242,2.737,5.078,2.731,8.51c-0.01,5.464-1.789,10.088-5.319,13.869c-3.539,3.782-8.292,6.092-14.276,6.933
					c-4.686,0.659-8.833,0.256-12.434-1.217c-2.105-0.81-3.585-1.735-4.439-2.781l4.297-6.966c2.04,1.114,3.2,1.729,3.464,1.864
					c2.641,1.029,5.363,1.347,8.159,0.954c3.613-0.508,6.402-1.765,8.368-3.752c1.974-1.989,2.963-4.445,2.968-7.35
					c0.005-2.559-0.8-4.538-2.415-5.936c-1.991-1.699-5.842-2.144-11.554-1.341l-1.69,0.237l0.015-8.023l1.209-0.17
					c2.852-0.401,4.927-0.84,6.225-1.315c2.204-0.777,4.016-2.043,5.421-3.813c1.292-1.573,1.944-3.472,1.949-5.676
					c0.004-2.447-0.857-4.339-2.576-5.706c-1.72-1.349-4.009-1.831-6.869-1.429c-4.149,0.583-7.997,2.784-11.56,6.595l-4.435-5.133
					c0.811-1.272,2.319-2.763,4.533-4.475C398.986,117.14,403.242,115.323,407.984,114.656z"/>
			</g>
			<g>
				<polygon fill="#13253B" points="395.111,129.716 303.938,80.119 299.503,74.986 390.676,124.583 				"/>
			</g>
			<g>
				<polygon fill="#8DA8BA" points="355.935,112.083 264.762,62.486 372.206,47.386 463.379,96.983 				"/>
			</g>
			<g>
				<polygon fill="#8DA8BA" points="281.46,153.624 190.287,104.026 199.5,102.732 290.672,152.329 				"/>
			</g>
			<g>
				<polygon fill="#718695" points="290.672,152.329 199.5,102.732 199.607,44.554 290.781,94.151 				"/>
			</g>
			<g>
				<polygon fill="#13253B" points="281.46,153.624 190.287,104.026 190.374,57.538 281.547,107.135 				"/>
			</g>
			<g>
				<polygon fill="#13253B" points="283.507,95.173 192.334,45.576 199.607,44.554 290.781,94.151 				"/>
			</g>
			<g>
				<polygon fill="#88A1B3" points="269.162,117.77 177.989,68.173 190.374,57.537 281.547,107.135 				"/>
			</g>
			<g>
				<polygon fill="#13253B" points="290.781,94.151 290.672,152.329 281.46,153.624 281.547,107.135 269.162,117.77 
					264.817,111.318 283.507,95.173 				"/>
			</g>
			<g>
				<polygon fill="#13253B" points="264.817,111.318 173.645,61.722 192.334,45.576 283.507,95.173 				"/>
			</g>
			<g>
				<polygon fill="#13253B" points="269.162,117.77 177.989,68.173 173.645,61.722 264.817,111.318 				"/>
			</g>
			<g>
				<polygon fill="#718695" points="172.439,207.229 81.267,157.631 81.282,149.253 172.455,198.851 				"/>
			</g>
			<g>
				<polygon fill="#8DA8BA" points="136.16,212.327 44.987,162.729 81.267,157.631 172.439,207.229 				"/>
			</g>
			<g>
				<polygon fill="#13253B" points="148.696,202.19 57.523,152.593 81.282,149.253 172.456,198.851 				"/>
			</g>
			<g>
				<polygon fill="#8DA8BA" points="209.045,82.343 117.872,32.746 264.855,12.089 356.028,61.687 				"/>
			</g>
			<g>
				<polygon fill="#718695" points="208.952,132.74 117.779,83.143 117.872,32.746 209.045,82.343 				"/>
			</g>
			<g>
				<polygon fill="#13253B" points="136.16,212.327 44.987,162.729 45.001,155.225 136.174,204.822 				"/>
			</g>
			<g enable-background="new    ">
				<defs>
					<path id="SVGID_47_" enable-background="new    " d="M75.432,103.823c-0.708-0.592-1.458-1.103-2.25-1.534l91.173,49.597
						c0.793,0.431,1.543,0.943,2.25,1.535c3.302,2.76,4.953,6.841,4.942,12.253c-0.007,4.063-1.096,8.141-3.25,12.229
						c-1.623,3.072-4.217,6.781-7.781,11.12c-4.856,5.912-8.796,10.304-11.82,13.166l-91.173-49.597
						c3.024-2.862,6.965-7.254,11.821-13.166c3.564-4.338,6.157-8.048,7.781-11.12c2.154-4.089,3.242-8.167,3.25-12.229
						C80.384,110.665,78.734,106.583,75.432,103.823z"/>
				</defs>
				<clipPath id="SVGID_48_">
					<use xlink:href="#SVGID_47_"  overflow="visible"/>
				</clipPath>
				<g clip-path="url(#SVGID_48_)" enable-background="new    ">
					<path fill="#7E96A6" d="M148.696,202.189l-91.173-49.597c1.738-1.645,3.778-3.794,6.121-6.447l91.173,49.597
						C152.474,198.395,150.434,200.545,148.696,202.189"/>
					<path fill="#7B93A2" d="M154.817,195.742l-91.173-49.597c1.734-1.964,3.634-4.204,5.7-6.719
						c1.757-2.139,3.278-4.125,4.564-5.958l91.173,49.597c-1.285,1.833-2.807,3.819-4.564,5.958
						C158.451,191.539,156.551,193.778,154.817,195.742"/>
					<path fill="#788F9E" d="M165.081,183.065l-91.173-49.597c1.259-1.795,2.292-3.442,3.098-4.94l91.173,49.597
						C167.373,179.624,166.34,181.271,165.081,183.065"/>
					<path fill="#758B9A" d="M168.179,178.125l-91.173-49.597c0.04-0.074,0.08-0.148,0.119-0.222c0.659-1.251,1.218-2.5,1.677-3.748
						l91.173,49.597c-0.459,1.248-1.018,2.498-1.677,3.748C168.258,177.977,168.219,178.051,168.179,178.125"/>
					<path fill="#728896" d="M169.974,174.156l-91.173-49.597c1.042-2.833,1.568-5.661,1.573-8.481
						c0.01-5.413-1.64-9.494-4.942-12.254c-0.708-0.592-1.458-1.104-2.251-1.535l91.173,49.598c0.793,0.432,1.543,0.943,2.251,1.535
						c3.302,2.76,4.953,6.841,4.942,12.253C171.542,168.495,171.016,171.322,169.974,174.156"/>
				</g>
			</g>
			<g enable-background="new    ">
				<defs>
					<path id="SVGID_49_" enable-background="new    " d="M67.282,110.045c30.392,16.533,60.781,33.064,91.173,49.598
						c0.453,0.246,0.875,0.543,1.266,0.891c1.695,1.508,2.54,3.766,2.534,6.792c-0.009,4.773-3.417,11.293-10.215,19.57
						c-6.156,7.495-11.445,13.468-15.866,17.926l-91.173-49.597c4.42-4.458,9.709-10.432,15.866-17.926
						c6.798-8.277,10.206-14.798,10.215-19.57c0.005-3.026-0.839-5.284-2.534-6.792C68.157,110.588,67.735,110.292,67.282,110.045z"
						/>
				</defs>
				<clipPath id="SVGID_50_">
					<use xlink:href="#SVGID_49_"  overflow="visible"/>
				</clipPath>
				<g clip-path="url(#SVGID_50_)" enable-background="new    ">
					<path fill="#13253B" d="M136.174,204.822l-91.173-49.597c2.269-2.288,4.766-4.975,7.491-8.061l91.173,49.597
						C140.94,199.848,138.443,202.534,136.174,204.822"/>
					<path fill="#13253B" d="M143.666,196.761l-91.173-49.597c2.586-2.928,5.378-6.217,8.375-9.865
						c1.558-1.897,2.938-3.702,4.14-5.415l91.173,49.598c-1.202,1.712-2.582,3.518-4.141,5.415
						C149.043,190.545,146.251,193.833,143.666,196.761"/>
					<path fill="#13253B" d="M156.181,181.481l-91.173-49.598c1.307-1.862,2.403-3.616,3.289-5.261l91.173,49.597
						C158.584,177.865,157.487,179.619,156.181,181.481"/>
					<path fill="#13253B" d="M159.469,176.22l-91.173-49.597c0.726-1.35,1.311-2.626,1.753-3.829l91.173,49.597
						C160.78,173.594,160.196,174.871,159.469,176.22"/>
					<path fill="#13253B" d="M161.223,172.391l-91.173-49.597c0.686-1.864,1.03-3.553,1.033-5.065
						c0.005-3.026-0.839-5.284-2.534-6.792c-0.391-0.348-0.813-0.645-1.266-0.892l91.173,49.598
						c0.453,0.246,0.875,0.543,1.266,0.891c1.695,1.508,2.54,3.766,2.534,6.792C162.252,168.838,161.908,170.527,161.223,172.391"/>
				</g>
			</g>
			<g enable-background="new    ">
				<defs>
					<path id="SVGID_51_" enable-background="new    " d="M61.728,109.275c2.193-0.308,4.044-0.052,5.553,0.77l91.173,49.597
						c-1.509-0.821-3.361-1.078-5.554-0.769C122.509,142.34,92.12,125.808,61.728,109.275z"/>
				</defs>
				<clipPath id="SVGID_52_">
					<use xlink:href="#SVGID_51_"  overflow="visible"/>
				</clipPath>
				<g clip-path="url(#SVGID_52_)" enable-background="new    ">
					<path fill="#87A0B2" d="M148.575,160.197L57.402,110.6c1.442-0.68,2.884-1.122,4.326-1.325
						c1.471-0.207,2.788-0.159,3.951,0.142l91.173,49.597c-1.164-0.301-2.48-0.349-3.952-0.142
						C151.459,159.075,150.017,159.517,148.575,160.197"/>
					<path fill="#849DAE" d="M156.853,159.015l-91.173-49.597c0.478,0.124,0.93,0.291,1.356,0.5l91.173,49.598
						C157.782,159.305,157.33,159.139,156.853,159.015"/>
					<path fill="#8199AA" d="M158.208,159.515l-91.173-49.598c0.083,0.041,0.166,0.084,0.247,0.128l91.173,49.597
						C158.374,159.598,158.292,159.556,158.208,159.515"/>
				</g>
			</g>
			<g enable-background="new    ">
				<defs>
					<path id="SVGID_53_" enable-background="new    " d="M73.181,102.289c30.392,16.533,60.781,33.064,91.173,49.597
						c-2.915-1.586-6.406-2.089-10.468-1.518l-91.173-49.597C66.775,100.2,70.265,100.703,73.181,102.289z"/>
				</defs>
				<clipPath id="SVGID_54_">
					<use xlink:href="#SVGID_53_"  overflow="visible"/>
				</clipPath>
				<g clip-path="url(#SVGID_54_)" enable-background="new    ">
					<path fill="#13253B" d="M153.886,150.368l-91.173-49.597c2.69-0.378,5.129-0.285,7.317,0.281l91.173,49.598
						C159.015,150.083,156.576,149.99,153.886,150.368"/>
					<path fill="#13253B" d="M161.203,150.649L70.03,101.052c0.933,0.242,1.819,0.569,2.66,0.982l91.173,49.598
						C163.022,151.218,162.135,150.891,161.203,150.649"/>
					<path fill="#13253B" d="M163.863,151.632L72.69,102.034c0.165,0.082,0.329,0.167,0.491,0.254l91.173,49.597
						C164.192,151.798,164.028,151.713,163.863,151.632"/>
				</g>
			</g>
			<g enable-background="new    ">
				<defs>
					<path id="SVGID_55_" enable-background="new    " d="M61.723,109.276c0.871,0.157,1.813,0.986,2.59,1.409
						c2.686,1.461,5.372,2.922,8.058,4.383c3.763,2.047,7.525,4.093,11.288,6.14c4.895,2.662,9.789,5.323,14.683,7.985
						c2.985,1.624,5.97,3.248,8.955,4.871c15.202,8.27,30.402,16.539,45.604,24.809c-4.149,0.583-8.303,3.146-12.459,7.681
						l-91.173-49.597C53.424,112.424,57.575,109.86,61.723,109.276z"/>
				</defs>
				<clipPath id="SVGID_56_">
					<use xlink:href="#SVGID_55_"  overflow="visible"/>
				</clipPath>
				<g clip-path="url(#SVGID_56_)" enable-background="new    ">
					<path fill="#7E96A6" d="M140.441,166.554l-91.173-49.597c0.836-0.912,1.672-1.745,2.509-2.498l91.173,49.598
						C142.114,164.809,141.277,165.642,140.441,166.554"/>
					<path fill="#8199AA" d="M142.95,164.057l-91.173-49.598c0.912-0.821,1.825-1.548,2.737-2.179l91.173,49.597
						C144.774,162.509,143.862,163.235,142.95,164.057"/>
					<path fill="#849DAE" d="M145.687,161.877L54.514,112.28c0.963-0.666,1.926-1.227,2.888-1.68l91.173,49.597
						C147.612,160.651,146.649,161.211,145.687,161.877"/>
					<path fill="#87A0B2" d="M148.575,160.197L57.402,110.6c1.442-0.68,2.884-1.122,4.326-1.325
						c1.471-0.207,2.788-0.159,3.951,0.142l91.173,49.597c-1.164-0.301-2.48-0.349-3.952-0.142
						C151.459,159.075,150.017,159.517,148.575,160.197"/>
				</g>
			</g>
			<g enable-background="new    ">
				<defs>
					<path id="SVGID_57_" enable-background="new    " d="M135.687,161.292l-91.173-49.597c0.972-1.528,2.593-3.208,4.855-5.038
						c4.05-3.249,8.49-5.205,13.345-5.887l91.173,49.597c-4.854,0.682-9.294,2.638-13.345,5.886
						C138.279,158.084,136.659,159.765,135.687,161.292z"/>
				</defs>
				<clipPath id="SVGID_58_">
					<use xlink:href="#SVGID_57_"  overflow="visible"/>
				</clipPath>
				<g clip-path="url(#SVGID_58_)" enable-background="new    ">
					<path fill="#13253B" d="M135.687,161.292l-91.173-49.597c0.09-0.141,0.185-0.283,0.286-0.427l91.173,49.597
						C135.871,161.009,135.776,161.151,135.687,161.292"/>
					<path fill="#13253B" d="M135.972,160.866l-91.173-49.597c0.301-0.429,0.651-0.869,1.05-1.321l91.173,49.598
						C136.623,159.997,136.273,160.437,135.972,160.866"/>
					<path fill="#13253B" d="M137.022,159.545l-91.173-49.598c0.567-0.642,1.232-1.307,1.997-1.995l91.173,49.597
						C138.255,158.238,137.589,158.903,137.022,159.545"/>
					<path fill="#13253B" d="M139.019,157.55l-91.173-49.597c0.47-0.423,0.978-0.855,1.522-1.295
						c0.579-0.464,1.165-0.902,1.759-1.313l91.173,49.598c-0.595,0.411-1.181,0.849-1.76,1.312
						C139.997,156.695,139.489,157.127,139.019,157.55"/>
					<path fill="#13253B" d="M142.301,154.941l-91.173-49.598c1.294-0.896,2.626-1.666,3.997-2.312l91.173,49.598
						C144.927,153.275,143.595,154.046,142.301,154.941"/>
					<path fill="#13253B" d="M146.298,152.629l-91.173-49.598c2.409-1.136,4.937-1.888,7.588-2.261l91.173,49.597
						C151.234,150.74,148.706,151.493,146.298,152.629"/>
				</g>
			</g>
			<g>
				<polygon fill="#13253B" points="140.441,166.554 49.269,116.957 44.513,111.695 135.687,161.292 				"/>
			</g>
			<g>
				<path fill="#A4C2D8" d="M355.935,112.083l107.444-15.1l-0.179,96.531l-119.909,16.852l-2.13,0.3l-117.785,16.553l-2.131,0.299
					l-119.908,16.852l0.179-96.531l107.436-15.099l0.094-50.397l146.983-20.657L355.935,112.083z M420.85,168.608
					c3.531-3.781,5.309-8.404,5.319-13.869c0.006-3.432-0.909-6.268-2.731-8.51c-1.83-2.241-4.334-3.35-7.505-3.311
					c2.749-0.844,5.01-2.795,6.794-5.839c1.566-2.77,2.349-5.706,2.355-8.784c0.009-4.764-1.57-8.414-4.745-10.933
					c-3.174-2.519-7.289-3.418-12.352-2.707c-4.742,0.667-8.998,2.483-12.775,5.452c-2.214,1.712-3.722,3.203-4.533,4.475
					l4.436,5.133c3.562-3.811,7.411-6.011,11.56-6.594c2.86-0.402,5.149,0.08,6.869,1.429c1.719,1.366,2.581,3.259,2.577,5.706
					c-0.004,2.205-0.656,4.103-1.949,5.676c-1.405,1.771-3.217,3.036-5.42,3.813c-1.298,0.476-3.373,0.915-6.225,1.316l-1.209,0.17
					l-0.015,8.023l1.69-0.237c5.711-0.803,9.562-0.358,11.554,1.34c1.615,1.399,2.42,3.377,2.415,5.937
					c-0.005,2.905-0.995,5.36-2.969,7.35c-1.965,1.987-4.755,3.244-8.368,3.752c-2.795,0.393-5.518,0.075-8.158-0.955
					c-0.264-0.135-1.424-0.75-3.464-1.864l-4.297,6.966c0.855,1.046,2.335,1.971,4.439,2.781c3.601,1.474,7.749,1.876,12.435,1.217
					C412.558,174.701,417.311,172.39,420.85,168.608 M172.439,207.229l0.016-8.378l-23.759,3.339
					c3.024-2.862,6.964-7.254,11.82-13.166c3.564-4.339,6.158-8.048,7.781-11.12c2.154-4.088,3.243-8.166,3.25-12.229
					c0.01-5.412-1.64-9.493-4.942-12.253c-3.31-2.768-7.552-3.779-12.719-3.053c-4.854,0.682-9.294,2.637-13.345,5.886
					c-2.262,1.831-3.882,3.511-4.854,5.038l4.755,5.262c4.157-4.535,8.31-7.098,12.459-7.681c2.852-0.401,5.125,0.153,6.82,1.661
					c1.695,1.507,2.54,3.766,2.534,6.792c-0.009,4.773-3.417,11.293-10.215,19.57c-6.156,7.495-11.445,13.468-15.866,17.926
					l-0.014,7.505L172.439,207.229 M290.672,152.329l0.108-58.178l-7.274,1.022l-18.689,16.146l4.344,6.451l12.385-10.635
					l-0.086,46.489L290.672,152.329"/>
			</g>
			<g>
				<path fill="#13253B" d="M153.886,150.368c5.167-0.726,9.409,0.285,12.719,3.053c3.303,2.76,4.953,6.841,4.943,12.253
					c-0.008,4.064-1.096,8.141-3.25,12.23c-1.624,3.072-4.217,6.781-7.781,11.12c-4.855,5.912-8.796,10.303-11.82,13.166
					l23.759-3.339l-0.016,8.378l-36.28,5.099l0.014-7.505c4.421-4.458,9.709-10.432,15.866-17.926
					c6.798-8.277,10.206-14.797,10.215-19.57c0.006-3.026-0.839-5.284-2.534-6.792c-1.695-1.508-3.969-2.062-6.82-1.661
					c-4.15,0.583-8.303,3.146-12.46,7.681l-4.755-5.261c0.972-1.528,2.593-3.208,4.854-5.039
					C144.591,153.005,149.031,151.05,153.886,150.368z"/>
			</g>
			<g>
				<polygon fill="#8DA8BA" points="101.516,147.839 10.343,98.242 117.779,83.143 208.952,132.74 				"/>
			</g>
			<g>
				<polygon fill="#718695" points="101.337,244.371 10.164,194.773 10.343,98.242 101.516,147.839 				"/>
			</g>
		</g>
	</g>
</g>
</svg>
