<?xml version="1.0" encoding="utf-8"?>
<!-- Generator: Adobe Illustrator 16.0.4, SVG Export Plug-In . SVG Version: 6.00 Build 0)  -->
<!DOCTYPE svg PUBLIC "-//W3C//DTD SVG 1.1//EN" "http://www.w3.org/Graphics/SVG/1.1/DTD/svg11.dtd">
<svg version="1.1" id="Layer_1" xmlns="http://www.w3.org/2000/svg" xmlns:xlink="http://www.w3.org/1999/xlink" x="0px" y="0px"
	 width="287.334px" height="287.334px" viewBox="0 0 287.334 287.334" enable-background="new 0 0 287.334 287.334"
	 xml:space="preserve">
<g>
	<g>
		<path fill="#0072C6" d="M246.888,274.688c-7.431,0-14.416-2.893-19.669-8.148l-61.806-61.791l4.175-2.684
			c13.126-8.439,24.055-19.367,32.482-32.482l2.684-4.176l61.794,61.805c5.253,5.254,8.146,12.24,8.146,19.67
			s-2.894,14.412-8.149,19.66C261.301,271.794,254.318,274.688,246.888,274.688z"/>
		<path fill="#FFFFFF" d="M205.436,171.745l58.283,58.295c9.301,9.303,9.301,24.383,0,33.672
			c-4.645,4.652-10.737,6.977-16.832,6.977c-6.094,0-12.189-2.324-16.84-6.977l-58.296-58.281
			C185.272,196.737,196.753,185.257,205.436,171.745 M204.073,159.067l-5.368,8.354c-8.116,12.629-18.641,23.152-31.28,31.279
			l-8.35,5.369l7.02,7.018l58.296,58.283c6.009,6.01,13.998,9.318,22.496,9.318c8.501,0,16.488-3.311,22.492-9.322
			c6.005-5.998,9.315-13.984,9.315-22.484c0-8.498-3.31-16.488-9.318-22.498l-58.283-58.295L204.073,159.067L204.073,159.067z"/>
	</g>
	<g>
		<path fill="#0072C6" d="M111.916,211.185c-54.741,0-99.276-44.531-99.276-99.269c0-54.738,44.535-99.271,99.276-99.271
			c54.733,0,99.262,44.533,99.262,99.271C211.178,166.653,166.649,211.185,111.916,211.185z M111.916,44.455
			c-37.195,0-67.456,30.263-67.456,67.461c0,37.19,30.261,67.448,67.456,67.448c37.193,0,67.453-30.258,67.453-67.448
			C179.369,74.718,149.109,44.455,111.916,44.455z"/>
		<path fill="#FFFFFF" d="M111.916,16.646c52.622,0,95.262,42.652,95.262,95.271c0,52.604-42.64,95.269-95.262,95.269
			c-52.619,0-95.276-42.664-95.276-95.269C16.64,59.297,59.297,16.646,111.916,16.646 M111.916,183.364
			c39.397,0,71.453-32.064,71.453-71.448c0-39.395-32.056-71.461-71.453-71.461c-39.406,0-71.456,32.066-71.456,71.461
			C40.46,151.3,72.51,183.364,111.916,183.364 M111.916,8.646C54.969,8.646,8.64,54.973,8.64,111.916
			c0,56.942,46.33,103.269,103.276,103.269c56.938,0,103.262-46.326,103.262-103.269c0-27.586-10.739-53.52-30.24-73.024
			C165.436,19.387,139.503,8.646,111.916,8.646L111.916,8.646z M111.916,175.364c-34.99,0-63.456-28.463-63.456-63.448
			c0-34.993,28.466-63.461,63.456-63.461c34.988,0,63.453,28.468,63.453,63.461C175.369,146.901,146.904,175.364,111.916,175.364
			L111.916,175.364z"/>
	</g>
	<g>
		<path fill="#0072C6" d="M52.339,115.916v-4c0-32.851,26.726-59.577,59.577-59.577h4v23.873h-4
			c-19.685,0-35.699,16.017-35.699,35.704v4H52.339z"/>
		<path fill="#FFFFFF" d="M111.916,56.339v15.873c-21.882,0-39.699,17.799-39.699,39.704H56.339
			C56.339,81.26,81.266,56.339,111.916,56.339 M119.916,48.339h-8c-35.057,0-63.577,28.521-63.577,63.577v8h8h15.878h8v-8
			c0-17.482,14.22-31.704,31.699-31.704h8v-8V56.339V48.339L119.916,48.339z"/>
	</g>
</g>
</svg>
