<?xml version="1.0" encoding="utf-8"?>
<!-- Generator: Adobe Illustrator 16.0.4, SVG Export Plug-In . SVG Version: 6.00 Build 0)  -->
<!DOCTYPE svg PUBLIC "-//W3C//DTD SVG 1.1//EN" "http://www.w3.org/Graphics/SVG/1.1/DTD/svg11.dtd">
<svg version="1.1" id="Layer_1" xmlns="http://www.w3.org/2000/svg" xmlns:xlink="http://www.w3.org/1999/xlink" x="0px" y="0px"
	 width="365.383px" height="203.848px" viewBox="0 0 365.383 203.848" enable-background="new 0 0 365.383 203.848"
	 xml:space="preserve">
<path fill="#A1C6E6" d="M339.29,190.271l3.605-35.654L35.84,9.263l-9.52,2.551L6.01,73.603L336.766,197.02L339.29,190.271
	L339.29,190.271z"/>
<path fill="#0072C6" d="M13.678,68.545l325.61,121.727l19.082-58.05L35.84,9.263L13.678,68.545z"/>
<rect x="42.513" y="67.463" transform="matrix(-0.9367 -0.3502 0.3502 -0.9367 60.0753 157.9174)" fill="#A1C6E6" width="3.603" height="12.128"/>
<rect x="74.57" y="79.449" transform="matrix(-0.9367 -0.3502 0.3502 -0.9367 117.9579 192.3568)" fill="#A1C6E6" width="3.603" height="12.128"/>
<rect x="106.627" y="91.433" transform="matrix(-0.9367 -0.3502 0.3502 -0.9367 175.8509 226.7903)" fill="#A1C6E6" width="3.603" height="12.128"/>
<rect x="138.685" y="103.419" transform="matrix(-0.9367 -0.3502 0.3502 -0.9367 233.7407 261.2291)" fill="#A1C6E6" width="3.603" height="12.129"/>
<rect x="170.741" y="115.405" transform="matrix(-0.9367 -0.3502 0.3502 -0.9367 291.6175 295.6726)" fill="#A1C6E6" width="3.603" height="12.128"/>
<rect x="202.8" y="127.389" transform="matrix(-0.9367 -0.3502 0.3502 -0.9367 349.5161 330.1029)" fill="#A1C6E6" width="3.603" height="12.129"/>
<rect x="234.856" y="139.374" transform="matrix(-0.9367 -0.3502 0.3502 -0.9367 407.4028 364.5401)" fill="#A1C6E6" width="3.603" height="12.129"/>
<rect x="266.927" y="151.343" transform="matrix(-0.9368 -0.3499 0.3499 -0.9368 465.3829 398.901)" fill="#A1C6E6" width="3.603" height="12.129"/>
<rect x="298.97" y="163.345" transform="matrix(-0.9367 -0.3502 0.3502 -0.9367 523.1782 433.4139)" fill="#A1C6E6" width="3.603" height="12.127"/>
<circle fill="#FFFFFF" cx="45.908" cy="46.525" r="8.741"/>
</svg>
