<?xml version="1.0" encoding="utf-8"?>
<!-- Generator: Adobe Illustrator 16.0.4, SVG Export Plug-In . SVG Version: 6.00 Build 0)  -->
<!DOCTYPE svg PUBLIC "-//W3C//DTD SVG 1.1//EN" "http://www.w3.org/Graphics/SVG/1.1/DTD/svg11.dtd">
<svg version="1.1" id="Layer_1" xmlns="http://www.w3.org/2000/svg" xmlns:xlink="http://www.w3.org/1999/xlink" x="0px" y="0px"
	 width="287.334px" height="287.334px" viewBox="0 0 287.334 287.334" enable-background="new 0 0 287.334 287.334"
	 xml:space="preserve">
<path fill="#0072C6" d="M257.821,21.902H29.513c-12.604,0-22.831,10.227-22.831,22.831v152.206c0,12.604,10.227,22.83,22.831,22.83
	h91.323l-7.61,22.831H78.979c-6.327,0-11.416,5.089-11.416,11.416c0,6.325,5.089,11.415,11.416,11.415h129.375
	c6.327,0,11.416-5.09,11.416-11.415c0-6.327-5.089-11.416-11.416-11.416h-34.246l-7.61-22.831h91.323
	c12.605,0,22.831-10.226,22.831-22.83V44.733C280.652,32.129,270.427,21.902,257.821,21.902z M250.212,189.329H37.123V52.344
	h213.089V189.329z"/>
</svg>
