<?xml version="1.0" encoding="utf-8"?>
<!-- Generator: Adobe Illustrator 16.0.4, SVG Export Plug-In . SVG Version: 6.00 Build 0)  -->
<!DOCTYPE svg PUBLIC "-//W3C//DTD SVG 1.1//EN" "http://www.w3.org/Graphics/SVG/1.1/DTD/svg11.dtd">
<svg version="1.1" id="Layer_1" xmlns="http://www.w3.org/2000/svg" xmlns:xlink="http://www.w3.org/1999/xlink" x="0px" y="0px"
	 width="132.667px" height="117.334px" viewBox="0 0 132.667 117.334" enable-background="new 0 0 132.667 117.334"
	 xml:space="preserve">
<path fill="#12253B" d="M119.825,2.056H13.522c-5.868,0-10.63,4.762-10.63,10.629v70.869c0,5.868,4.762,10.63,10.63,10.63h42.521
	l-3.543,10.63H36.554c-2.946,0-5.315,2.37-5.315,5.314s2.369,5.317,5.315,5.317h60.24c2.944,0,5.314-2.373,5.314-5.317
	s-2.37-5.314-5.314-5.314H80.847l-3.543-10.63h42.521c5.869,0,10.631-4.762,10.631-10.63V12.685
	C130.456,6.818,125.694,2.056,119.825,2.056z M116.282,80.01H17.065v-63.78h99.217V80.01z"/>
<rect x="17.758" y="16.124" fill="#FFFFFF" width="98.524" height="63.886"/>
<g>
	<path fill="#587EBF" d="M39.958,49.327l-2.376,1.41c-0.445-0.773-0.868-1.276-1.271-1.511c-0.42-0.268-0.96-0.401-1.624-0.401
		c-0.812,0-1.487,0.229-2.024,0.689c-0.536,0.453-0.805,1.024-0.805,1.712c0,0.946,0.704,1.709,2.113,2.286l1.938,0.793
		c1.576,0.639,2.728,1.416,3.458,2.333c0.729,0.92,1.092,2.045,1.092,3.375c0,1.788-0.595,3.263-1.785,4.428
		c-1.199,1.175-2.688,1.76-4.465,1.76c-1.684,0-3.076-0.497-4.175-1.493c-1.081-0.998-1.756-2.405-2.024-4.215l2.968-0.652
		c0.134,1.138,0.368,1.927,0.703,2.362c0.604,0.839,1.484,1.26,2.642,1.26c0.914,0,1.672-0.308,2.276-0.917
		c0.603-0.614,0.906-1.39,0.906-2.328c0-0.377-0.053-0.725-0.158-1.037c-0.105-0.316-0.27-0.604-0.491-0.869
		c-0.221-0.264-0.509-0.511-0.861-0.741c-0.353-0.229-0.771-0.449-1.259-0.66l-1.873-0.78c-2.658-1.122-3.985-2.766-3.985-4.931
		c0-1.457,0.557-2.677,1.671-3.659c1.116-0.987,2.502-1.483,4.162-1.483C36.951,46.057,38.7,47.146,39.958,49.327z"/>
	<path fill="#E4362A" d="M54.608,60.394h-8.777c0.076,1.005,0.402,1.807,0.98,2.402c0.579,0.586,1.32,0.879,2.227,0.879
		c0.705,0,1.287-0.168,1.747-0.501c0.453-0.337,0.969-0.956,1.548-1.863l2.39,1.333c-0.37,0.629-0.759,1.169-1.17,1.616
		c-0.411,0.45-0.851,0.817-1.32,1.108c-0.471,0.285-0.977,0.498-1.522,0.635c-0.545,0.132-1.136,0.198-1.773,0.198
		c-1.828,0-3.293-0.585-4.403-1.76c-1.105-1.182-1.659-2.749-1.659-4.701c0-1.937,0.537-3.507,1.609-4.703
		c1.082-1.184,2.517-1.773,4.302-1.773c1.802,0,3.229,0.572,4.274,1.722c1.04,1.14,1.561,2.723,1.561,4.743L54.608,60.394z
		 M51.704,58.079c-0.395-1.509-1.347-2.264-2.855-2.264c-0.343,0-0.667,0.053-0.969,0.158c-0.302,0.104-0.575,0.254-0.822,0.452
		c-0.249,0.198-0.46,0.436-0.636,0.71c-0.176,0.276-0.31,0.592-0.401,0.943H51.704z"/>
	<path fill="#F8BF06" d="M66.73,53.602h2.842v12.25H66.73v-1.283c-1.166,1.09-2.418,1.633-3.76,1.633
		c-1.693,0-3.094-0.611-4.2-1.833c-1.1-1.251-1.646-2.811-1.646-4.68c0-1.836,0.547-3.365,1.646-4.588
		c1.098-1.228,2.473-1.837,4.125-1.837c1.425,0,2.704,0.588,3.835,1.761V53.602z M60.015,59.688c0,1.174,0.315,2.131,0.944,2.867
		c0.645,0.748,1.459,1.119,2.439,1.119c1.048,0,1.895-0.361,2.541-1.08c0.645-0.746,0.968-1.695,0.968-2.843
		c0-1.146-0.323-2.096-0.968-2.842c-0.646-0.729-1.484-1.095-2.515-1.095c-0.973,0-1.787,0.369-2.44,1.107
		C60.338,57.668,60.015,58.594,60.015,59.688z"/>
	<path fill="#587EBF" d="M73.144,53.602h2.83v1.095c0.52-0.545,0.98-0.917,1.383-1.119c0.412-0.208,0.897-0.313,1.459-0.313
		c0.748,0,1.525,0.242,2.339,0.729l-1.296,2.59c-0.536-0.387-1.061-0.577-1.57-0.577c-1.543,0-2.314,1.164-2.314,3.495v6.351h-2.83
		V53.602z"/>
	<path fill="#329F43" d="M92.083,54.132v3.759c-0.646-0.787-1.225-1.327-1.736-1.623c-0.502-0.302-1.094-0.452-1.771-0.452
		c-1.064,0-1.949,0.373-2.654,1.119s-1.057,1.681-1.057,2.806c0,1.147,0.34,2.091,1.02,2.828c0.688,0.738,1.562,1.106,2.627,1.106
		c0.68,0,1.279-0.144,1.799-0.439c0.503-0.286,1.094-0.839,1.773-1.661v3.735c-1.148,0.593-2.297,0.892-3.445,0.892
		c-1.896,0-3.48-0.611-4.754-1.833c-1.275-1.233-1.912-2.762-1.912-4.591c0-1.827,0.646-3.37,1.937-4.628
		c1.29-1.257,2.876-1.886,4.755-1.886C89.87,53.264,91.009,53.552,92.083,54.132z"/>
	<path fill="#E4362A" d="M95.491,44.613h2.828v10.008c1.008-0.905,2.117-1.357,3.332-1.357c1.385,0,2.492,0.447,3.32,1.346
		c0.705,0.777,1.057,2.025,1.057,3.734v7.508H103.2v-7.244c0-0.98-0.174-1.69-0.523-2.132c-0.348-0.438-0.906-0.66-1.678-0.66
		c-0.99,0-1.685,0.305-2.088,0.919c-0.393,0.621-0.592,1.685-0.592,3.194v5.923h-2.828V44.613z"/>
</g>
</svg>
