<?xml version="1.0" encoding="utf-8"?>
<!-- Generator: Adobe Illustrator 16.0.4, SVG Export Plug-In . SVG Version: 6.00 Build 0)  -->
<!DOCTYPE svg PUBLIC "-//W3C//DTD SVG 1.1//EN" "http://www.w3.org/Graphics/SVG/1.1/DTD/svg11.dtd">
<svg version="1.1" id="Layer_1" xmlns="http://www.w3.org/2000/svg" xmlns:xlink="http://www.w3.org/1999/xlink" x="0px" y="0px"
	 width="81.75px" height="66.75px" viewBox="0 0 81.75 66.75" enable-background="new 0 0 81.75 66.75" xml:space="preserve">
<path fill="#12253B" d="M73.398,24.378c0.404-5.007-3.331-10.307-7.351-12.868c-4.579-2.916-11.442-3.373-16.066-0.25
	c-1.427-4.405-5.993-7.636-10.608-7.923c-4.25-0.263-9.412,2.174-11.542,6.113c-3.652-2.061-8.913-1.093-11.872,1.737
	c-1.409,1.346-2.382,3.315-2.558,5.275C6.158,16.218,1.548,24.92,2.419,31.307c0.911,6.687,6.937,14.049,14.236,12.581
	c1.192,9.248,12.144,13.179,19.133,7.25c0.953,1.521,2.529,2.443,4.441,2.577c2.878,0.203,5.304-1.58,7.292-3.478
	c2.028,1.48,4.286,1.646,6.76,0.901c1.498-0.45,1.826-0.199,3.342,0.276c1.789,0.561,3.707,0.871,5.587,0.766
	c5.901-0.33,11.131-5.109,9.919-11.162c2.787-1.652,4.613-6,4.58-8.726C77.674,29.228,75.975,26.064,73.398,24.378z M73.896,38.165
	c-0.595,0.663-1.301,1.159-2.012,1.644c-0.101,0.043-0.191,0.106-0.268,0.184c-0.647,0.444-1.287,0.893-1.838,1.471
	c-0.029,0.03-0.017,0.083,0.023,0.093c0.646,0.162,1.264,0.162,1.854,0.042c1.05,6.156-5.54,9.654-11.058,8.873
	c-1.177-0.168-2.307-0.46-3.422-0.875c-0.703-0.26-1.344-0.775-2.101-0.709c-0.986,0.086-1.905,1.105-3.071,1.182
	c-1.514,0.098-2.861-0.441-3.982-1.436c-0.32-0.281-0.799-0.314-1.114,0c-2.362,2.354-8.201,6.096-10.146,1.035
	c-0.203-0.531-0.862-0.797-1.308-0.346c-6.238,6.336-16.547,2.529-17.49-6.229c-0.029-0.262-0.171-0.448-0.356-0.555
	c-0.154-0.162-0.382-0.25-0.664-0.173C9.802,44.311,4.108,36.438,3.728,30.087c-0.395-6.614,3.954-10.627,9.662-12.485
	c0.114,1.429,0.702,2.786,1.927,3.812c0.222,0.186,0.672,0.018,0.544-0.317c-1.326-3.474-1.197-7.075,2.049-9.44
	c3.03-2.208,6.124-1.568,9.456-1.197c-0.362,0.948-0.555,1.965-0.528,3.043c0.013,0.444,0.649,0.662,0.873,0.236
	c1.093-2.076,1.831-4.117,3.602-5.766c2.074-1.93,4.798-2.968,7.634-2.886c6.032,0.178,9.358,4.667,10.961,9.956
	c0.084,0.28,0.463,0.207,0.488-0.066c0.09-0.942,0.029-1.858-0.154-2.736c4.906-1.847,9.946-2.494,14.702,0.366
	c2.177,1.308,3.953,3.22,5.183,5.435c1.01,1.816,1.348,3.642,1.737,5.559c-0.747-0.28-1.544-0.444-2.378-0.456
	c-0.194-0.002-0.281,0.284-0.102,0.376c3.449,1.762,6.75,4.559,6.799,8.771C76.207,34.453,75.335,36.564,73.896,38.165z"/>
<path fill="#12253B" d="M13.759,54.615c2.064-1.381,2.26-4.486,0.654-6.301c-1.671-1.881-4.558-1.632-6.063,0.283
	c-0.107,0.139-0.205,0.295-0.292,0.453c-0.139,0.179-0.255,0.357-0.336,0.516C7.2,50.6,7.164,51.852,7.601,52.918
	C8.574,55.29,11.69,55.998,13.759,54.615z M13.381,51.712c-0.387,1.797-3.175,2.121-3.933,0.428
	c-0.371-0.83-0.134-1.747,0.242-2.528c0.036-0.073,0.104-0.184,0.177-0.312c0.05-0.024,0.095-0.054,0.148-0.073
	C11.774,48.552,13.825,49.645,13.381,51.712z"/>
<path fill="#12253B" d="M15.194,64.416c1.599-0.99,1.829-3.334,0.662-4.75c-1.214-1.469-3.406-1.355-4.596,0.054
	c-0.085,0.102-0.163,0.217-0.233,0.334c-0.109,0.132-0.202,0.265-0.268,0.382c-0.422,0.769-0.483,1.715-0.18,2.533
	C11.253,64.79,13.592,65.408,15.194,64.416z M14.985,62.209c-0.34,1.35-2.459,1.521-2.987,0.22c-0.259-0.638-0.055-1.325,0.25-1.907
	c0.029-0.055,0.084-0.137,0.142-0.23c0.039-0.018,0.074-0.039,0.115-0.053C13.853,59.775,15.376,60.656,14.985,62.209z"/>
</svg>
