<?xml version="1.0" encoding="utf-8"?>
<!-- Generator: Adobe Illustrator 16.0.4, SVG Export Plug-In . SVG Version: 6.00 Build 0)  -->
<!DOCTYPE svg PUBLIC "-//W3C//DTD SVG 1.1//EN" "http://www.w3.org/Graphics/SVG/1.1/DTD/svg11.dtd">
<svg version="1.1" id="Layer_1" xmlns="http://www.w3.org/2000/svg" xmlns:xlink="http://www.w3.org/1999/xlink" x="0px" y="0px"
	 width="287.334px" height="287.334px" viewBox="0 0 287.334 287.334" enable-background="new 0 0 287.334 287.334"
	 xml:space="preserve">
<polygon fill="#FFFFFF" stroke="#00243D" stroke-width="3" stroke-miterlimit="10" points="86.678,280.708 6,200.03 6,85.939 
	86.678,5.261 200.771,5.261 281.45,85.939 281.45,200.03 200.771,280.708 "/>
<polygon fill="#00243D" points="91.496,269.076 17.632,195.212 17.632,90.755 91.496,16.893 195.952,16.893 269.818,90.755 
	269.818,195.212 195.952,269.076 "/>
<g>
	<path fill="#FFFFFF" d="M83.142,155.955c0,5.352-1.788,9.684-5.365,12.998c-3.577,3.315-8.449,4.973-14.612,4.973
		c-4.654,0-9.073-1.019-13.26-3.054c-2.617-1.278-4.42-2.442-5.409-3.489l4.537-6.979c4.942,3.258,9.479,4.885,13.609,4.885
		c3.256,0,5.786-0.77,7.589-2.312c1.802-1.54,2.705-3.62,2.705-6.237c0-2.559-1.309-4.711-3.926-6.456
		c-0.815-0.523-3.52-1.802-8.113-3.838c-4.305-1.919-7.299-3.577-8.986-4.973c-3.781-3.141-5.67-7.095-5.67-11.864
		c0-4.885,1.773-8.854,5.322-11.908c3.546-3.053,8.142-4.58,13.783-4.58c4.537,0,8.724,0.989,12.562,2.966
		c2.035,1.047,3.605,2.124,4.71,3.228l-4.71,6.456c-3.664-2.908-7.62-4.362-11.864-4.362c-2.909,0-5.293,0.684-7.154,2.05
		c-1.862,1.367-2.792,3.156-2.792,5.365c0,2.036,0.842,3.694,2.53,4.973c1.163,0.872,3.896,2.239,8.201,4.1
		c5.291,2.268,9.042,4.392,11.253,6.369C81.454,147.349,83.142,151.244,83.142,155.955z"/>
	<path fill="#FFFFFF" d="M133.563,122.63h-16.488v49.987h-10.12V122.63H90.468v-8.2h43.095V122.63z"/>
	<path fill="#FFFFFF" d="M191.663,143.131c0,9.19-2.561,16.605-7.678,22.246c-5.117,5.642-11.748,8.462-19.889,8.462
		c-8.086,0-14.699-2.82-19.848-8.462c-5.146-5.641-7.72-12.969-7.72-21.984c0-8.955,2.574-16.24,7.72-21.853
		c5.148-5.612,11.82-8.418,20.021-8.418c8.141,0,14.742,2.792,19.803,8.375C189.134,127.08,191.663,134.292,191.663,143.131z
		 M181.282,142.957c0-6.338-1.629-11.5-4.887-15.484c-3.258-3.983-7.473-5.976-12.648-5.976c-5.061,0-9.131,2.05-12.213,6.15
		c-3.084,4.1-4.623,9.437-4.623,16.008c0,6.515,1.627,11.749,4.885,15.703c3.256,3.955,7.414,5.932,12.475,5.932
		c5.641,0,9.973-2.297,12.998-6.892C179.942,154.385,181.282,149.237,181.282,142.957z"/>
	<path fill="#FFFFFF" d="M241.649,131.877c0,5.352-1.657,9.683-4.973,12.999c-2.442,2.442-5.438,4.043-8.985,4.798
		c-2.152,0.466-5.757,0.698-10.817,0.698h-4.361v22.245h-9.945V114.43h15.528c4.711,0,8.229,0.262,10.556,0.785
		c3.372,0.698,6.106,2.094,8.2,4.187C240.05,122.602,241.649,126.76,241.649,131.877z M231.443,132.052
		c0-3.082-0.902-5.524-2.705-7.328c-1.57-1.57-5.146-2.355-10.729-2.355h-5.496v19.89h4.1c6.339,0,10.396-0.886,12.17-2.661
		C230.556,137.825,231.443,135.31,231.443,132.052z"/>
</g>
</svg>
