<?xml version="1.0" encoding="utf-8"?>
<!-- Generator: Adobe Illustrator 16.0.4, SVG Export Plug-In . SVG Version: 6.00 Build 0)  -->
<!DOCTYPE svg PUBLIC "-//W3C//DTD SVG 1.1//EN" "http://www.w3.org/Graphics/SVG/1.1/DTD/svg11.dtd">
<svg version="1.1" id="Layer_1" xmlns="http://www.w3.org/2000/svg" xmlns:xlink="http://www.w3.org/1999/xlink" x="0px" y="0px"
	 width="287.334px" height="287.334px" viewBox="0 0 287.334 287.334" enable-background="new 0 0 287.334 287.334"
	 xml:space="preserve">
<path fill="#0072C6" d="M237.686,6.913H49.649c-14.156,0-25.642,11.485-25.642,25.642V254.78c0,14.155,11.485,25.641,25.642,25.641
	h188.036c14.156,0,25.642-11.485,25.642-25.641V32.555C263.327,18.398,251.842,6.913,237.686,6.913z M143.667,263.327
	c-9.455,0-17.094-7.64-17.094-17.095s7.64-17.094,17.094-17.094c9.456,0,17.095,7.639,17.095,17.094
	S153.123,263.327,143.667,263.327z M237.686,205.634c0,3.525-2.884,6.41-6.41,6.41H56.06c-3.526,0-6.41-2.885-6.41-6.41V38.964
	c0-3.525,2.884-6.41,6.41-6.41h175.216c3.526,0,6.41,2.884,6.41,6.41V205.634z"/>
</svg>
