<?xml version="1.0" encoding="utf-8"?>
<!-- Generator: Adobe Illustrator 16.0.4, SVG Export Plug-In . SVG Version: 6.00 Build 0)  -->
<!DOCTYPE svg PUBLIC "-//W3C//DTD SVG 1.1//EN" "http://www.w3.org/Graphics/SVG/1.1/DTD/svg11.dtd">
<svg version="1.1" id="Layer_1" xmlns="http://www.w3.org/2000/svg" xmlns:xlink="http://www.w3.org/1999/xlink" x="0px" y="0px"
	 width="287.334px" height="287.334px" viewBox="0 0 287.334 287.334" enable-background="new 0 0 287.334 287.334"
	 xml:space="preserve">
<path fill="#0072C6" d="M94.6,174.044c-4.121,0-8.142-1.656-11.031-4.546L15.72,101.649c-2.89-2.89-4.547-6.911-4.547-11.032
	c0-4.121,1.657-8.142,4.547-11.031l18.529-18.529c2.889-2.89,6.911-4.547,11.032-4.547c4.121,0,8.142,1.657,11.031,4.547
	l38.289,38.419l87.604-87.737c2.89-2.891,6.91-4.548,11.032-4.548c4.121,0,8.142,1.657,11.031,4.546l18.529,18.529
	c2.889,2.889,4.546,6.91,4.546,11.033s-1.657,8.144-4.546,11.032L105.632,169.498C102.742,172.388,98.721,174.044,94.6,174.044z"/>
<path fill="#FFFFFF" d="M193.237,9.691c3.406,0,6.812,1.362,9.265,3.814l18.529,18.528c2.452,2.453,3.812,5.859,3.812,9.266
	c0,3.404-1.36,6.812-3.812,9.265l-98.638,98.638l-18.529,18.528c-2.452,2.451-5.858,3.813-9.265,3.813
	c-3.405,0-6.812-1.362-9.264-3.813l-18.529-18.528l-49.32-49.319c-2.452-2.453-3.814-5.858-3.814-9.265
	c0-3.405,1.362-6.812,3.814-9.264l18.529-18.529c2.452-2.452,5.858-3.813,9.265-3.813c3.406,0,6.812,1.362,9.264,3.813L94.6,103.016
	l89.375-89.51C186.426,11.053,189.832,9.691,193.237,9.691 M193.237,4.691c-4.78,0-9.445,1.924-12.799,5.28L94.603,95.936
	L58.086,59.295c-3.361-3.361-8.026-5.285-12.805-5.285c-4.78,0-9.445,1.924-12.8,5.279L13.952,77.818
	c-3.355,3.355-5.279,8.02-5.279,12.799c0,4.779,1.924,9.444,5.278,12.8l49.32,49.318L81.8,171.267
	c3.355,3.354,8.02,5.277,12.799,5.277c4.779,0,9.444-1.924,12.799-5.277l18.53-18.529L224.565,54.1
	c3.354-3.354,5.277-8.02,5.277-12.8c0-4.781-1.924-9.446-5.277-12.801L206.037,9.97C202.681,6.615,198.017,4.691,193.237,4.691
	L193.237,4.691z"/>
<path fill="#0072C6" d="M249.558,277.155c-3.3,0-6.519-1.327-8.832-3.641l-28.776-28.777l-28.776,28.777
	c-2.312,2.312-5.531,3.641-8.832,3.641c-3.3,0-6.519-1.327-8.832-3.641l-14.13-14.131c-2.313-2.312-3.642-5.531-3.642-8.832
	c0-3.298,1.326-6.518,3.641-8.832l28.778-28.777l-28.777-28.777c-2.313-2.312-3.642-5.532-3.642-8.832
	c0-3.301,1.326-6.52,3.642-8.832l14.13-14.129c2.314-2.314,5.533-3.643,8.832-3.643s6.518,1.328,8.832,3.643l28.776,28.775
	l28.776-28.775c2.314-2.314,5.533-3.643,8.832-3.643c3.297,0,6.518,1.328,8.832,3.642l14.131,14.131
	c2.313,2.313,3.642,5.533,3.642,8.831c0,3.299-1.327,6.518-3.642,8.832l-28.777,28.777l28.777,28.777
	c2.313,2.315,3.642,5.535,3.642,8.832c0,3.299-1.327,6.518-3.642,8.832l-14.129,14.131
	C256.074,275.829,252.854,277.155,249.558,277.155z"/>
<path fill="#FFFFFF" d="M249.558,151.229c2.599,0,5.194,1.041,7.065,2.91l14.129,14.129c1.869,1.869,2.909,4.469,2.909,7.063
	c0,2.601-1.04,5.194-2.909,7.063l-30.545,30.545l30.545,30.545c1.869,1.871,2.909,4.468,2.909,7.066c0,2.596-1.04,5.194-2.909,7.062
	l-14.129,14.131c-1.871,1.869-4.468,2.908-7.065,2.908c-2.597,0-5.194-1.039-7.063-2.908L211.949,241.2l-30.544,30.545
	c-1.869,1.869-4.469,2.908-7.064,2.908c-2.599,0-5.195-1.039-7.064-2.908l-14.129-14.131c-1.871-1.868-2.909-4.467-2.909-7.062
	c0-2.6,1.038-5.195,2.909-7.066l30.545-30.545l-30.545-30.545c-1.871-1.869-2.909-4.465-2.909-7.063
	c0-2.597,1.038-5.194,2.909-7.063l14.129-14.129c1.869-1.869,4.467-2.91,7.064-2.91s5.195,1.041,7.064,2.91l30.544,30.543
	l30.545-30.543C244.362,152.271,246.961,151.229,249.558,151.229 M249.558,146.229c-3.957,0-7.819,1.594-10.6,4.375l-27.01,27.008
	l-27.01-27.008c-2.778-2.781-6.643-4.375-10.6-4.375s-7.82,1.594-10.6,4.375l-14.131,14.129c-2.778,2.777-4.373,6.642-4.373,10.6
	s1.595,7.822,4.373,10.602l27.01,27.008l-27.01,27.011c-2.779,2.78-4.373,6.646-4.373,10.601c0,3.959,1.595,7.822,4.373,10.602
	l14.131,14.129c2.777,2.779,6.642,4.373,10.6,4.373s7.821-1.594,10.6-4.373l27.01-27.01l27.01,27.01
	c2.777,2.779,6.643,4.373,10.6,4.373c3.955,0,7.818-1.594,10.601-4.371l14.131-14.133c2.778-2.778,4.373-6.643,4.373-10.6
	c0-3.955-1.595-7.816-4.372-10.599l-27.011-27.013l27.009-27.01c2.779-2.779,4.374-6.643,4.374-10.6c0-3.956-1.595-7.818-4.374-10.6
	l-14.128-14.129C257.376,147.823,253.512,146.229,249.558,146.229L249.558,146.229z"/>
</svg>
