<?xml version="1.0" encoding="utf-8"?>
<!-- Generator: Adobe Illustrator 16.0.4, SVG Export Plug-In . SVG Version: 6.00 Build 0)  -->
<!DOCTYPE svg PUBLIC "-//W3C//DTD SVG 1.1//EN" "http://www.w3.org/Graphics/SVG/1.1/DTD/svg11.dtd">
<svg version="1.1" id="Layer_1" xmlns="http://www.w3.org/2000/svg" xmlns:xlink="http://www.w3.org/1999/xlink" x="0px" y="0px"
	 width="214px" height="163px" viewBox="19.167 14.167 214 163" enable-background="new 19.167 14.167 214 163"
	 xml:space="preserve">
<rect x="6.295" fill="none" width="278.965" height="287.334"/>
<path fill="#1C3449" d="M225.562,161.032c-3.3,1.807-6.285,2.709-8.957,2.709c-3.541,0-6.36-1.18-8.461-3.541
	c-2.103-2.36-3.15-5.52-3.15-9.477c0-3.924,1.162-7.063,3.488-9.426c2.222-2.257,5.051-3.386,8.487-3.386
	c2.916,0,5.677,0.868,8.28,2.604l2.655-4.062c-0.556-0.625-1.599-1.283-3.125-1.979c-2.431-1.146-5.14-1.719-8.123-1.719
	c-5.138,0-9.356,1.633-12.653,4.896c-3.472,3.366-5.208,7.88-5.208,13.539c0,5.451,1.649,9.809,4.947,13.07
	c3.194,3.159,7.272,4.737,12.237,4.737c3.088,0,5.986-0.591,8.695-1.771c1.666-0.729,2.812-1.422,3.438-2.082L225.562,161.032z
	 M193.69,163.272H179.06v-10.57h13.33v-4.791h-13.33v-9.477h14.217v-4.896h-20.152v34.732h20.568v-4.998H193.69z M157.865,147.494
	c-1.181,1.181-3.438,1.771-6.771,1.771h-2.291v-10.937h2.812c1.874,0,3.107,0.054,3.697,0.157c1.181,0.174,2.116,0.607,2.812,1.302
	c0.866,0.868,1.302,2.118,1.302,3.749C159.428,145.136,158.907,146.453,157.865,147.494z M163.75,159.002
	c-1.25-2.776-2.239-4.528-2.97-5.259c-0.971-0.971-1.995-1.51-3.071-1.613c2.361-0.312,4.233-1.259,5.624-2.84
	c1.389-1.578,2.083-3.547,2.083-5.908c0-2.778-0.938-5.104-2.812-6.979c-1.32-1.319-3.021-2.17-5.104-2.552
	c-1.146-0.209-3.246-0.312-6.302-0.312h-8.331v34.731h5.937v-14.318h1.459c2.012,0,3.401,0.227,4.165,0.676
	c0.938,0.592,1.927,2.051,2.97,4.374l4.164,9.271h6.354L163.75,159.002z M137.4,133.539h-25.724v4.896h9.842v29.837h6.04v-29.837
	h9.842V133.539z"/>
<g>
	<defs>
		<rect id="SVGID_1_" x="6.295" width="278.965" height="287.334"/>
	</defs>
	<clipPath id="SVGID_2_">
		<use xlink:href="#SVGID_1_"  overflow="visible"/>
	</clipPath>
	<polygon clip-path="url(#SVGID_2_)" fill="#F7A51E" points="52.884,95.462 43.073,163.325 62.242,156.502 70.692,98.036 	"/>
</g>
<g>
	<defs>
		<rect id="SVGID_3_" x="6.295" width="278.965" height="287.334"/>
	</defs>
	<clipPath id="SVGID_4_">
		<use xlink:href="#SVGID_3_"  overflow="visible"/>
	</clipPath>
	<path clip-path="url(#SVGID_4_)" fill="#231F20" d="M52.884,95.462l1.84,0.266l-9.368,64.811l15.207-5.414l8.024-55.514
		l-15.968-2.309L52.884,95.462l1.84,0.266L52.884,95.462l0.266-1.841l17.809,2.574c0.485,0.071,0.931,0.334,1.224,0.727
		s0.421,0.895,0.352,1.379l-8.451,58.465c-0.098,0.682-0.568,1.256-1.217,1.486l-19.168,6.822c-0.614,0.22-1.297,0.102-1.802-0.312
		c-0.505-0.412-0.756-1.06-0.663-1.705l9.811-67.862c0.147-1.017,1.09-1.722,2.106-1.575L52.884,95.462z"/>
</g>
<g>
	<defs>
		<rect id="SVGID_5_" x="6.295" width="278.965" height="287.334"/>
	</defs>
	<clipPath id="SVGID_6_">
		<use xlink:href="#SVGID_5_"  overflow="visible"/>
	</clipPath>
	<polygon clip-path="url(#SVGID_6_)" fill="#F7A51E" points="96.5,171.046 106.308,103.186 88.501,100.611 80.05,159.075 	"/>
</g>
<g>
	<defs>
		<rect id="SVGID_7_" x="6.295" width="278.965" height="287.334"/>
	</defs>
	<clipPath id="SVGID_8_">
		<use xlink:href="#SVGID_7_"  overflow="visible"/>
	</clipPath>
	<path clip-path="url(#SVGID_8_)" fill="#231F20" d="M96.5,171.046l-1.841-0.266l9.543-66.021l-14.126-2.042l-8.025,55.512
		l15.542,11.312L96.5,171.046l-1.841-0.266L96.5,171.046l-1.094,1.504l-16.45-11.972c-0.557-0.404-0.845-1.089-0.746-1.771
		l8.45-58.462c0.147-1.017,1.091-1.722,2.107-1.574l17.807,2.573c1.017,0.146,1.721,1.09,1.574,2.107l-9.808,67.86
		c-0.093,0.646-0.518,1.193-1.118,1.447c-0.601,0.254-1.289,0.176-1.817-0.209L96.5,171.046z"/>
</g>
<polygon fill="#DE761B" points="80.05,159.073 88.5,100.61 70.692,98.037 62.241,156.502 71.824,153.095 "/>
<rect x="6.295" fill="none" width="278.965" height="287.334"/>
<path fill="#231F20" d="M80.05,159.073l-1.84-0.266l8.185-56.623l-14.128-2.043l-7.743,53.574l6.678-2.377
	c0.581-0.205,1.219-0.113,1.717,0.249l8.226,5.981L80.05,159.073l-1.84-0.266L80.05,159.073l-1.093,1.505l-7.433-5.404l-8.66,3.08
	c-0.615,0.22-1.297,0.101-1.802-0.313c-0.504-0.412-0.755-1.059-0.662-1.705l8.451-58.464c0.147-1.016,1.09-1.722,2.107-1.575
	l17.809,2.575c0.484,0.069,0.93,0.334,1.223,0.727s0.421,0.895,0.351,1.38l-8.451,58.465c-0.093,0.645-0.516,1.192-1.117,1.445
	c-0.601,0.254-1.289,0.176-1.816-0.209L80.05,159.073z"/>
<rect x="6.295" fill="none" width="278.965" height="287.334"/>
<g>
	<defs>
		<rect id="SVGID_9_" x="6.295" width="278.965" height="287.334"/>
	</defs>
	<clipPath id="SVGID_10_">
		<use xlink:href="#SVGID_9_"  overflow="visible"/>
	</clipPath>
	<polygon clip-path="url(#SVGID_10_)" fill="#F7A51E" points="30.677,52.521 37.934,68.49 83.108,75.02 	"/>
</g>
<g>
	<defs>
		<rect id="SVGID_11_" x="6.295" width="278.965" height="287.334"/>
	</defs>
	<clipPath id="SVGID_12_">
		<use xlink:href="#SVGID_11_"  overflow="visible"/>
	</clipPath>
	<path clip-path="url(#SVGID_12_)" fill="#231F20" d="M30.677,52.521l1.693-0.77l6.836,15.044l30.187,4.364L29.943,54.23
		L30.677,52.521l1.693-0.77L30.677,52.521l0.733-1.709l52.43,22.499c0.856,0.368,1.31,1.316,1.057,2.213
		c-0.252,0.897-1.134,1.47-2.056,1.336l-45.173-6.529c-0.628-0.091-1.165-0.494-1.427-1.071l-7.256-15.97
		c-0.318-0.701-0.174-1.521,0.364-2.07c0.538-0.55,1.355-0.712,2.062-0.408L30.677,52.521z"/>
</g>
<g>
	<defs>
		<rect id="SVGID_13_" x="6.295" width="278.965" height="287.334"/>
	</defs>
	<clipPath id="SVGID_14_">
		<use xlink:href="#SVGID_13_"  overflow="visible"/>
	</clipPath>
	<polygon clip-path="url(#SVGID_14_)" fill="#F7A51E" points="76.377,18.363 66.178,32.631 83.109,75.02 	"/>
</g>
<g>
	<defs>
		<rect id="SVGID_15_" x="6.295" width="278.965" height="287.334"/>
	</defs>
	<clipPath id="SVGID_16_">
		<use xlink:href="#SVGID_15_"  overflow="visible"/>
	</clipPath>
	<path clip-path="url(#SVGID_16_)" fill="#231F20" d="M76.377,18.363l1.513,1.082l-9.608,13.441l11.312,28.322L74.53,18.583
		L76.377,18.363l1.513,1.082L76.377,18.363l1.847-0.22L84.956,74.8c0.11,0.925-0.486,1.792-1.388,2.021
		c-0.903,0.229-1.841-0.247-2.187-1.113L64.45,33.321c-0.235-0.589-0.154-1.255,0.214-1.771l10.199-14.269
		c0.447-0.626,1.23-0.912,1.975-0.72c0.745,0.191,1.294,0.818,1.385,1.583L76.377,18.363z"/>
</g>
<g>
	<defs>
		<rect id="SVGID_17_" x="6.295" width="278.965" height="287.334"/>
	</defs>
	<clipPath id="SVGID_18_">
		<use xlink:href="#SVGID_17_"  overflow="visible"/>
	</clipPath>
	<polygon clip-path="url(#SVGID_18_)" fill="#DE761B" points="47.251,46.778 30.678,52.52 83.108,75.019 	"/>
</g>
<g>
	<defs>
		<rect id="SVGID_19_" x="6.295" width="278.965" height="287.334"/>
	</defs>
	<clipPath id="SVGID_20_">
		<use xlink:href="#SVGID_19_"  overflow="visible"/>
	</clipPath>
	<path clip-path="url(#SVGID_20_)" fill="#231F20" d="M47.251,46.778l0.609,1.758l-12.036,4.168l35.034,15.034l-24.757-19.5
		L47.251,46.778l0.609,1.758L47.251,46.778l1.151-1.46l35.856,28.24c0.731,0.576,0.924,1.61,0.448,2.411
		c-0.476,0.801-1.476,1.126-2.332,0.759l-52.431-22.5c-0.707-0.304-1.153-1.007-1.125-1.776c0.028-0.769,0.523-1.438,1.25-1.689
		l16.575-5.742c0.599-0.207,1.261-0.095,1.759,0.297L47.251,46.778z"/>
</g>
<g>
	<defs>
		<rect id="SVGID_21_" x="6.295" width="278.965" height="287.334"/>
	</defs>
	<clipPath id="SVGID_22_">
		<use xlink:href="#SVGID_21_"  overflow="visible"/>
	</clipPath>
	<polygon clip-path="url(#SVGID_22_)" fill="#F7A51E" points="105.607,22.588 89.64,29.845 83.108,75.019 	"/>
</g>
<g>
	<defs>
		<rect id="SVGID_23_" x="6.295" width="278.965" height="287.334"/>
	</defs>
	<clipPath id="SVGID_24_">
		<use xlink:href="#SVGID_23_"  overflow="visible"/>
	</clipPath>
	<path clip-path="url(#SVGID_24_)" fill="#231F20" d="M105.607,22.588l0.769,1.693l-15.041,6.835L86.971,61.3l16.926-39.446
		L105.607,22.588l0.769,1.693L105.607,22.588l1.708,0.733L84.818,75.752c-0.368,0.856-1.316,1.309-2.214,1.057
		c-0.896-0.252-1.47-1.134-1.336-2.057L87.8,29.579c0.09-0.627,0.493-1.165,1.071-1.427l15.966-7.257
		c0.699-0.319,1.52-0.174,2.07,0.364c0.55,0.538,0.712,1.355,0.408,2.062L105.607,22.588z"/>
</g>
<g>
	<defs>
		<rect id="SVGID_25_" x="6.295" width="278.965" height="287.334"/>
	</defs>
	<clipPath id="SVGID_26_">
		<use xlink:href="#SVGID_25_"  overflow="visible"/>
	</clipPath>
	<polygon clip-path="url(#SVGID_26_)" fill="#F7A51E" points="48.949,29.32 47.251,46.779 83.108,75.02 	"/>
</g>
<g>
	<defs>
		<rect id="SVGID_27_" x="6.295" width="278.965" height="287.334"/>
	</defs>
	<clipPath id="SVGID_28_">
		<use xlink:href="#SVGID_27_"  overflow="visible"/>
	</clipPath>
	<path clip-path="url(#SVGID_28_)" fill="#231F20" d="M48.949,29.32l1.852,0.18l-1.6,16.447l23.96,18.871L47.46,30.433L48.949,29.32
		l1.852,0.18L48.949,29.32l1.49-1.114l34.159,45.7c0.558,0.747,0.476,1.795-0.192,2.447c-0.667,0.649-1.716,0.706-2.449,0.128
		L46.101,48.24c-0.499-0.393-0.762-1.01-0.701-1.641l1.698-17.459c0.074-0.766,0.61-1.404,1.351-1.611
		c0.741-0.207,1.529,0.062,1.99,0.678L48.949,29.32z"/>
</g>
<g>
	<defs>
		<rect id="SVGID_29_" x="6.295" width="278.965" height="287.334"/>
	</defs>
	<clipPath id="SVGID_30_">
		<use xlink:href="#SVGID_29_"  overflow="visible"/>
	</clipPath>
	<polygon clip-path="url(#SVGID_30_)" fill="#DE761B" points="66.177,32.632 48.95,29.32 83.108,75.02 	"/>
</g>
<g>
	<defs>
		<rect id="SVGID_31_" x="6.295" width="278.965" height="287.334"/>
	</defs>
	<clipPath id="SVGID_32_">
		<use xlink:href="#SVGID_31_"  overflow="visible"/>
	</clipPath>
	<path clip-path="url(#SVGID_32_)" fill="#231F20" d="M66.177,32.632l-0.352,1.826l-12.511-2.406l22.828,30.541L64.45,33.322
		L66.177,32.632l-0.352,1.826L66.177,32.632l1.727-0.69L84.835,74.33c0.345,0.865-0.005,1.856-0.817,2.312s-1.842,0.237-2.399-0.509
		l-34.159-45.7c-0.46-0.616-0.495-1.449-0.086-2.101c0.408-0.651,1.172-0.984,1.927-0.839l17.228,3.312
		c0.623,0.12,1.14,0.547,1.376,1.136L66.177,32.632z"/>
</g>
<g>
	<defs>
		<rect id="SVGID_33_" x="6.295" width="278.965" height="287.334"/>
	</defs>
	<clipPath id="SVGID_34_">
		<use xlink:href="#SVGID_33_"  overflow="visible"/>
	</clipPath>
	<polygon clip-path="url(#SVGID_34_)" fill="#DE761B" points="89.639,29.846 76.38,18.363 76.377,18.363 83.108,75.02 	"/>
</g>
<g>
	<defs>
		<rect id="SVGID_35_" x="6.295" width="278.965" height="287.334"/>
	</defs>
	<clipPath id="SVGID_36_">
		<use xlink:href="#SVGID_35_"  overflow="visible"/>
	</clipPath>
	<path clip-path="url(#SVGID_36_)" fill="#231F20" d="M89.639,29.846l-1.217,1.405L75.162,19.77l1.218-1.406v1.86h-0.003v-1.86
		l1.848-0.219l5.064,42.629l4.51-31.195L89.639,29.846l-1.217,1.405L89.639,29.846l1.841,0.266l-6.532,45.174
		c-0.133,0.922-0.932,1.605-1.864,1.594c-0.932-0.011-1.713-0.715-1.824-1.64L74.53,18.584c-0.063-0.528,0.103-1.057,0.456-1.455
		c0.353-0.397,0.859-0.625,1.39-0.625h0.003c0.445,0,0.88,0.162,1.217,0.454l13.26,11.482c0.479,0.416,0.714,1.045,0.624,1.672
		L89.639,29.846z"/>
</g>
<g>
	<defs>
		<rect id="SVGID_37_" x="6.295" width="278.965" height="287.334"/>
	</defs>
	<clipPath id="SVGID_38_">
		<use xlink:href="#SVGID_37_"  overflow="visible"/>
	</clipPath>
	<polygon clip-path="url(#SVGID_38_)" fill="#DE761B" points="128.284,81.55 139.765,68.29 83.108,75.019 	"/>
</g>
<g>
	<defs>
		<rect id="SVGID_39_" x="6.295" width="278.965" height="287.334"/>
	</defs>
	<clipPath id="SVGID_40_">
		<use xlink:href="#SVGID_39_"  overflow="visible"/>
	</clipPath>
	<path clip-path="url(#SVGID_40_)" fill="#231F20" d="M128.284,81.55l-1.407-1.217l8.339-9.63L97.355,75.2l31.195,4.51
		L128.284,81.55l-1.407-1.217L128.284,81.55l-0.267,1.841l-45.176-6.532c-0.922-0.133-1.605-0.933-1.593-1.864
		c0.011-0.932,0.714-1.713,1.64-1.823l56.657-6.729c0.765-0.09,1.502,0.296,1.863,0.975c0.36,0.68,0.266,1.507-0.238,2.089
		l-11.482,13.26c-0.416,0.479-1.045,0.714-1.672,0.624L128.284,81.55z"/>
</g>
<g>
	<defs>
		<rect id="SVGID_41_" x="6.295" width="278.965" height="287.334"/>
	</defs>
	<clipPath id="SVGID_42_">
		<use xlink:href="#SVGID_41_"  overflow="visible"/>
	</clipPath>
	<polygon clip-path="url(#SVGID_42_)" fill="#F7A51E" points="139.765,68.289 125.498,58.089 83.109,75.02 	"/>
</g>
<g>
	<defs>
		<rect id="SVGID_43_" x="6.295" width="278.965" height="287.334"/>
	</defs>
	<clipPath id="SVGID_44_">
		<use xlink:href="#SVGID_43_"  overflow="visible"/>
	</clipPath>
	<path clip-path="url(#SVGID_44_)" fill="#231F20" d="M139.765,68.289l-1.082,1.513l-13.441-9.609L96.918,71.506l42.628-5.064
		L139.765,68.289l-1.082,1.513L139.765,68.289l0.219,1.847l-56.656,6.729c-0.925,0.11-1.792-0.485-2.022-1.388
		c-0.229-0.902,0.247-1.839,1.113-2.185l42.388-16.932c0.589-0.235,1.255-0.154,1.771,0.214l14.268,10.202
		c0.626,0.447,0.912,1.229,0.721,1.975c-0.191,0.745-0.818,1.293-1.583,1.384L139.765,68.289z"/>
</g>
<g>
	<defs>
		<rect id="SVGID_45_" x="6.295" width="278.965" height="287.334"/>
	</defs>
	<clipPath id="SVGID_46_">
		<use xlink:href="#SVGID_45_"  overflow="visible"/>
	</clipPath>
	<polygon clip-path="url(#SVGID_46_)" fill="#DE761B" points="111.351,39.162 105.605,22.588 83.108,75.019 	"/>
</g>
<g>
	<defs>
		<rect id="SVGID_47_" x="6.295" width="278.965" height="287.334"/>
	</defs>
	<clipPath id="SVGID_48_">
		<use xlink:href="#SVGID_47_"  overflow="visible"/>
	</clipPath>
	<path clip-path="url(#SVGID_48_)" fill="#231F20" d="M111.351,39.162l-1.757,0.609l-4.172-12.037L90.388,62.772l19.502-24.761
		L111.351,39.162l-1.757,0.609L111.351,39.162l1.461,1.151L84.569,76.17c-0.576,0.732-1.61,0.923-2.411,0.447
		c-0.801-0.476-1.126-1.476-0.759-2.332l22.498-52.431c0.303-0.707,1.007-1.152,1.776-1.125s1.438,0.522,1.69,1.25l5.745,16.574
		c0.208,0.599,0.096,1.262-0.296,1.76L111.351,39.162z"/>
</g>
<g>
	<defs>
		<rect id="SVGID_49_" x="6.295" width="278.965" height="287.334"/>
	</defs>
	<clipPath id="SVGID_50_">
		<use xlink:href="#SVGID_49_"  overflow="visible"/>
	</clipPath>
	<polygon clip-path="url(#SVGID_50_)" fill="#F7A51E" points="128.811,40.863 111.35,39.162 83.108,75.02 	"/>
</g>
<g>
	<defs>
		<rect id="SVGID_51_" x="6.295" width="278.965" height="287.334"/>
	</defs>
	<clipPath id="SVGID_52_">
		<use xlink:href="#SVGID_51_"  overflow="visible"/>
	</clipPath>
	<path clip-path="url(#SVGID_52_)" fill="#231F20" d="M128.811,40.863l-0.181,1.853l-16.447-1.604L93.308,65.074l34.389-25.701
		L128.811,40.863l-0.181,1.853L128.811,40.863l1.113,1.49L84.222,76.509c-0.747,0.558-1.794,0.476-2.446-0.191
		c-0.65-0.667-0.705-1.717-0.128-2.449l28.242-35.858c0.392-0.499,1.01-0.762,1.641-0.701l17.46,1.702
		c0.765,0.075,1.405,0.61,1.61,1.351c0.208,0.74-0.061,1.529-0.677,1.99L128.811,40.863z"/>
</g>
<g>
	<defs>
		<rect id="SVGID_53_" x="6.295" width="278.965" height="287.334"/>
	</defs>
	<clipPath id="SVGID_54_">
		<use xlink:href="#SVGID_53_"  overflow="visible"/>
	</clipPath>
	<polygon clip-path="url(#SVGID_54_)" fill="#DE761B" points="125.497,58.088 125.497,58.088 128.811,40.863 83.108,75.02 	"/>
</g>
<g>
	<defs>
		<rect id="SVGID_55_" x="6.295" width="278.965" height="287.334"/>
	</defs>
	<clipPath id="SVGID_56_">
		<use xlink:href="#SVGID_55_"  overflow="visible"/>
	</clipPath>
	<path clip-path="url(#SVGID_56_)" fill="#231F20" d="M125.497,58.088l-1.827-0.351l2.406-12.509L95.537,68.052l29.269-11.691
		L125.497,58.088l-1.827-0.351L125.497,58.088l0.689,1.727L83.798,76.746c-0.864,0.346-1.856-0.005-2.312-0.817
		c-0.456-0.813-0.238-1.841,0.508-2.399l45.703-34.157c0.617-0.46,1.448-0.495,2.101-0.087c0.651,0.408,0.983,1.173,0.839,1.928
		l-3.312,17.225c-0.121,0.623-0.548,1.141-1.137,1.375L125.497,58.088z"/>
</g>
<g>
	<defs>
		<rect id="SVGID_57_" x="6.295" width="278.965" height="287.334"/>
	</defs>
	<clipPath id="SVGID_58_">
		<use xlink:href="#SVGID_57_"  overflow="visible"/>
	</clipPath>
	<polygon clip-path="url(#SVGID_58_)" fill="#F7A51E" points="89.841,131.676 100.04,117.407 83.108,75.02 	"/>
</g>
<g>
	<defs>
		<rect id="SVGID_59_" x="6.295" width="278.965" height="287.334"/>
	</defs>
	<clipPath id="SVGID_60_">
		<use xlink:href="#SVGID_59_"  overflow="visible"/>
	</clipPath>
	<path clip-path="url(#SVGID_60_)" fill="#231F20" d="M89.841,131.676l-1.513-1.082l9.607-13.44L86.623,88.831l5.065,42.625
		L89.841,131.676l-1.513-1.082L89.841,131.676l-1.847,0.22l-6.732-56.657c-0.11-0.925,0.485-1.792,1.389-2.021
		c0.902-0.229,1.84,0.247,2.185,1.113l16.932,42.388c0.235,0.59,0.155,1.255-0.214,1.771l-10.198,14.268
		c-0.448,0.626-1.23,0.912-1.976,0.72c-0.745-0.191-1.294-0.817-1.385-1.581L89.841,131.676z"/>
</g>
<g>
	<defs>
		<rect id="SVGID_61_" x="6.295" width="278.965" height="287.334"/>
	</defs>
	<clipPath id="SVGID_62_">
		<use xlink:href="#SVGID_61_"  overflow="visible"/>
	</clipPath>
	<polygon clip-path="url(#SVGID_62_)" fill="#DE761B" points="37.935,68.49 26.453,81.748 26.453,81.752 83.108,75.02 	"/>
</g>
<g>
	<defs>
		<rect id="SVGID_63_" x="6.295" width="278.965" height="287.334"/>
	</defs>
	<clipPath id="SVGID_64_">
		<use xlink:href="#SVGID_63_"  overflow="visible"/>
	</clipPath>
	<path clip-path="url(#SVGID_64_)" fill="#231F20" d="M37.935,68.49l1.405,1.217L27.858,82.966l-1.406-1.218h1.859v0.004h-1.859
		l-0.22-1.847l42.63-5.066L37.668,70.33L37.935,68.49l1.405,1.217L37.935,68.49l0.266-1.841l45.173,6.53
		c0.922,0.134,1.605,0.933,1.594,1.864c-0.012,0.932-0.715,1.713-1.64,1.823l-56.656,6.732c-0.528,0.062-1.058-0.103-1.455-0.456
		c-0.397-0.353-0.625-0.859-0.625-1.391v-0.004c0-0.445,0.163-0.88,0.454-1.217l11.482-13.258c0.415-0.479,1.044-0.714,1.672-0.624
		L37.935,68.49z"/>
</g>
<g>
	<defs>
		<rect id="SVGID_65_" x="6.295" width="278.965" height="287.334"/>
	</defs>
	<clipPath id="SVGID_66_">
		<use xlink:href="#SVGID_65_"  overflow="visible"/>
	</clipPath>
	<polygon clip-path="url(#SVGID_66_)" fill="#F7A51E" points="117.267,120.718 118.967,103.262 83.108,75.02 	"/>
</g>
<g>
	<defs>
		<rect id="SVGID_67_" x="6.295" width="278.965" height="287.334"/>
	</defs>
	<clipPath id="SVGID_68_">
		<use xlink:href="#SVGID_67_"  overflow="visible"/>
	</clipPath>
	<path clip-path="url(#SVGID_68_)" fill="#231F20" d="M117.267,120.718l-1.851-0.181l1.602-16.443L93.057,85.223l25.7,34.382
		L117.267,120.718l-1.851-0.181L117.267,120.718l-1.49,1.113L81.619,76.133c-0.558-0.746-0.476-1.794,0.191-2.445
		s1.717-0.706,2.449-0.129l35.857,28.242c0.499,0.393,0.762,1.009,0.701,1.641l-1.7,17.457c-0.075,0.766-0.61,1.404-1.351,1.611
		c-0.741,0.207-1.53-0.062-1.99-0.678L117.267,120.718z"/>
</g>
<g>
	<defs>
		<rect id="SVGID_69_" x="6.295" width="278.965" height="287.334"/>
	</defs>
	<clipPath id="SVGID_70_">
		<use xlink:href="#SVGID_69_"  overflow="visible"/>
	</clipPath>
	<polygon clip-path="url(#SVGID_70_)" fill="#DE761B" points="76.58,120.195 89.839,131.674 89.841,131.676 83.109,75.018 	"/>
</g>
<g>
	<defs>
		<rect id="SVGID_71_" x="6.295" width="278.965" height="287.334"/>
	</defs>
	<clipPath id="SVGID_72_">
		<use xlink:href="#SVGID_71_"  overflow="visible"/>
	</clipPath>
	<path clip-path="url(#SVGID_72_)" fill="#231F20" d="M76.58,120.195l1.217-1.406l13.26,11.478l0.098,0.092l0.002,0.002
		l-1.315,1.314l-1.847,0.22L82.93,89.264l-4.509,31.198L76.58,120.195l1.217-1.406L76.58,120.195l-1.841-0.266l6.529-45.178
		c0.133-0.922,0.933-1.605,1.864-1.593c0.931,0.012,1.713,0.715,1.824,1.64l6.732,56.658c0.094,0.786-0.323,1.547-1.035,1.893
		c-0.712,0.345-1.567,0.202-2.127-0.359l-0.002-0.001l1.315-1.315l-1.217,1.406l-13.26-11.479c-0.479-0.414-0.714-1.044-0.623-1.672
		L76.58,120.195z"/>
</g>
<g>
	<defs>
		<rect id="SVGID_73_" x="6.295" width="278.965" height="287.334"/>
	</defs>
	<clipPath id="SVGID_74_">
		<use xlink:href="#SVGID_73_"  overflow="visible"/>
	</clipPath>
	<polygon clip-path="url(#SVGID_74_)" fill="#F7A51E" points="128.284,81.55 83.108,75.019 135.54,97.517 	"/>
</g>
<g>
	<defs>
		<rect id="SVGID_75_" x="6.295" width="278.965" height="287.334"/>
	</defs>
	<clipPath id="SVGID_76_">
		<use xlink:href="#SVGID_75_"  overflow="visible"/>
	</clipPath>
	<path clip-path="url(#SVGID_76_)" fill="#231F20" d="M128.284,81.55l-0.267,1.841l-31.192-4.51l35.034,15.033l-5.27-11.594
		L128.284,81.55l-0.267,1.841L128.284,81.55l1.693-0.771l7.257,15.967c0.318,0.7,0.173,1.52-0.364,2.07
		c-0.538,0.55-1.356,0.712-2.062,0.408L82.374,76.728c-0.855-0.368-1.309-1.316-1.057-2.213c0.253-0.897,1.134-1.47,2.056-1.337
		l45.176,6.532c0.627,0.09,1.164,0.493,1.427,1.07L128.284,81.55z"/>
</g>
<g>
	<defs>
		<rect id="SVGID_77_" x="6.295" width="278.965" height="287.334"/>
	</defs>
	<clipPath id="SVGID_78_">
		<use xlink:href="#SVGID_77_"  overflow="visible"/>
	</clipPath>
	<polygon clip-path="url(#SVGID_78_)" fill="#DE761B" points="118.968,103.261 135.542,97.517 83.109,75.02 	"/>
</g>
<g>
	<defs>
		<rect id="SVGID_79_" x="6.295" width="278.965" height="287.334"/>
	</defs>
	<clipPath id="SVGID_80_">
		<use xlink:href="#SVGID_79_"  overflow="visible"/>
	</clipPath>
	<path clip-path="url(#SVGID_80_)" fill="#231F20" d="M118.968,103.261l-0.609-1.757l12.037-4.171l-35.04-15.035l24.762,19.503
		L118.968,103.261l-0.609-1.757L118.968,103.261l-1.151,1.461L81.958,76.48c-0.732-0.577-0.924-1.61-0.448-2.412
		c0.476-0.801,1.476-1.125,2.333-0.758l52.432,22.497c0.706,0.304,1.153,1.007,1.125,1.776c-0.027,0.77-0.522,1.439-1.249,1.69
		l-16.574,5.745c-0.599,0.208-1.262,0.096-1.76-0.296L118.968,103.261z"/>
</g>
<g>
	<defs>
		<rect id="SVGID_81_" x="6.295" width="278.965" height="287.334"/>
	</defs>
	<clipPath id="SVGID_82_">
		<use xlink:href="#SVGID_81_"  overflow="visible"/>
	</clipPath>
	<polygon clip-path="url(#SVGID_82_)" fill="#DE761B" points="100.04,117.407 117.267,120.721 117.267,120.718 83.108,75.02 	"/>
</g>
<g>
	<defs>
		<rect id="SVGID_83_" x="6.295" width="278.965" height="287.334"/>
	</defs>
	<clipPath id="SVGID_84_">
		<use xlink:href="#SVGID_83_"  overflow="visible"/>
	</clipPath>
	<path clip-path="url(#SVGID_84_)" fill="#231F20" d="M100.04,117.407l0.351-1.827l17.227,3.314l-0.351,1.827h-1.86v-0.003h1.86
		l-1.49,1.113L90.074,87.444l11.693,29.272L100.04,117.407l0.351-1.827L100.04,117.407l-1.727,0.689L81.381,75.709
		c-0.346-0.865,0.004-1.856,0.817-2.312c0.812-0.456,1.842-0.237,2.399,0.509l34.159,45.699c0.238,0.318,0.37,0.716,0.37,1.113
		v0.003c0,0.551-0.25,1.083-0.676,1.434c-0.425,0.351-0.994,0.496-1.535,0.393l-17.227-3.315c-0.623-0.12-1.141-0.547-1.376-1.136
		L100.04,117.407z"/>
</g>
<g>
	<defs>
		<rect id="SVGID_85_" x="6.295" width="278.965" height="287.334"/>
	</defs>
	<clipPath id="SVGID_86_">
		<use xlink:href="#SVGID_85_"  overflow="visible"/>
	</clipPath>
	<polygon clip-path="url(#SVGID_86_)" fill="#F7A51E" points="26.453,81.751 40.721,91.951 40.721,91.952 83.108,75.02 	"/>
</g>
<g>
	<defs>
		<rect id="SVGID_87_" x="6.295" width="278.965" height="287.334"/>
	</defs>
	<clipPath id="SVGID_88_">
		<use xlink:href="#SVGID_87_"  overflow="visible"/>
	</clipPath>
	<path clip-path="url(#SVGID_88_)" fill="#231F20" d="M26.453,81.751l1.082-1.513l14.268,10.199c0.491,0.351,0.778,0.91,0.778,1.513
		v0.001h-1.859l-0.691-1.727L69.3,78.533l-42.627,5.065L26.453,81.751l1.082-1.513L26.453,81.751l-0.219-1.846l56.656-6.732
		c0.925-0.11,1.792,0.485,2.022,1.388c0.23,0.903-0.247,1.84-1.112,2.186L41.411,93.68c-0.572,0.229-1.223,0.158-1.733-0.188
		c-0.51-0.345-0.816-0.924-0.816-1.54v-0.001h1.86l-1.082,1.513L25.371,83.265c-0.626-0.447-0.911-1.229-0.72-1.976
		c0.191-0.744,0.818-1.293,1.582-1.384L26.453,81.751z"/>
</g>
<g>
	<defs>
		<rect id="SVGID_89_" x="6.295" width="278.965" height="287.334"/>
	</defs>
	<clipPath id="SVGID_90_">
		<use xlink:href="#SVGID_89_"  overflow="visible"/>
	</clipPath>
	<polygon clip-path="url(#SVGID_90_)" fill="#DE761B" points="40.722,91.953 37.406,109.179 37.409,109.179 83.109,75.02 	"/>
</g>
<g>
	<defs>
		<rect id="SVGID_91_" x="6.295" width="278.965" height="287.334"/>
	</defs>
	<clipPath id="SVGID_92_">
		<use xlink:href="#SVGID_91_"  overflow="visible"/>
	</clipPath>
	<path clip-path="url(#SVGID_92_)" fill="#231F20" d="M40.722,91.953l1.826,0.352l-3.316,17.225l-1.826-0.351v-1.86h0.003v1.86
		l-1.113-1.489l34.385-25.702L41.411,93.68L40.722,91.953l1.826,0.352L40.722,91.953l-0.69-1.727L82.42,73.292
		c0.865-0.346,1.856,0.005,2.312,0.817c0.456,0.813,0.238,1.842-0.509,2.4l-45.7,34.159c-0.318,0.237-0.716,0.369-1.113,0.369
		h-0.003c-0.552,0-1.083-0.25-1.434-0.676c-0.352-0.425-0.497-0.994-0.393-1.535L38.896,91.6c0.12-0.622,0.547-1.14,1.137-1.375
		L40.722,91.953z"/>
</g>
<g>
	<defs>
		<rect id="SVGID_93_" x="6.295" width="278.965" height="287.334"/>
	</defs>
	<clipPath id="SVGID_94_">
		<use xlink:href="#SVGID_93_"  overflow="visible"/>
	</clipPath>
	<polygon clip-path="url(#SVGID_94_)" fill="#DE761B" points="54.867,110.877 60.612,127.45 83.109,75.02 	"/>
</g>
<g>
	<defs>
		<rect id="SVGID_95_" x="6.295" width="278.965" height="287.334"/>
	</defs>
	<clipPath id="SVGID_96_">
		<use xlink:href="#SVGID_95_"  overflow="visible"/>
	</clipPath>
	<path clip-path="url(#SVGID_96_)" fill="#231F20" d="M54.867,110.877l1.757-0.609l4.172,12.035L75.83,87.268l-19.502,24.761
		L54.867,110.877l1.757-0.609L54.867,110.877l-1.461-1.151l28.242-35.857c0.577-0.732,1.61-0.924,2.411-0.448
		c0.801,0.476,1.126,1.476,0.759,2.333l-22.498,52.43c-0.303,0.707-1.007,1.152-1.776,1.125c-0.769-0.028-1.438-0.523-1.69-1.249
		l-5.746-16.573c-0.208-0.599-0.097-1.262,0.297-1.76L54.867,110.877z"/>
</g>
<g>
	<defs>
		<rect id="SVGID_97_" x="6.295" width="278.965" height="287.334"/>
	</defs>
	<clipPath id="SVGID_98_">
		<use xlink:href="#SVGID_97_"  overflow="visible"/>
	</clipPath>
	<polygon clip-path="url(#SVGID_98_)" fill="#F7A51E" points="60.611,127.449 76.577,120.194 76.58,120.197 83.109,75.019 	"/>
</g>
<g>
	<defs>
		<rect id="SVGID_99_" x="6.295" width="278.965" height="287.334"/>
	</defs>
	<clipPath id="SVGID_100_">
		<use xlink:href="#SVGID_99_"  overflow="visible"/>
	</clipPath>
	<path clip-path="url(#SVGID_100_)" fill="#231F20" d="M60.611,127.449l-0.77-1.692l15.967-7.255c0.7-0.319,1.526-0.172,2.074,0.368
		l0.002,0.002l-1.305,1.325l-1.84-0.266l4.509-31.196l-16.927,39.449L60.611,127.449l-0.77-1.692L60.611,127.449l-1.708-0.733
		L81.4,74.286c0.368-0.856,1.316-1.31,2.213-1.057c0.896,0.251,1.47,1.133,1.336,2.056l-6.53,45.177
		c-0.1,0.693-0.583,1.273-1.248,1.498c-0.663,0.222-1.399,0.053-1.898-0.438l-0.002-0.002l1.305-1.325l0.77,1.693l-15.966,7.256
		c-0.7,0.317-1.521,0.172-2.07-0.366c-0.55-0.538-0.712-1.355-0.408-2.062L60.611,127.449z"/>
</g>
<g>
	<defs>
		<rect id="SVGID_101_" x="6.295" width="278.965" height="287.334"/>
	</defs>
	<clipPath id="SVGID_102_">
		<use xlink:href="#SVGID_101_"  overflow="visible"/>
	</clipPath>
	<polygon clip-path="url(#SVGID_102_)" fill="#F7A51E" points="37.409,109.179 54.867,110.878 83.109,75.019 	"/>
</g>
<g>
	<defs>
		<rect id="SVGID_103_" x="6.295" width="278.965" height="287.334"/>
	</defs>
	<clipPath id="SVGID_104_">
		<use xlink:href="#SVGID_103_"  overflow="visible"/>
	</clipPath>
	<path clip-path="url(#SVGID_104_)" fill="#231F20" d="M37.409,109.179l0.18-1.851l16.446,1.601l18.873-23.962l-34.385,25.702
		L37.409,109.179l0.18-1.851L37.409,109.179l-1.114-1.489l45.701-34.161c0.746-0.558,1.794-0.476,2.445,0.192
		c0.65,0.667,0.706,1.717,0.13,2.448L56.327,112.03c-0.392,0.497-1.01,0.761-1.641,0.7l-17.458-1.7
		c-0.766-0.075-1.404-0.61-1.611-1.352c-0.208-0.74,0.061-1.528,0.677-1.989L37.409,109.179z"/>
</g>
<rect x="6.295" fill="none" width="278.965" height="287.334"/>
<path fill="#F7A51E" d="M118.605,80.158c-2.834,19.605-21.026,33.204-40.632,30.37c-19.605-2.835-33.202-21.027-30.368-40.633
	c2.834-19.605,21.025-33.203,40.631-30.369S121.44,60.552,118.605,80.158"/>
<g>
	<defs>
		<rect id="SVGID_105_" x="6.295" width="278.965" height="287.334"/>
	</defs>
	<clipPath id="SVGID_106_">
		<use xlink:href="#SVGID_105_"  overflow="visible"/>
	</clipPath>
	<path clip-path="url(#SVGID_106_)" fill="#231F20" d="M118.605,80.158l1.841,0.266c-1.356,9.39-6.074,17.486-12.749,23.217
		c-6.675,5.732-15.321,9.12-24.548,9.12c-1.796,0-3.614-0.129-5.442-0.393c-9.39-1.356-17.484-6.073-23.215-12.749
		c-5.732-6.675-9.12-15.321-9.12-24.549c0-1.796,0.128-3.615,0.393-5.443c1.356-9.39,6.073-17.485,12.748-23.215
		c6.674-5.733,15.319-9.121,24.546-9.121c1.796,0,3.614,0.129,5.442,0.393c9.391,1.357,17.486,6.074,23.216,12.75
		c5.733,6.674,9.121,15.321,9.121,24.547c0,1.797-0.129,3.615-0.393,5.443L118.605,80.158l-1.84-0.266
		c0.239-1.651,0.354-3.291,0.354-4.911c0-8.31-3.05-16.1-8.223-22.123c-5.175-6.023-12.451-10.266-20.927-11.492
		c-1.651-0.239-3.291-0.354-4.91-0.354c-8.311,0-16.1,3.05-22.123,8.222c-6.022,5.174-10.264,12.45-11.49,20.926
		c-0.239,1.651-0.354,3.292-0.354,4.911c0,8.312,3.05,16.102,8.223,22.126c5.173,6.022,12.45,10.264,20.925,11.492
		c1.652,0.239,3.291,0.353,4.91,0.353c8.312,0.001,16.101-3.05,22.125-8.223c6.021-5.175,10.265-12.451,11.491-20.927
		L118.605,80.158z"/>
</g>
</svg>
