<?xml version="1.0" encoding="utf-8"?>
<!-- Generator: Adobe Illustrator 16.0.4, SVG Export Plug-In . SVG Version: 6.00 Build 0)  -->
<!DOCTYPE svg PUBLIC "-//W3C//DTD SVG 1.1//EN" "http://www.w3.org/Graphics/SVG/1.1/DTD/svg11.dtd">
<svg version="1.1" id="Layer_1" xmlns="http://www.w3.org/2000/svg" xmlns:xlink="http://www.w3.org/1999/xlink" x="0px" y="0px"
	 width="77.5px" height="64.5px" viewBox="0 0 77.5 64.5" enable-background="new 0 0 77.5 64.5" xml:space="preserve">
<g>
	<path fill="#1F71B8" stroke="#020304" stroke-width="1.0494" d="M62.846,21.136c6.293,2.501,10.544,8.345,10.898,14.988v0.014
		v12.467c0,0.033-0.008,0.069-0.022,0.101c-0.879,1.952-2.429,3.54-4.378,4.484l0,0c-0.347,0.172-0.723,0.256-1.094,0.256
		c-0.577,0-1.147-0.203-1.598-0.588c-1.943,1.021-4.109,1.573-6.316,1.605h-0.001c-0.173,0.002-0.348,0.004-0.521,0.004
		c-6.725,0-13.354-1.578-19.332-4.604c-0.002,0-0.004-0.004-0.006-0.005c-0.002,0-0.006-0.003-0.008-0.003
		c-0.807-0.479-1.365-1.268-1.547-2.166c-0.251,0.076-0.511,0.115-0.769,0.115c-0.638,0-1.267-0.234-1.752-0.682v0.002
		c-1.478-1.16-2.338-2.918-2.338-4.775c0-0.026,0-0.053,0.001-0.078l-0.058-7.064V35.19c0.328-6.731,4.58-12.681,10.925-15.288
		L62.846,21.136z"/>
	<path fill="#1F71B8" stroke="#020304" stroke-width="1.0494" d="M66.314,13.286c0-3.226-1.336-6.145-3.494-8.258
		c-2.157-2.112-5.139-3.417-8.428-3.417s-6.271,1.304-8.429,3.417c-2.157,2.113-3.493,5.032-3.493,8.258
		c0,3.225,1.336,6.145,3.492,8.256c2.158,2.112,5.141,3.417,8.43,3.417s6.271-1.305,8.428-3.417
		C64.979,19.431,66.314,16.511,66.314,13.286"/>
	<path fill="#010202" d="M38.771,47.37c-0.101-1.222-0.152-2.448-0.152-3.675c0-6.189,1.284-12.365,3.769-18.044
		c0.055-0.126,0.201-0.183,0.326-0.127c0.126,0.056,0.184,0.201,0.127,0.325c-2.457,5.617-3.727,11.725-3.727,17.846
		c0,1.213,0.05,2.424,0.15,3.635c0.011,0.137-0.09,0.256-0.227,0.268C38.902,47.607,38.782,47.506,38.771,47.37z"/>
	<path fill="#010202" d="M66.443,52.547c0.098-1.674,0.146-3.352,0.146-5.028c0-5.966-0.617-11.928-1.842-17.769
		c-0.029-0.135,0.057-0.266,0.191-0.295c0.134-0.027,0.265,0.059,0.293,0.191c1.232,5.877,1.854,11.873,1.854,17.872
		c0,1.685-0.049,3.373-0.148,5.057c-0.006,0.138-0.125,0.241-0.26,0.233C66.541,52.802,66.436,52.683,66.443,52.547z"/>
</g>
<g>
	<rect x="7.451" y="32.648" fill="#FFFFFF" width="51.529" height="30.918"/>
	<rect x="7.451" y="43.16" fill="#04976E" width="51.529" height="20.611"/>
	<rect x="7.451" y="53.465" fill="#D72816" width="51.529" height="10.307"/>
</g>
</svg>
