<?xml version="1.0" encoding="utf-8"?>
<!-- Generator: Adobe Illustrator 16.0.4, SVG Export Plug-In . SVG Version: 6.00 Build 0)  -->
<!DOCTYPE svg PUBLIC "-//W3C//DTD SVG 1.1//EN" "http://www.w3.org/Graphics/SVG/1.1/DTD/svg11.dtd">
<svg version="1.1" id="Layer_1" xmlns="http://www.w3.org/2000/svg" xmlns:xlink="http://www.w3.org/1999/xlink" x="0px" y="0px"
	 width="77.5px" height="64.5px" viewBox="0 0 77.5 64.5" enable-background="new 0 0 77.5 64.5" xml:space="preserve">
<g>
	<path fill="#1F71B8" stroke="#020304" stroke-width="0.9184" d="M26.399,18.088c5.51,2.188,9.229,7.305,9.54,13.119v0.012v10.91
		c0,0.029-0.006,0.061-0.02,0.09c-0.771,1.707-2.125,3.098-3.833,3.924l0,0c-0.303,0.15-0.633,0.225-0.957,0.225
		c-0.506,0-1.004-0.178-1.398-0.516c-1.701,0.895-3.597,1.377-5.528,1.406l0,0c-0.152,0.002-0.304,0.002-0.456,0.002
		c-5.886,0-11.688-1.381-16.919-4.027c-0.002-0.002-0.004-0.004-0.006-0.006c-0.002,0-0.004-0.002-0.006-0.002
		c-0.707-0.42-1.195-1.109-1.354-1.896c-0.22,0.068-0.447,0.104-0.673,0.104c-0.559,0-1.109-0.205-1.533-0.596l0,0
		c-1.293-1.018-2.046-2.555-2.046-4.18c0-0.021,0-0.047,0.001-0.068L1.16,30.404v-0.016c0.287-5.891,4.009-11.098,9.562-13.379
		L26.399,18.088z"/>
	<path fill="#1F71B8" stroke="#020304" stroke-width="0.9184" d="M29.436,11.219c0-2.824-1.17-5.379-3.059-7.229
		C24.489,2.142,21.88,1,19.001,1s-5.489,1.143-7.377,2.99c-1.888,1.85-3.058,4.404-3.058,7.229c0,2.822,1.17,5.377,3.057,7.225
		c1.889,1.851,4.499,2.992,7.377,2.992c2.879,0,5.489-1.143,7.375-2.992C28.266,16.596,29.436,14.041,29.436,11.219"/>
	<path fill="#010202" d="M5.329,41.049c-0.088-1.068-0.133-2.143-0.133-3.217c0-5.417,1.124-10.822,3.299-15.791
		c0.048-0.111,0.176-0.16,0.285-0.111c0.11,0.049,0.161,0.176,0.112,0.285C6.741,27.131,5.63,32.474,5.63,37.832
		c0,1.062,0.043,2.123,0.131,3.182c0.01,0.119-0.079,0.225-0.198,0.234C5.443,41.258,5.339,41.168,5.329,41.049z"/>
	<path fill="#010202" d="M29.549,45.58c0.085-1.465,0.127-2.934,0.127-4.4c0-5.223-0.539-10.439-1.611-15.553
		c-0.025-0.117,0.051-0.232,0.167-0.258c0.117-0.023,0.231,0.051,0.257,0.168c1.078,5.143,1.622,10.391,1.622,15.643
		c0,1.475-0.043,2.951-0.13,4.426c-0.006,0.119-0.109,0.211-0.229,0.203C29.633,45.803,29.542,45.699,29.549,45.58z"/>
</g>
<rect x="15.25" y="33.117" fill="#FF0000" width="60.967" height="30.483"/>
<rect x="30.493" y="33.117" fill="#FFFFFF" width="30.482" height="30.483"/>
<path fill="#FF0000" d="M45.733,35.975l-2.081,3.88c-0.234,0.421-0.657,0.382-1.08,0.146l-1.508-0.779l1.123,5.957
	c0.236,1.089-0.521,1.089-0.894,0.618l-2.628-2.941l-0.427,1.494c-0.049,0.196-0.266,0.402-0.59,0.353l-3.322-0.698l0.873,3.173
	c0.186,0.706,0.333,0.999-0.188,1.185l-1.185,0.557l5.72,4.646c0.227,0.177,0.341,0.493,0.261,0.779l-0.501,1.643
	c1.969-0.227,3.733-0.569,5.704-0.779c0.174-0.019,0.465,0.269,0.465,0.47l-0.261,6.02h0.958l-0.152-6.006
	c-0.001-0.201,0.263-0.502,0.438-0.483c1.97,0.21,3.735,0.553,5.705,0.779l-0.501-1.643c-0.08-0.286,0.033-0.603,0.26-0.779
	l5.721-4.646l-1.185-0.557c-0.521-0.186-0.375-0.479-0.188-1.185l0.872-3.173l-3.322,0.698c-0.324,0.05-0.541-0.156-0.591-0.353
	l-0.426-1.494l-2.628,2.941c-0.373,0.471-1.132,0.471-0.896-0.618l1.123-5.957l-1.507,0.779c-0.422,0.235-0.845,0.274-1.081-0.146"
	/>
</svg>
