<?xml version="1.0" encoding="utf-8"?>
<!-- Generator: Adobe Illustrator 16.0.4, SVG Export Plug-In . SVG Version: 6.00 Build 0)  -->
<!DOCTYPE svg PUBLIC "-//W3C//DTD SVG 1.1//EN" "http://www.w3.org/Graphics/SVG/1.1/DTD/svg11.dtd">
<svg version="1.1" id="Layer_1" xmlns="http://www.w3.org/2000/svg" xmlns:xlink="http://www.w3.org/1999/xlink" x="0px" y="0px"
	 width="95.25px" height="64.5px" viewBox="0 0 95.25 64.5" enable-background="new 0 0 95.25 64.5" xml:space="preserve">
<polyline fill="none" points="87.588,26.798 87.875,26.798 88.162,26.798 "/>
<g>
	<path fill="#1F71B8" stroke="#020304" stroke-width="1.2167" d="M81.613,24.245c7.297,2.901,12.226,9.676,12.637,17.38v0.016
		v14.454c0,0.039-0.009,0.081-0.025,0.118c-1.02,2.263-2.816,4.103-5.078,5.2l0.002-0.001c-0.402,0.199-0.838,0.296-1.269,0.296
		c-0.669,0-1.33-0.235-1.854-0.681c-2.254,1.183-4.764,1.824-7.323,1.86h-0.001c-0.201,0.003-0.402,0.004-0.604,0.004
		c-7.797,0-15.482-1.829-22.414-5.336c-0.003-0.002-0.006-0.005-0.008-0.007c-0.003-0.001-0.006-0.002-0.009-0.003
		c-0.936-0.556-1.583-1.471-1.794-2.513c-0.291,0.09-0.592,0.135-0.891,0.135c-0.74,0-1.469-0.271-2.031-0.79v0.001
		c-1.714-1.346-2.711-3.384-2.711-5.535c0-0.031,0-0.062,0.001-0.093l-0.067-8.19v-0.018c0.379-7.808,5.311-14.703,12.668-17.727
		L81.613,24.245z"/>
	<path fill="#1F71B8" stroke="#020304" stroke-width="1.2167" d="M85.636,15.145c0-3.739-1.549-7.125-4.051-9.574
		s-5.959-3.962-9.773-3.962S64.54,3.121,62.04,5.57c-2.502,2.449-4.052,5.835-4.051,9.574c-0.001,3.738,1.549,7.126,4.05,9.573
		c2.501,2.448,5.958,3.962,9.772,3.962s7.271-1.514,9.773-3.962C84.087,22.271,85.636,18.883,85.636,15.145"/>
	<path fill="#010202" d="M53.7,54.664c-0.117-1.417-0.176-2.839-0.176-4.261c0-7.178,1.487-14.337,4.37-20.922
		c0.063-0.146,0.233-0.212,0.378-0.147c0.146,0.064,0.212,0.233,0.148,0.378c-2.852,6.513-4.322,13.593-4.322,20.691
		c0,1.406,0.058,2.811,0.174,4.215c0.013,0.157-0.105,0.296-0.263,0.31C53.852,54.939,53.713,54.822,53.7,54.664z"/>
	<path fill="#010202" d="M85.786,60.667c0.113-1.941,0.17-3.887,0.17-5.831c0-6.917-0.717-13.83-2.137-20.604
		c-0.033-0.155,0.066-0.307,0.222-0.34c0.155-0.032,0.308,0.066,0.34,0.222c1.429,6.813,2.149,13.766,2.149,20.722
		c0,1.955-0.057,3.912-0.171,5.864c-0.009,0.158-0.146,0.278-0.303,0.27C85.897,60.961,85.776,60.824,85.786,60.667z"/>
</g>
<path fill="#1E4295" d="M1.348,33.123H46v29.769H1.348V33.123z"/>
<path fill="#FFFFFF" d="M16.231,33.123v29.769H46V33.123H16.231z M8.791,36.845l-0.838,2.577H5.209l2.22,1.604l-0.834,2.562
	l2.177-1.59l2.203,1.586l-0.841-2.586l2.161-1.582H9.627L8.791,36.845z"/>
<path fill="#D52D1E" d="M46,62.892H1.348V48.007H46"/>
</svg>
