<?xml version="1.0" encoding="utf-8"?>
<!-- Generator: Adobe Illustrator 16.0.4, SVG Export Plug-In . SVG Version: 6.00 Build 0)  -->
<!DOCTYPE svg PUBLIC "-//W3C//DTD SVG 1.1//EN" "http://www.w3.org/Graphics/SVG/1.1/DTD/svg11.dtd">
<svg version="1.1" id="Layer_1" xmlns="http://www.w3.org/2000/svg" xmlns:xlink="http://www.w3.org/1999/xlink" x="0px" y="0px"
	 width="287.334px" height="287.334px" viewBox="0 0 287.334 287.334" enable-background="new 0 0 287.334 287.334"
	 xml:space="preserve">
<path fill="#FFFFFF" d="M143.207,4C66.859,4,5,65.859,5,142.207c0,76.35,61.859,138.206,138.207,138.206
	c76.349,0,138.208-61.856,138.208-138.206C281.415,65.859,219.556,4,143.207,4z"/>
<path fill="#0072C6" d="M187.791,97.624c9.863,0,17.833,7.97,17.833,17.833c0,9.865-7.97,17.833-17.833,17.833
	c-9.865,0-17.833-7.968-17.833-17.833C169.958,105.594,177.926,97.624,187.791,97.624z"/>
<path fill="#0072C6" d="M98.625,97.624c9.863,0,17.833,7.97,17.833,17.833c0,9.865-7.97,17.833-17.833,17.833
	c-9.864,0-17.834-7.968-17.834-17.833C80.791,105.594,88.761,97.624,98.625,97.624z"/>
<path fill="#0072C6" d="M207.185,192.475c-15.883,19.059-39.178,29.981-63.978,29.981c-24.799,0-48.094-10.923-63.976-29.981
	c-3.176-3.79-2.62-9.42,1.115-12.54c3.789-3.176,9.418-2.618,12.538,1.116c12.484,14.99,30.763,23.517,50.268,23.517
	c19.504,0,37.785-8.583,50.266-23.517c3.178-3.79,8.75-4.292,12.54-1.116C209.804,183.112,210.306,188.741,207.185,192.475z"/>
</svg>
